<?xml version="1.0" encoding="utf-8" standalone="no"?>
<!DOCTYPE svg PUBLIC "-//W3C//DTD SVG 1.1//EN"
  "http://www.w3.org/Graphics/SVG/1.1/DTD/svg11.dtd">
<!-- Created with matplotlib (https://matplotlib.org/) -->
<svg height="288pt" version="1.1" viewBox="0 0 432 288" width="432pt" xmlns="http://www.w3.org/2000/svg" xmlns:xlink="http://www.w3.org/1999/xlink">
 <metadata>
  <rdf:RDF xmlns:cc="http://creativecommons.org/ns#" xmlns:dc="http://purl.org/dc/elements/1.1/" xmlns:rdf="http://www.w3.org/1999/02/22-rdf-syntax-ns#">
   <cc:Work>
    <dc:type rdf:resource="http://purl.org/dc/dcmitype/StillImage"/>
    <dc:date>2022-02-27T17:11:30.094331</dc:date>
    <dc:format>image/svg+xml</dc:format>
    <dc:creator>
     <cc:Agent>
      <dc:title>Matplotlib v3.3.2, https://matplotlib.org/</dc:title>
     </cc:Agent>
    </dc:creator>
   </cc:Work>
  </rdf:RDF>
 </metadata>
 <defs>
  <style type="text/css">*{stroke-linecap:butt;stroke-linejoin:round;}</style>
 </defs>
 <g id="figure_1">
  <g id="patch_1">
   <path d="M 0 288 
L 432 288 
L 432 0 
L 0 0 
z
" style="fill:none;"/>
  </g>
  <g id="axes_1">
   <g id="patch_2">
    <path d="M 54 187.032273 
L 388.8 187.032273 
L 388.8 99.527727 
L 54 99.527727 
z
" style="fill:#ffffff;"/>
   </g>
   <g id="matplotlib.axis_1">
    <g id="xtick_1">
     <g id="line2d_1">
      <defs>
       <path d="M 0 0 
L 0 3.5 
" id="m7141822866" style="stroke:#000000;stroke-width:0.8;"/>
      </defs>
      <g>
       <use style="stroke:#000000;stroke-width:0.8;" x="54.951136" xlink:href="#m7141822866" y="187.032273"/>
      </g>
     </g>
     <g id="text_1">
      <!-- 9.0 -->
      <g transform="translate(42.228636 206.189773)scale(0.16 -0.16)">
       <defs>
        <path d="M 10.984375 1.515625 
L 10.984375 10.5 
Q 14.703125 8.734375 18.5 7.8125 
Q 22.3125 6.890625 25.984375 6.890625 
Q 35.75 6.890625 40.890625 13.453125 
Q 46.046875 20.015625 46.78125 33.40625 
Q 43.953125 29.203125 39.59375 26.953125 
Q 35.25 24.703125 29.984375 24.703125 
Q 19.046875 24.703125 12.671875 31.3125 
Q 6.296875 37.9375 6.296875 49.421875 
Q 6.296875 60.640625 12.9375 67.421875 
Q 19.578125 74.21875 30.609375 74.21875 
Q 43.265625 74.21875 49.921875 64.515625 
Q 56.59375 54.828125 56.59375 36.375 
Q 56.59375 19.140625 48.40625 8.859375 
Q 40.234375 -1.421875 26.421875 -1.421875 
Q 22.703125 -1.421875 18.890625 -0.6875 
Q 15.09375 0.046875 10.984375 1.515625 
z
M 30.609375 32.421875 
Q 37.25 32.421875 41.125 36.953125 
Q 45.015625 41.5 45.015625 49.421875 
Q 45.015625 57.28125 41.125 61.84375 
Q 37.25 66.40625 30.609375 66.40625 
Q 23.96875 66.40625 20.09375 61.84375 
Q 16.21875 57.28125 16.21875 49.421875 
Q 16.21875 41.5 20.09375 36.953125 
Q 23.96875 32.421875 30.609375 32.421875 
z
" id="DejaVuSans-57"/>
        <path d="M 10.6875 12.40625 
L 21 12.40625 
L 21 0 
L 10.6875 0 
z
" id="DejaVuSans-46"/>
        <path d="M 31.78125 66.40625 
Q 24.171875 66.40625 20.328125 58.90625 
Q 16.5 51.421875 16.5 36.375 
Q 16.5 21.390625 20.328125 13.890625 
Q 24.171875 6.390625 31.78125 6.390625 
Q 39.453125 6.390625 43.28125 13.890625 
Q 47.125 21.390625 47.125 36.375 
Q 47.125 51.421875 43.28125 58.90625 
Q 39.453125 66.40625 31.78125 66.40625 
z
M 31.78125 74.21875 
Q 44.046875 74.21875 50.515625 64.515625 
Q 56.984375 54.828125 56.984375 36.375 
Q 56.984375 17.96875 50.515625 8.265625 
Q 44.046875 -1.421875 31.78125 -1.421875 
Q 19.53125 -1.421875 13.0625 8.265625 
Q 6.59375 17.96875 6.59375 36.375 
Q 6.59375 54.828125 13.0625 64.515625 
Q 19.53125 74.21875 31.78125 74.21875 
z
" id="DejaVuSans-48"/>
       </defs>
       <use xlink:href="#DejaVuSans-57"/>
       <use x="63.623047" xlink:href="#DejaVuSans-46"/>
       <use x="95.410156" xlink:href="#DejaVuSans-48"/>
      </g>
     </g>
    </g>
    <g id="xtick_2">
     <g id="line2d_2">
      <g>
       <use style="stroke:#000000;stroke-width:0.8;" x="387.848864" xlink:href="#m7141822866" y="187.032273"/>
      </g>
     </g>
     <g id="text_2">
      <!-- 44.0 -->
      <g transform="translate(370.036364 206.189773)scale(0.16 -0.16)">
       <defs>
        <path d="M 37.796875 64.3125 
L 12.890625 25.390625 
L 37.796875 25.390625 
z
M 35.203125 72.90625 
L 47.609375 72.90625 
L 47.609375 25.390625 
L 58.015625 25.390625 
L 58.015625 17.1875 
L 47.609375 17.1875 
L 47.609375 0 
L 37.796875 0 
L 37.796875 17.1875 
L 4.890625 17.1875 
L 4.890625 26.703125 
z
" id="DejaVuSans-52"/>
       </defs>
       <use xlink:href="#DejaVuSans-52"/>
       <use x="63.623047" xlink:href="#DejaVuSans-52"/>
       <use x="127.246094" xlink:href="#DejaVuSans-46"/>
       <use x="159.033203" xlink:href="#DejaVuSans-48"/>
      </g>
     </g>
    </g>
   </g>
   <g id="matplotlib.axis_2">
    <g id="ytick_1">
     <g id="line2d_3">
      <defs>
       <path d="M 0 0 
L -3.5 0 
" id="mb1cf61d580" style="stroke:#000000;stroke-width:0.8;"/>
      </defs>
      <g>
       <use style="stroke:#000000;stroke-width:0.8;" x="54" xlink:href="#mb1cf61d580" y="186.081136"/>
      </g>
     </g>
     <g id="text_3">
      <!-- 29.0 -->
      <g transform="translate(11.375 192.159886)scale(0.16 -0.16)">
       <defs>
        <path d="M 19.1875 8.296875 
L 53.609375 8.296875 
L 53.609375 0 
L 7.328125 0 
L 7.328125 8.296875 
Q 12.9375 14.109375 22.625 23.890625 
Q 32.328125 33.6875 34.8125 36.53125 
Q 39.546875 41.84375 41.421875 45.53125 
Q 43.3125 49.21875 43.3125 52.78125 
Q 43.3125 58.59375 39.234375 62.25 
Q 35.15625 65.921875 28.609375 65.921875 
Q 23.96875 65.921875 18.8125 64.3125 
Q 13.671875 62.703125 7.8125 59.421875 
L 7.8125 69.390625 
Q 13.765625 71.78125 18.9375 73 
Q 24.125 74.21875 28.421875 74.21875 
Q 39.75 74.21875 46.484375 68.546875 
Q 53.21875 62.890625 53.21875 53.421875 
Q 53.21875 48.921875 51.53125 44.890625 
Q 49.859375 40.875 45.40625 35.40625 
Q 44.1875 33.984375 37.640625 27.21875 
Q 31.109375 20.453125 19.1875 8.296875 
z
" id="DejaVuSans-50"/>
       </defs>
       <use xlink:href="#DejaVuSans-50"/>
       <use x="63.623047" xlink:href="#DejaVuSans-57"/>
       <use x="127.246094" xlink:href="#DejaVuSans-46"/>
       <use x="159.033203" xlink:href="#DejaVuSans-48"/>
      </g>
     </g>
    </g>
    <g id="ytick_2">
     <g id="line2d_4">
      <g>
       <use style="stroke:#000000;stroke-width:0.8;" x="54" xlink:href="#mb1cf61d580" y="100.478864"/>
      </g>
     </g>
     <g id="text_4">
      <!-- 38.0 -->
      <g transform="translate(11.375 106.557614)scale(0.16 -0.16)">
       <defs>
        <path d="M 40.578125 39.3125 
Q 47.65625 37.796875 51.625 33 
Q 55.609375 28.21875 55.609375 21.1875 
Q 55.609375 10.40625 48.1875 4.484375 
Q 40.765625 -1.421875 27.09375 -1.421875 
Q 22.515625 -1.421875 17.65625 -0.515625 
Q 12.796875 0.390625 7.625 2.203125 
L 7.625 11.71875 
Q 11.71875 9.328125 16.59375 8.109375 
Q 21.484375 6.890625 26.8125 6.890625 
Q 36.078125 6.890625 40.9375 10.546875 
Q 45.796875 14.203125 45.796875 21.1875 
Q 45.796875 27.640625 41.28125 31.265625 
Q 36.765625 34.90625 28.71875 34.90625 
L 20.21875 34.90625 
L 20.21875 43.015625 
L 29.109375 43.015625 
Q 36.375 43.015625 40.234375 45.921875 
Q 44.09375 48.828125 44.09375 54.296875 
Q 44.09375 59.90625 40.109375 62.90625 
Q 36.140625 65.921875 28.71875 65.921875 
Q 24.65625 65.921875 20.015625 65.03125 
Q 15.375 64.15625 9.8125 62.3125 
L 9.8125 71.09375 
Q 15.4375 72.65625 20.34375 73.4375 
Q 25.25 74.21875 29.59375 74.21875 
Q 40.828125 74.21875 47.359375 69.109375 
Q 53.90625 64.015625 53.90625 55.328125 
Q 53.90625 49.265625 50.4375 45.09375 
Q 46.96875 40.921875 40.578125 39.3125 
z
" id="DejaVuSans-51"/>
        <path d="M 31.78125 34.625 
Q 24.75 34.625 20.71875 30.859375 
Q 16.703125 27.09375 16.703125 20.515625 
Q 16.703125 13.921875 20.71875 10.15625 
Q 24.75 6.390625 31.78125 6.390625 
Q 38.8125 6.390625 42.859375 10.171875 
Q 46.921875 13.96875 46.921875 20.515625 
Q 46.921875 27.09375 42.890625 30.859375 
Q 38.875 34.625 31.78125 34.625 
z
M 21.921875 38.8125 
Q 15.578125 40.375 12.03125 44.71875 
Q 8.5 49.078125 8.5 55.328125 
Q 8.5 64.0625 14.71875 69.140625 
Q 20.953125 74.21875 31.78125 74.21875 
Q 42.671875 74.21875 48.875 69.140625 
Q 55.078125 64.0625 55.078125 55.328125 
Q 55.078125 49.078125 51.53125 44.71875 
Q 48 40.375 41.703125 38.8125 
Q 48.828125 37.15625 52.796875 32.3125 
Q 56.78125 27.484375 56.78125 20.515625 
Q 56.78125 9.90625 50.3125 4.234375 
Q 43.84375 -1.421875 31.78125 -1.421875 
Q 19.734375 -1.421875 13.25 4.234375 
Q 6.78125 9.90625 6.78125 20.515625 
Q 6.78125 27.484375 10.78125 32.3125 
Q 14.796875 37.15625 21.921875 38.8125 
z
M 18.3125 54.390625 
Q 18.3125 48.734375 21.84375 45.5625 
Q 25.390625 42.390625 31.78125 42.390625 
Q 38.140625 42.390625 41.71875 45.5625 
Q 45.3125 48.734375 45.3125 54.390625 
Q 45.3125 60.0625 41.71875 63.234375 
Q 38.140625 66.40625 31.78125 66.40625 
Q 25.390625 66.40625 21.84375 63.234375 
Q 18.3125 60.0625 18.3125 54.390625 
z
" id="DejaVuSans-56"/>
       </defs>
       <use xlink:href="#DejaVuSans-51"/>
       <use x="63.623047" xlink:href="#DejaVuSans-56"/>
       <use x="127.246094" xlink:href="#DejaVuSans-46"/>
       <use x="159.033203" xlink:href="#DejaVuSans-48"/>
      </g>
     </g>
    </g>
   </g>
   <g id="line2d_5">
    <path clip-path="url(#p1be0ab9775)" d="M 79.751006 121.644254 
L 80.622667 120.847134 
L 81.467574 120.655081 
L 82.22572 119.864844 
L 82.067889 119.923214 
L 82.453242 119.806108 
L 82.197364 119.685144 
L 82.251148 119.674231 
L 82.461542 119.625758 
L 82.395764 119.559585 
L 82.519904 119.473078 
L 82.360077 119.505194 
L 82.689516 119.640926 
L 83.019068 120.436652 
L 82.975615 120.429615 
L 83.409496 120.769762 
L 83.461101 121.088235 
L 83.354125 121.067086 
L 83.112571 121.317289 
L 83.526415 121.067843 
L 83.517187 121.241753 
L 83.463971 121.177527 
L 84.308439 121.814169 
L 84.022601 122.460405 
L 84.341689 122.587907 
L 84.213409 122.661256 
L 84.915147 122.764358 
L 84.690819 122.857546 
L 84.574978 123.250932 
L 85.566043 123.011447 
L 85.878412 122.777356 
L 86.295535 122.986868 
L 86.195962 122.835039 
L 86.881788 122.684316 
L 86.842051 122.663659 
L 86.876192 122.836888 
L 86.850089 122.606877 
L 86.993549 122.645362 
L 86.908404 122.716552 
L 86.720291 122.713396 
L 86.873387 122.655872 
L 87.182456 122.450354 
L 87.046878 122.296898 
L 87.116224 122.420348 
L 86.915722 122.613438 
L 88.379304 121.884643 
L 89.246729 122.246945 
L 89.810893 122.474194 
L 89.838802 122.376465 
L 89.989741 122.65251 
L 89.980895 122.535051 
L 90.037827 122.39483 
L 90.267789 122.790885 
L 90.244578 122.766447 
L 91.109565 123.178881 
L 91.293331 123.603623 
L 91.481524 123.583053 
L 91.461631 123.477979 
L 91.849913 123.702022 
L 91.67918 123.756311 
L 91.887101 123.631988 
L 91.992234 123.498565 
L 92.762019 123.427425 
L 92.769434 123.230077 
L 93.434867 122.435992 
L 93.499269 122.387736 
L 93.500231 122.140792 
L 93.663737 121.915613 
L 93.648567 122.091908 
L 93.670342 121.865502 
L 93.667758 121.876683 
L 93.886737 122.29056 
L 94.930786 123.35357 
L 95.350573 123.628692 
L 96.961957 123.849939 
L 96.815396 123.778655 
L 97.09771 123.691341 
L 97.167654 123.89801 
L 97.537251 123.612267 
L 97.490903 123.547916 
L 97.57559 123.543483 
L 97.949235 123.584319 
L 97.696836 123.580561 
L 97.74956 123.943291 
L 98.024224 123.807193 
L 98.483188 123.951089 
L 98.263236 123.805938 
L 98.931681 123.965094 
L 99.067845 123.814535 
L 99.060502 124.601855 
L 99.66986 124.298661 
L 100.090321 124.232473 
L 101.729528 124.744656 
L 101.687659 124.661941 
L 101.800471 125.032396 
L 102.186497 125.223445 
L 102.143731 125.277207 
L 102.836129 124.54839 
L 103.165491 123.454983 
L 103.323966 122.047988 
L 103.710734 121.545559 
L 103.681656 121.440493 
L 103.974306 121.727562 
L 103.856549 121.618514 
L 103.935478 120.995551 
L 103.684086 120.952816 
L 103.939204 121.031879 
L 103.927025 120.96798 
L 103.598482 121.112816 
L 103.693841 120.988899 
L 103.961254 121.202344 
L 103.627986 121.027542 
L 103.915907 121.10271 
L 104.323683 121.002619 
L 104.24851 120.99445 
L 104.497931 121.210752 
L 104.292497 120.912635 
L 104.265 120.825728 
L 104.543811 121.107518 
L 104.275629 120.799164 
L 104.767175 120.878503 
L 104.261206 121.274216 
L 104.524589 120.992071 
L 104.556921 121.382756 
L 104.677005 120.848576 
L 104.626264 120.850252 
L 104.890148 121.005885 
L 104.882455 120.648264 
L 104.844742 120.767448 
L 104.646511 120.923706 
L 104.881416 120.831303 
L 104.899016 121.860809 
L 105.545604 122.406089 
L 106.368055 122.211209 
L 106.804621 122.365854 
L 107.035532 122.128854 
L 106.951782 122.097838 
L 107.365275 122.294621 
L 107.379664 122.468745 
L 107.775701 122.740466 
L 107.71633 122.791483 
L 108.284542 122.791078 
L 108.206428 122.770741 
L 108.58419 122.505268 
L 108.62726 122.817472 
L 108.962197 122.614831 
L 109.501195 122.650311 
L 109.88206 122.378427 
L 109.883353 122.137154 
L 110.276355 121.929484 
L 110.821586 121.825118 
L 110.709402 121.870138 
L 110.724469 121.969056 
L 110.776057 121.902004 
L 111.234025 121.882386 
L 111.175668 121.962121 
L 111.117892 121.761574 
L 111.633809 121.865026 
L 111.528893 121.600523 
L 111.35618 121.598996 
L 111.495831 121.508248 
L 111.694414 121.830993 
L 111.912119 121.801774 
L 111.868415 121.690701 
L 111.908248 121.467657 
L 111.851817 121.569531 
L 112.465367 121.620642 
L 112.553671 121.816143 
L 112.431359 122.711555 
L 112.282731 122.711283 
L 112.777331 123.052664 
L 112.84797 122.898398 
L 112.805975 122.912778 
L 113.064064 122.745413 
L 113.394268 122.858495 
L 113.362318 122.764403 
L 113.364433 124.00064 
L 113.303534 124.595448 
L 113.469589 125.571641 
L 113.873909 125.896205 
L 114.343374 127.987756 
L 114.352658 127.966133 
L 114.658548 127.879371 
L 114.648799 127.922908 
L 115.369859 127.115616 
L 115.828969 127.70684 
L 116.166654 127.329115 
L 116.819006 127.294483 
L 116.91513 127.080777 
L 117.219307 127.582371 
L 117.561415 127.866583 
L 118.282062 128.811145 
L 118.468406 128.787596 
L 119.090469 129.011154 
L 119.726072 128.86857 
L 119.895941 129.043267 
L 119.907606 128.906165 
L 120.329004 128.788537 
L 120.263511 128.757699 
L 120.455918 129.03866 
L 119.857 129.692664 
L 119.898688 129.503652 
L 119.878921 129.722159 
L 120.106743 129.792027 
L 119.865053 129.640006 
L 120.015388 129.75985 
L 120.064893 129.915206 
L 119.907374 129.553748 
L 120.219954 129.798011 
L 120.463688 129.514201 
L 121.48172 130.796147 
L 122.063413 130.926813 
L 122.723811 131.491511 
L 122.522582 131.719306 
L 122.922727 131.752892 
L 123.298315 131.952786 
L 123.262697 132.073046 
L 123.317883 131.969594 
L 123.796466 132.016749 
L 123.202905 133.347543 
L 123.543345 133.669548 
L 123.262335 134.022645 
L 123.757182 133.96433 
L 124.777556 133.625783 
L 125.155792 134.033028 
L 124.795458 134.266211 
L 125.008218 134.229333 
L 125.453999 134.190096 
L 125.438586 134.229278 
L 125.591943 133.932303 
L 125.800236 134.47488 
L 125.799997 134.323756 
L 125.751217 134.424401 
L 126.059065 134.228042 
L 126.475886 133.913309 
L 126.395478 133.970958 
L 126.759668 134.094735 
L 126.40503 133.934551 
L 126.390567 134.006022 
L 126.879183 133.845531 
L 127.035233 133.35319 
L 126.972762 133.339169 
L 127.228371 133.492362 
L 127.316684 133.485589 
L 127.28661 133.668735 
L 127.51118 133.802452 
L 127.794111 133.539082 
L 127.672393 133.727832 
L 127.606861 133.891035 
L 128.113106 133.890218 
L 128.935395 133.347802 
L 129.779988 132.922498 
L 130.136588 133.215619 
L 130.738238 132.993545 
L 130.644027 133.034538 
L 130.741814 133.151423 
L 130.966483 132.984691 
L 131.240524 133.253424 
L 133.007466 133.237662 
L 132.87743 133.184777 
L 133.250154 133.052984 
L 133.176048 133.200722 
L 133.232907 133.094438 
L 133.17826 132.944758 
L 133.179704 133.020184 
L 133.634783 133.031551 
L 133.169097 132.962284 
L 133.453894 133.075149 
L 133.35014 133.752648 
L 133.686115 133.794294 
L 133.684628 133.696569 
L 134.06513 135.309097 
L 134.602649 135.956284 
L 135.234364 136.042609 
L 134.939743 136.218997 
L 134.951081 136.127683 
L 135.506569 136.443193 
L 136.171043 137.170354 
L 138.03799 137.632687 
L 138.728427 138.286119 
L 139.235558 138.351625 
L 139.744151 138.892606 
L 140.132149 138.531308 
L 140.549396 138.706282 
L 141.572768 138.83079 
L 141.771794 138.767107 
L 141.788297 138.645136 
L 141.990731 138.97251 
L 141.579689 138.709927 
L 142.120112 138.879818 
L 142.086481 139.011956 
L 142.561994 139.024812 
L 142.307256 138.817648 
L 142.607097 139.089558 
L 142.589897 138.964593 
L 142.558023 138.852125 
L 142.576468 138.883665 
L 142.714404 138.731205 
L 142.939518 138.753828 
L 143.005875 138.597802 
L 143.673049 138.563554 
L 144.094979 138.678522 
L 144.281501 138.585172 
L 144.577912 138.133113 
L 144.784752 138.390994 
L 144.95602 138.368716 
L 145.184251 138.04017 
L 145.199695 138.057322 
L 145.786737 138.0053 
L 145.707382 137.926192 
L 145.784846 137.802987 
L 145.516672 137.602277 
L 145.739239 137.764457 
L 146.281525 137.430802 
L 146.226951 137.215038 
L 146.517385 137.152412 
L 146.449849 137.15476 
L 147.181004 136.58707 
L 146.971889 136.45938 
L 146.879156 136.229709 
L 146.751149 136.27174 
L 147.026397 135.711099 
L 147.291268 135.924827 
L 147.730648 134.933651 
L 147.658634 134.946318 
L 147.456179 135.135732 
L 147.761249 134.831952 
L 147.525051 134.875655 
L 147.615707 134.719653 
L 148.003751 135.052065 
L 147.978185 135.027459 
L 147.599308 134.908504 
L 147.969789 135.068048 
L 147.939365 134.919808 
L 148.247676 134.645837 
L 148.3055 134.684799 
L 148.334849 134.585154 
L 148.274472 134.46099 
L 148.258547 134.475361 
L 148.63984 134.421554 
L 148.552614 134.448455 
L 148.799175 134.043358 
L 148.55924 134.196698 
L 148.829312 133.965183 
L 148.815164 133.988236 
L 148.701143 133.808444 
L 148.788398 133.813175 
L 149.100332 133.632019 
L 149.060968 133.759499 
L 149.367735 133.947805 
L 149.645497 134.354483 
L 150.115574 134.6126 
L 150.069345 134.507893 
L 150.603006 134.516564 
L 150.331818 134.729715 
L 150.605553 134.533417 
L 150.599567 134.200577 
L 151.286393 133.928311 
L 151.449453 134.481225 
L 152.301123 134.708919 
L 152.172829 134.648728 
L 152.306138 134.649968 
L 152.593844 133.909532 
L 152.893306 134.155842 
L 153.212457 133.962382 
L 153.161044 133.81044 
L 153.138383 134.154323 
L 153.177047 133.833662 
L 154.687094 135.636674 
L 154.74306 135.609692 
L 155.295835 136.287648 
L 155.944705 135.419733 
L 155.917752 135.159717 
L 156.260765 134.872765 
L 156.212263 134.935278 
L 156.21741 135.055114 
L 156.229209 134.973697 
L 156.524256 134.687593 
L 156.561957 134.428342 
L 156.902612 134.145312 
L 156.936299 134.304775 
L 157.145966 135.346693 
L 157.536879 136.183086 
L 157.895806 136.359735 
L 157.931903 136.686205 
L 158.144588 136.926825 
L 158.127082 137.16452 
L 158.18089 137.006406 
L 158.389263 137.113725 
L 158.812605 137.617231 
L 158.821512 137.430299 
L 159.050795 137.659469 
L 159.054442 137.886318 
L 159.604979 138.239018 
L 159.990437 138.254009 
L 160.475589 139.178896 
L 160.891126 138.662653 
L 160.841139 138.782473 
L 161.122874 138.783543 
L 161.354707 138.890011 
L 161.713004 138.371151 
L 161.730493 138.4265 
L 162.114859 138.016264 
L 162.63818 138.733879 
L 163.049202 138.518607 
L 162.926276 138.510371 
L 163.238237 138.200291 
L 162.962424 138.40907 
L 163.62486 138.496655 
L 163.479858 138.581846 
L 164.002193 138.792249 
L 164.28731 138.615556 
L 164.291993 138.692085 
L 164.251688 139.035199 
L 164.59377 138.863973 
L 164.489201 138.754393 
L 164.629583 138.760347 
L 164.922026 138.764769 
L 165.085702 138.265377 
L 165.40836 138.194232 
L 166.139831 138.472355 
L 166.464534 138.873626 
L 167.186084 138.724632 
L 167.356826 138.526487 
L 168.808142 138.968326 
L 168.741481 139.029134 
L 169.053908 139.242997 
L 169.089569 139.023912 
L 169.141948 139.258472 
L 169.611167 139.289611 
L 170.216641 140.079512 
L 171.111977 140.85099 
L 171.145881 140.90753 
L 171.318966 140.661378 
L 172.199205 140.374394 
L 172.900333 140.383169 
L 173.015359 140.167546 
L 173.432545 140.261229 
L 173.875504 139.989511 
L 173.665812 139.952577 
L 174.041748 139.750954 
L 173.817186 139.858152 
L 174.246739 139.943999 
L 174.216058 139.805136 
L 174.084303 139.805648 
L 174.291363 139.865866 
L 174.235419 139.739298 
L 174.547766 139.587902 
L 174.42847 139.634654 
L 174.852657 139.823863 
L 174.663261 139.807644 
L 175.059771 140.065177 
L 175.072481 139.987599 
L 175.300961 139.837127 
L 175.31569 139.756175 
L 175.359745 139.827705 
L 175.642466 139.661378 
L 175.665885 139.687827 
L 175.604693 139.592527 
L 175.919939 139.378329 
L 176.312859 139.623685 
L 176.602373 140.74363 
L 176.854914 140.698351 
L 177.662499 141.364619 
L 177.782178 141.170657 
L 178.037901 141.588538 
L 177.74702 141.404604 
L 178.055688 141.731844 
L 178.033438 141.638457 
L 178.658411 141.817678 
L 178.555686 142.005856 
L 178.790658 142.180608 
L 178.996952 142.099627 
L 179.255269 142.30422 
L 179.174826 142.367733 
L 179.82615 142.349391 
L 180.011261 142.857886 
L 179.99531 142.858255 
L 179.786058 142.913129 
L 180.209901 142.876237 
L 180.248999 143.212679 
L 180.419668 143.088022 
L 180.104209 143.433298 
L 180.401075 143.709014 
L 180.412836 144.265741 
L 181.188853 146.659728 
L 181.207158 147.028812 
L 181.478177 147.188544 
L 181.364906 147.119044 
L 182.088435 146.832581 
L 182.102223 146.671133 
L 183.193626 146.16088 
L 183.793506 145.539127 
L 183.936729 145.812115 
L 184.857998 145.298187 
L 185.045323 145.35558 
L 184.950476 145.009939 
L 185.740704 145.55919 
L 185.954602 145.349149 
L 185.921099 145.332778 
L 185.855696 145.214753 
L 186.253908 144.91504 
L 186.510353 145.273329 
L 186.875848 144.894557 
L 187.216768 145.190833 
L 187.616231 144.90722 
L 187.580708 144.969851 
L 187.547042 144.775038 
L 187.829621 145.003089 
L 187.922543 144.829629 
L 188.057996 144.830663 
L 188.228142 145.757358 
L 189.215845 146.726678 
L 189.438113 146.925459 
L 189.909841 147.089272 
L 189.997127 147.082945 
L 189.931061 147.094193 
L 190.291044 147.368631 
L 190.850639 147.438842 
L 190.784993 146.95151 
L 191.320489 146.158759 
L 191.167368 146.132804 
L 192.115997 146.582811 
L 192.327898 146.536655 
L 192.872787 145.805332 
L 193.500518 145.276709 
L 193.821272 145.637522 
L 194.080636 145.776204 
L 194.08797 145.622939 
L 194.330842 145.585314 
L 194.818205 146.890453 
L 195.273773 147.192546 
L 195.913625 147.223134 
L 196.521493 147.740013 
L 196.919899 147.855776 
L 197.133122 148.343658 
L 197.572699 148.02946 
L 197.507993 148.083058 
L 197.805754 148.257489 
L 198.955252 148.539859 
L 198.930466 148.451289 
L 199.333793 148.852329 
L 199.275198 148.876902 
L 199.518614 149.076103 
L 199.548105 148.967617 
L 199.943665 148.949016 
L 199.824577 149.047682 
L 200.132216 149.31641 
L 199.791052 149.002975 
L 200.010465 149.18949 
L 200.465711 149.009357 
L 200.985597 148.817172 
L 200.996607 148.831697 
L 201.224264 148.749113 
L 201.179522 148.709354 
L 201.474288 148.946381 
L 201.426618 148.872466 
L 201.394262 149.090403 
L 201.995008 149.224798 
L 202.070194 149.07946 
L 202.131066 148.388788 
L 202.365008 148.417996 
L 202.382806 147.976829 
L 202.51382 147.947512 
L 202.884321 148.350152 
L 202.734155 148.006115 
L 203.154094 148.177211 
L 203.353091 148.6276 
L 203.728867 148.55951 
L 204.134407 149.338977 
L 204.237882 149.931854 
L 204.678846 150.101444 
L 204.477965 150.138558 
L 204.851638 150.018847 
L 204.563655 150.100518 
L 204.892972 150.402957 
L 205.03656 150.18881 
L 204.781037 150.367494 
L 204.912218 150.16392 
L 205.442874 150.279476 
L 205.807744 150.072616 
L 205.740955 150.222206 
L 206.097652 150.20473 
L 206.173383 150.412629 
L 206.318272 150.445036 
L 206.713907 150.8163 
L 207.397805 151.083149 
L 207.696409 151.386347 
L 207.898083 151.314632 
L 207.826325 151.226888 
L 207.822041 151.221731 
L 207.936397 151.284177 
L 208.114636 151.216256 
L 207.884916 151.13628 
L 208.443218 151.299998 
L 208.386185 151.118341 
L 208.558091 151.070747 
L 208.540639 151.097818 
L 208.52336 151.199818 
L 208.36638 151.116001 
L 208.477755 151.001361 
L 208.651537 151.084807 
L 208.362226 151.105864 
L 208.466236 150.995902 
L 208.698293 150.883193 
L 208.896287 151.192194 
L 208.874123 151.162563 
L 209.10769 152.10275 
L 209.227225 152.173256 
L 209.456753 152.111908 
L 209.597696 152.859984 
L 209.825459 153.329442 
L 210.017217 153.279181 
L 210.001291 153.703809 
L 210.267957 154.014185 
L 210.227329 153.635452 
L 210.3499 154.169193 
L 210.663966 154.424983 
L 210.913898 154.602251 
L 210.820748 154.784779 
L 210.930321 154.716809 
L 211.302821 154.531044 
L 211.407317 154.023203 
L 211.698201 153.944848 
L 211.879211 154.13233 
L 212.060085 153.856797 
L 210.69499 154.660131 
L 211.220569 154.777556 
L 210.958396 154.534221 
L 211.200274 154.702856 
L 211.975273 154.764264 
L 211.84205 154.715492 
L 212.268665 154.665496 
L 212.393267 155.244417 
L 213.020533 155.729275 
L 212.534916 155.508456 
L 212.824061 155.898097 
L 213.26683 155.400239 
L 213.253346 155.233429 
L 213.636455 155.275927 
L 213.546021 155.284347 
L 213.669078 155.537531 
L 213.83548 155.364498 
L 214.260637 155.58197 
L 214.468012 155.309695 
L 214.4515 155.415074 
L 214.808454 155.224498 
L 215.170484 155.324256 
L 215.306682 155.169534 
L 215.073773 155.271228 
L 215.025446 155.26224 
L 215.379126 155.2302 
L 215.417036 155.192536 
L 215.189881 155.153672 
L 215.818525 155.19624 
L 216.02233 155.155055 
L 216.00354 155.159984 
L 216.010664 155.04135 
L 216.407317 155.233355 
L 216.189916 155.239475 
L 216.548567 155.127045 
L 216.966198 155.317112 
L 218.020856 154.841401 
L 217.954717 154.798356 
L 218.196498 155.053884 
L 218.647527 154.906166 
L 218.604173 154.67982 
L 218.517211 154.753383 
L 219.148023 154.988478 
L 219.176494 154.818614 
L 219.044399 154.975533 
L 219.309194 154.849732 
L 219.253394 154.7255 
L 219.226951 154.923294 
L 219.243568 154.85303 
L 219.201315 154.935596 
L 219.400678 154.846982 
L 219.497987 155.212844 
L 219.877299 155.493225 
L 219.798861 155.484316 
L 220.313665 155.601681 
L 220.587178 155.387504 
L 220.362756 155.650134 
L 220.614231 155.895295 
L 222.208738 156.614775 
L 222.185903 156.775822 
L 222.425262 156.518345 
L 223.052176 156.312855 
L 223.027809 156.40935 
L 222.975141 156.469359 
L 223.259377 156.298222 
L 223.397821 156.584664 
L 223.359727 156.495149 
L 223.543517 156.372324 
L 223.772707 156.573803 
L 223.645847 156.32576 
L 224.000512 156.295813 
L 223.989472 156.887874 
L 224.672823 156.958174 
L 224.925261 157.190724 
L 225.006205 157.065572 
L 225.246659 157.441798 
L 225.162213 157.413545 
L 225.600056 157.51973 
L 225.353875 157.67198 
L 225.824811 157.690494 
L 225.870506 158.252839 
L 226.196178 158.512313 
L 226.146107 159.126306 
L 226.227739 158.959727 
L 226.414952 158.973379 
L 226.763235 159.280568 
L 226.449534 159.162767 
L 227.038705 159.078876 
L 227.322021 159.150393 
L 227.765175 158.802309 
L 228.005483 158.99662 
L 228.366782 158.880386 
L 228.635068 158.889349 
L 228.633462 158.86475 
L 228.63067 158.707495 
L 228.822771 158.58618 
L 228.821449 158.455105 
L 229.238942 158.572424 
L 229.240699 158.747769 
L 229.415523 158.518757 
L 229.969462 159.309842 
L 230.829873 159.597109 
L 231.804001 160.432944 
L 232.452655 160.328604 
L 232.825141 160.629565 
L 232.786799 160.515187 
L 233.302626 160.425936 
L 233.084133 160.245921 
L 233.232997 160.520683 
L 233.482831 160.491429 
L 233.433308 160.415496 
L 233.922493 160.284013 
L 233.437012 160.229794 
L 233.724518 160.286936 
L 234.165323 160.155446 
L 234.303582 160.584222 
L 234.662627 160.453642 
L 234.625426 160.450934 
L 234.819262 160.72758 
L 234.793045 160.589919 
L 234.950602 160.607392 
L 234.831132 160.685275 
L 234.836453 160.80643 
L 235.152483 160.934798 
L 235.111849 160.63355 
L 235.133415 160.951408 
L 235.112415 160.634847 
L 235.443114 160.90258 
L 236.195581 160.665898 
L 236.481646 160.92988 
L 236.690897 160.709982 
L 237.078373 160.897255 
L 237.323918 160.651067 
L 237.286731 160.423052 
L 237.308357 159.993106 
L 237.000233 160.140348 
L 237.255448 160.00512 
L 237.754881 160.179515 
L 237.88036 160.028925 
L 238.667006 159.932274 
L 238.952249 159.787717 
L 239.233814 159.894731 
L 239.571065 159.480725 
L 239.97456 159.552734 
L 239.925016 159.408544 
L 240.136501 158.973651 
L 240.48966 157.107772 
L 240.858896 156.774796 
L 239.857502 154.044455 
L 240.521276 154.088503 
L 241.108205 154.077815 
L 241.00869 154.320623 
L 241.450335 153.908147 
L 241.960782 153.628823 
L 242.201297 152.786423 
L 242.731348 152.477963 
L 242.998545 152.747813 
L 243.019495 152.689259 
L 243.620333 152.691089 
L 243.544024 152.791982 
L 243.557753 152.898727 
L 243.500307 152.685735 
L 243.477863 152.725121 
L 244.355741 152.712735 
L 244.562755 152.97461 
L 244.77321 152.837848 
L 245.192796 152.849718 
L 245.057536 152.925867 
L 245.168538 153.173252 
L 245.144725 153.104117 
L 245.38925 153.368634 
L 245.397186 153.351024 
L 245.550825 153.005867 
L 245.92599 153.613 
L 246.38279 153.086893 
L 246.656448 153.373971 
L 246.753068 153.142085 
L 246.976879 152.948242 
L 247.227602 153.290602 
L 247.194898 153.285384 
L 247.45731 153.095669 
L 247.939395 152.653724 
L 248.379572 153.000112 
L 248.495336 152.772718 
L 248.896854 152.422974 
L 249.125197 151.985395 
L 249.763094 151.885508 
L 249.689543 151.720902 
L 250.07947 151.587604 
L 250.074629 151.744944 
L 249.926797 151.606882 
L 249.983149 151.566721 
L 250.236755 151.745547 
L 249.974104 151.453372 
L 250.190197 151.658283 
L 250.587699 151.46575 
L 250.48111 151.33437 
L 250.653258 152.056363 
L 251.171517 152.355481 
L 251.481114 152.883583 
L 252.105928 152.91661 
L 252.645831 153.248391 
L 252.66724 153.369217 
L 252.590456 153.211768 
L 253.019991 152.861533 
L 253.298454 152.688408 
L 253.035845 152.884875 
L 252.929494 155.923881 
L 252.64819 157.104612 
L 253.064143 157.506363 
L 253.219578 158.041939 
L 253.067461 158.325692 
L 253.091128 158.436218 
L 253.26182 158.431527 
L 253.232069 158.776409 
L 253.22965 158.643175 
L 253.684351 158.600286 
L 253.585843 158.479953 
L 253.919498 158.706507 
L 253.894521 159.051873 
L 254.151445 159.20624 
L 253.664378 155.785193 
L 253.896263 156.06432 
L 253.668769 155.704542 
L 253.952294 155.896369 
L 254.145445 155.78015 
L 253.562111 156.053863 
L 253.611315 155.823332 
L 253.939831 156.36692 
L 253.848176 156.377812 
L 253.631779 157.118969 
L 253.914693 157.304868 
L 253.887467 157.34293 
L 253.777348 157.677469 
L 253.807737 158.269897 
L 254.019261 158.763367 
L 254.241546 157.936675 
L 255.283285 156.08127 
L 256.061913 155.722295 
L 256.652207 154.93357 
L 256.741667 155.085586 
L 257.18033 155.036763 
L 257.162218 155.119457 
L 257.1447 155.288196 
L 257.674955 155.561364 
L 258.263645 154.81043 
L 258.460126 155.023309 
L 258.380181 155.13263 
L 256.68118 158.940821 
L 256.903127 159.126416 
L 256.559073 159.902695 
L 256.70524 159.999569 
L 256.92875 159.695173 
L 257.209493 160.193883 
L 257.209808 160.136874 
L 257.833605 159.367063 
L 257.478444 160.40184 
L 257.438064 161.102479 
L 257.492512 160.359643 
L 257.869216 159.581672 
L 258.130348 159.899426 
L 258.142964 159.774431 
L 258.789337 160.364902 
L 259.813033 159.898135 
L 260.304513 159.897953 
L 260.615735 158.911317 
L 260.929048 159.3414 
L 261.260215 159.518129 
L 261.24056 159.645194 
L 261.479227 159.136049 
L 261.223797 159.613795 
L 261.655858 159.244212 
L 261.771013 160.082898 
L 261.936091 160.271286 
L 262.09793 159.987555 
L 262.529108 159.570954 
L 263.365018 159.901541 
L 263.356796 160.102103 
L 263.840141 160.02609 
L 263.561099 159.864782 
L 264.176367 159.600314 
L 264.639071 159.18401 
L 265.550244 159.556896 
L 265.861578 159.884897 
L 266.135608 159.551429 
L 266.151584 159.577248 
L 266.448207 159.908928 
L 266.538104 159.800425 
L 266.669822 159.854541 
L 266.757796 159.57916 
L 266.741039 159.670774 
L 267.045384 159.115804 
L 267.226207 159.501891 
L 267.362654 159.485596 
L 267.695783 159.866731 
L 269.084599 160.179049 
L 269.510963 160.411817 
L 270.14287 160.518151 
L 270.05911 160.614631 
L 270.605953 160.670278 
L 270.364697 160.793914 
L 270.607214 160.579776 
L 270.563002 160.65151 
L 270.615482 160.735769 
L 270.541844 160.882453 
L 270.540013 160.77429 
L 270.90756 160.523936 
L 271.783022 159.211859 
L 272.315457 158.634535 
L 272.744793 158.370857 
L 273.261081 158.322136 
L 273.350038 158.197963 
L 273.561502 158.590306 
L 273.28817 158.159294 
L 273.753635 158.413147 
L 273.863593 158.300372 
L 273.550734 158.41365 
L 274.088121 158.31493 
L 273.584119 158.803102 
L 273.602595 158.766707 
L 274.277095 158.957331 
L 274.323257 158.901629 
L 274.273461 158.92395 
L 275.088843 159.530741 
L 275.479702 159.442178 
L 275.544204 160.069523 
L 275.539571 160.036959 
L 275.71682 160.211808 
L 275.749248 160.249313 
L 275.692339 160.443035 
L 276.064675 160.763374 
L 275.831842 160.902359 
L 275.938447 160.790229 
L 275.853027 160.948926 
L 276.442768 160.766876 
L 276.420282 160.888607 
L 276.349723 160.949382 
L 276.399137 161.702164 
L 275.73519 163.749542 
L 276.027436 163.611586 
L 275.844139 163.762146 
L 275.896004 163.979314 
L 276.228337 164.189797 
L 276.719529 163.551028 
L 277.325527 163.411295 
L 277.571407 162.951213 
L 278.207107 162.977013 
L 278.493407 163.240576 
L 279.124183 163.262734 
L 279.43476 162.858871 
L 279.772335 162.728733 
L 280.36388 162.718458 
L 280.26744 162.752298 
L 280.589319 162.965326 
L 281.226518 163.143921 
L 281.290341 163.446605 
L 282.244582 163.370032 
L 283.208846 163.564142 
L 283.111205 163.433142 
L 283.421275 163.341734 
L 284.345442 164.084619 
L 284.69146 164.067124 
L 284.990313 164.21683 
L 284.869486 164.298216 
L 285.200127 164.102198 
L 285.411965 164.227541 
L 285.306197 164.310296 
L 285.804881 164.454935 
L 285.713471 164.494799 
L 286.036034 164.702857 
L 286.298142 164.613152 
L 286.571876 164.839329 
L 286.442696 165.107215 
L 287.195509 166.000643 
L 287.173167 166.681815 
L 287.57247 166.243452 
L 287.959149 166.946032 
L 288.150939 166.23492 
L 287.836476 166.391322 
L 288.266363 166.167163 
L 288.840652 166.082025 
L 289.207164 165.678524 
L 290.004686 165.71751 
L 291.892816 166.718169 
L 291.793287 166.770595 
L 292.108376 165.377348 
L 292.489941 164.932999 
L 292.634535 165.307687 
L 292.973043 165.699535 
L 293.004813 166.076203 
L 293.611824 166.161427 
L 293.52458 165.587907 
L 293.99483 165.708714 
L 294.182987 165.617251 
L 294.829027 166.078579 
L 295.079245 165.8086 
L 295.160087 165.931216 
L 295.476145 165.568631 
L 296.069805 166.065416 
L 296.437683 166.492034 
L 297.301198 167.502563 
L 297.316799 167.964896 
L 297.541574 167.891338 
L 297.232054 168.025529 
L 297.710119 168.274665 
L 297.965116 168.133106 
L 297.789422 168.155553 
L 298.184839 168.30191 
L 298.255196 168.549371 
L 298.16645 168.558747 
L 298.457825 168.854875 
L 298.92521 169.015243 
L 299.180216 168.834797 
L 299.55036 168.999128 
L 299.805656 168.690204 
L 300.172624 168.922324 
L 300.434123 168.553437 
L 301.394569 168.752412 
L 301.495753 168.821427 
L 301.238572 168.88386 
L 301.762761 168.967849 
L 301.548314 168.672041 
L 301.954469 168.446993 
L 302.257223 167.420098 
L 302.717525 167.246494 
L 303.22807 166.260675 
L 303.460545 166.463495 
L 303.416173 166.280097 
L 303.896866 166.058121 
L 303.891692 165.933452 
L 304.302194 165.982707 
L 304.526955 167.053597 
L 304.987171 166.914021 
L 304.755973 167.22045 
L 305.077732 166.983736 
L 305.562335 167.570395 
L 305.743383 167.020574 
L 306.014719 167.418468 
L 306.211239 167.462959 
L 306.191741 167.750261 
L 305.941291 167.782487 
L 306.356219 168.06141 
L 306.303981 168.378972 
L 306.613103 169.171359 
L 306.641852 169.863038 
L 306.488572 169.984103 
L 306.639867 170.528672 
L 307.589999 171.304289 
L 307.628321 171.752501 
L 307.87456 171.487076 
L 307.845206 171.522847 
L 307.921247 171.995686 
L 307.99053 171.836165 
L 308.484166 171.633124 
L 308.706982 171.919504 
L 308.816489 171.993452 
L 308.744791 172.214668 
L 309.039202 172.292809 
L 308.656416 172.179748 
L 308.656529 172.211008 
L 309.326757 172.019479 
L 309.319912 172.022926 
L 309.354482 172.148738 
L 309.312399 171.907517 
L 309.636165 171.834991 
L 309.662496 171.630701 
L 310.308034 171.047822 
L 310.337106 170.348575 
L 310.894217 170.388261 
L 310.869443 170.222492 
L 311.308754 169.991602 
L 312.194106 169.75597 
L 312.185425 169.675488 
L 312.853281 169.733383 
L 312.776179 169.628673 
L 313.204361 169.902453 
L 313.410038 169.74949 
L 313.341717 169.741797 
L 313.392539 169.570829 
L 313.341115 169.883592 
L 313.786361 169.87493 
L 313.60641 170.041982 
L 313.733741 170.262628 
L 313.986906 170.347209 
L 314.141611 170.258573 
L 314.353333 170.808529 
L 314.968347 171.238819 
L 315.221634 171.522669 
L 315.143299 171.64624 
L 315.493987 171.58548 
L 315.90914 171.868616 
L 316.224101 172.482704 
L 316.204532 172.47568 
L 317.145567 172.367027 
L 317.436498 172.045084 
L 317.43222 171.118273 
L 318.029767 170.708586 
L 317.990589 170.548581 
L 318.082199 170.310791 
L 318.270812 170.366245 
L 318.244522 170.209331 
L 318.558831 170.607865 
L 318.56466 170.571952 
L 318.763173 170.608965 
L 318.952049 170.924681 
L 319.366128 171.060759 
L 319.369607 171.289709 
L 319.272043 171.204272 
L 319.760428 171.370733 
L 319.895892 171.355341 
L 320.150044 171.595447 
L 319.898187 171.258705 
L 320.154591 171.250991 
L 320.561858 170.938123 
L 320.916922 170.842123 
L 320.76866 170.946364 
L 320.820251 170.77846 
L 320.78074 170.888031 
L 321.085708 171.117943 
L 321.37142 170.902388 
L 321.31853 171.025842 
L 322.135425 171.644947 
L 322.118228 171.579736 
L 322.329376 171.929185 
L 322.00559 171.606743 
L 322.214495 171.887089 
L 322.455781 171.84408 
L 322.725101 172.091767 
L 323.248008 171.584466 
L 323.127133 171.719073 
L 323.713881 171.600025 
L 324.204778 171.358905 
L 324.151299 171.216465 
L 324.290475 170.507803 
L 324.737625 169.645899 
L 324.931192 169.387206 
L 324.943827 168.977499 
L 325.522738 168.427049 
L 325.938906 167.854744 
L 326.356718 167.86705 
L 326.74267 167.324454 
L 328.2239 166.705611 
L 328.468372 166.638174 
L 328.22132 166.548918 
L 328.55577 166.790367 
L 328.496588 166.845602 
L 328.898496 166.498671 
L 329.456662 166.528479 
L 329.425379 166.547116 
L 329.4194 166.653279 
L 330.436798 166.867082 
L 330.285934 167.110252 
L 330.428912 167.217966 
L 330.475279 167.029718 
L 331.192832 167.526035 
L 331.103627 167.547643 
L 331.190334 167.366957 
L 331.175794 167.486747 
L 331.587543 167.948671 
L 331.949885 168.16487 
L 333.412793 168.442644 
L 333.528013 168.658036 
L 333.945237 168.572478 
L 333.662742 168.690722 
L 333.701038 168.849639 
L 333.693374 168.735002 
L 334.149051 168.540491 
L 333.998608 168.562173 
L 334.005653 168.441233 
L 334.283091 168.766396 
L 335.348537 168.496188 
L 335.300618 168.293297 
L 335.642208 168.498098 
L 335.612395 168.538065 
L 335.963324 168.363283 
L 335.935778 168.34288 
L 336.074068 167.408744 
L 336.328097 167.100212 
L 336.444954 166.606785 
L 337.28126 166.018187 
L 337.217602 166.091666 
L 337.420347 165.823915 
L 337.73925 165.903141 
L 337.381832 165.734667 
L 337.623221 165.952173 
L 337.704615 165.744194 
L 337.814393 165.866381 
L 338.099316 165.345085 
L 338.065261 165.409618 
L 338.531623 165.320241 
L 339.305736 164.794229 
L 339.212573 164.860884 
L 339.642404 164.948027 
L 339.50467 165.132108 
L 339.590228 164.713324 
L 339.919836 164.547069 
L 339.85008 164.249162 
L 340.303983 164.000025 
L 340.163728 163.913983 
L 340.267975 163.9467 
L 340.261399 163.834682 
L 340.286234 163.835847 
L 340.256378 163.989943 
L 340.594569 164.454774 
L 340.948478 164.636529 
L 341.263522 165.044953 
L 343.650194 165.793855 
L 344.260004 165.803893 
L 344.547668 166.032278 
L 344.50073 166.03704 
L 344.757594 166.023193 
L 344.879985 165.605925 
L 345.024165 165.813312 
L 345.213989 165.803289 
L 344.955341 165.689472 
L 345.527665 165.553068 
L 345.877981 165.178559 
L 346.070445 165.516405 
L 345.81176 165.209883 
L 346.101858 165.30958 
L 346.033194 165.257406 
L 346.511882 165.099528 
L 346.372083 165.160322 
L 346.096258 164.952198 
L 346.278236 164.898739 
L 346.173608 164.831586 
L 346.503889 164.227126 
L 346.498526 164.27079 
L 346.703414 164.498537 
L 346.417652 164.423537 
L 346.628158 164.419162 
L 346.988933 164.176447 
L 347.115893 164.342195 
L 347.555623 164.337295 
L 349.013597 165.207504 
L 349.537588 165.494324 
L 349.44881 165.602017 
L 349.977438 165.756546 
L 349.884851 165.815159 
L 349.977378 165.73797 
L 350.128681 165.463 
L 350.081928 165.454422 
L 350.164646 165.724119 
L 350.334529 165.845624 
L 352.829246 164.515778 
L 352.805384 164.500217 
L 352.939971 164.597452 
L 353.325615 165.163999 
L 353.900971 164.980094 
L 354.759389 165.322224 
L 355.847086 165.465732 
L 355.755848 165.419297 
L 356.187876 165.190893 
L 356.662276 164.793426 
L 357.637741 164.623689 
L 357.840617 164.30357 
L 357.748853 163.981767 
L 358.085626 163.908775 
L 358.279028 163.543399 
L 358.044717 163.394073 
L 358.191655 163.407226 
L 358.472623 163.200625 
L 358.634259 163.359053 
L 358.420492 162.93168 
L 358.725927 162.796912 
L 358.657769 162.754362 
L 359.550296 162.853697 
L 359.525892 162.54602 
L 359.19019 162.700207 
L 359.552481 162.377751 
L 359.433438 162.4809 
L 359.863198 162.433452 
L 359.806238 162.182844 
L 359.787674 162.197258 
L 359.915194 162.105819 
L 359.837505 161.624015 
L 359.641808 162.031865 
L 359.580857 161.501749 
L 359.659703 161.507344 
L 359.379574 161.445607 
L 359.765721 161.23385 
L 359.742474 161.314375 
L 359.389695 161.233363 
L 359.791312 161.305055 
L 359.414825 161.163205 
L 359.084125 161.397725 
L 359.539189 161.669465 
L 359.539189 161.669465 
" style="fill:none;stroke:#1f77b4;stroke-linecap:square;stroke-width:1.5;"/>
   </g>
   <g id="line2d_6">
    <path clip-path="url(#p1be0ab9775)" d="M 80.309512 121.025359 
L 81.796272 119.995895 
L 82.473758 120.085116 
L 84.454112 122.37846 
L 85.062959 122.594026 
L 85.700303 122.630686 
L 86.501669 122.590545 
L 87.106268 122.572741 
L 88.485318 122.272773 
L 89.482433 122.359852 
L 90.735236 122.947014 
L 91.642732 123.40356 
L 92.256891 123.40614 
L 93.410288 122.890129 
L 93.559475 122.587624 
L 93.783704 122.134369 
L 94.066038 122.137998 
L 94.419863 122.418743 
L 94.822257 123.141072 
L 95.398267 123.45455 
L 95.909315 123.634579 
L 97.657073 123.547564 
L 98.760854 123.969507 
L 99.31958 124.099919 
L 100.509351 124.285137 
L 101.944311 124.474409 
L 102.367533 124.711035 
L 102.60076 124.040142 
L 103.085101 122.254112 
L 103.345826 121.911273 
L 103.535756 121.719057 
L 103.742501 121.121418 
L 103.765497 121.134464 
L 103.982887 121.197012 
L 104.478848 121.089786 
L 104.883061 121.231464 
L 105.186382 121.21813 
L 105.455939 121.615537 
L 105.576373 121.931942 
L 105.764778 122.100682 
L 106.015462 122.174754 
L 107.044414 122.149739 
L 107.109135 122.393414 
L 107.39523 122.469398 
L 108.082911 122.600465 
L 108.624212 122.671112 
L 109.179782 122.513325 
L 110.687589 121.914918 
L 111.122129 122.038823 
L 111.511172 122.109955 
L 111.926195 122.08422 
L 112.526004 122.324592 
L 112.969035 123.246066 
L 113.338503 123.508875 
L 113.535628 124.299091 
L 114.009023 126.350863 
L 114.382631 127.082586 
L 114.6165 127.211125 
L 115.172571 127.147888 
L 115.824416 127.075236 
L 116.544121 127.233492 
L 117.280291 127.653681 
L 118.679041 128.718693 
L 119.960336 129.035459 
L 120.232258 129.666077 
L 120.155026 129.817716 
L 120.233601 129.861283 
L 121.976671 130.862995 
L 122.675908 131.353085 
L 123.074709 131.744479 
L 123.653516 132.743854 
L 123.962791 133.39683 
L 124.784883 133.758599 
L 125.181353 133.886129 
L 125.799836 134.222046 
L 126.411592 134.020546 
L 126.798038 133.90163 
L 127.511771 133.67913 
L 128.198421 133.489871 
L 128.420724 133.359339 
L 129.737547 133.135897 
L 130.832632 133.134698 
L 132.923269 133.321291 
L 133.541585 133.302838 
L 133.785002 133.707241 
L 133.928169 133.765716 
L 134.492592 135.406721 
L 136.217145 136.851937 
L 138.008298 137.606935 
L 140.112602 138.287066 
L 142.397101 138.812648 
L 143.445207 138.496954 
L 144.941761 138.111854 
L 145.831899 137.690962 
L 146.418483 137.111542 
L 146.897325 136.400549 
L 147.672452 135.240918 
L 148.014325 134.974816 
L 148.468156 134.865229 
L 149.086393 134.324282 
L 149.352947 134.053559 
L 149.682443 134.114214 
L 149.915691 134.319757 
L 150.203788 134.640149 
L 150.603765 134.575804 
L 151.523221 134.02226 
L 152.738464 134.266361 
L 152.950347 134.180084 
L 153.14419 134.237644 
L 153.122216 134.108358 
L 153.118844 134.086283 
L 153.1735 134.127973 
L 154.787508 135.646378 
L 155.436568 136.116605 
L 155.75072 135.566797 
L 156.067334 135.183056 
L 157.074868 134.803372 
L 157.337879 135.333136 
L 157.960449 136.702903 
L 158.687232 137.408966 
L 160.419313 138.697071 
L 163.136973 138.318308 
L 163.675156 138.436061 
L 164.129205 138.787558 
L 164.372392 138.813654 
L 165.818627 138.369378 
L 166.151612 138.585302 
L 167.692364 139.024034 
L 168.813309 139.533303 
L 170.316746 140.222827 
L 171.09618 140.457216 
L 171.789144 140.467456 
L 173.491416 139.965114 
L 174.467255 139.943092 
L 174.985088 139.959573 
L 176.392645 139.976126 
L 176.704302 139.94755 
L 176.981434 140.34371 
L 177.323799 141.03552 
L 179.180391 142.284504 
L 179.769188 142.47891 
L 180.408871 143.140559 
L 180.612595 143.501239 
L 181.474655 146.170934 
L 181.770991 146.49158 
L 182.028422 146.491437 
L 182.77206 146.362119 
L 183.472286 146.241752 
L 184.442752 145.773426 
L 185.114207 145.512684 
L 185.904172 145.386674 
L 186.648485 144.862561 
L 187.032011 145.01563 
L 187.500138 145.177084 
L 188.357624 145.399323 
L 188.935603 146.177282 
L 189.463315 146.777294 
L 190.162472 147.067729 
L 190.549973 147.123589 
L 191.13332 146.917555 
L 191.713051 146.604599 
L 193.108647 146.092616 
L 193.600701 146.080779 
L 194.104119 146.224532 
L 194.785188 146.706208 
L 195.436709 147.134087 
L 198.348372 148.5562 
L 199.491034 148.797113 
L 200.14513 148.992179 
L 200.493269 148.994503 
L 201.060639 148.896554 
L 201.962491 148.90211 
L 202.362975 148.551121 
L 202.975251 148.479147 
L 203.263031 148.463481 
L 203.535767 148.675044 
L 204.597038 150.037149 
L 205.439667 150.328155 
L 206.328507 150.574371 
L 208.049886 151.201772 
L 208.387221 151.378955 
L 209.213642 152.086892 
L 210.44018 153.691099 
L 211.176505 154.306195 
L 211.408899 154.177581 
L 211.773745 154.007784 
L 210.905091 154.376392 
L 211.225228 154.360149 
L 211.473347 154.713529 
L 211.676483 154.89129 
L 212.918622 155.233586 
L 213.769515 155.351329 
L 214.928121 155.336305 
L 218.661167 154.849346 
L 219.263806 155.006272 
L 221.53401 156.159744 
L 222.119846 156.285162 
L 223.191561 156.339551 
L 223.479211 156.544101 
L 224.827983 157.14159 
L 225.414679 157.610831 
L 226.279158 158.750259 
L 226.848898 158.886341 
L 227.950361 158.757934 
L 229.154941 158.5385 
L 229.545702 158.679787 
L 230.488934 159.353135 
L 231.498342 160.063117 
L 232.472164 160.361102 
L 233.259267 160.431208 
L 234.277999 160.320469 
L 234.514674 160.50837 
L 234.665493 160.624957 
L 235.542332 160.45046 
L 236.518347 160.441522 
L 237.455514 160.406586 
L 238.446589 159.722703 
L 239.544911 159.312655 
L 239.941241 158.804785 
L 240.220022 157.786453 
L 240.461011 156.583698 
L 240.42925 154.940405 
L 240.552997 154.392754 
L 240.979174 153.721909 
L 241.337795 153.793772 
L 241.707089 153.419656 
L 242.081813 152.95157 
L 242.422718 152.874655 
L 242.878108 152.931602 
L 243.520693 152.791533 
L 245.65271 153.247651 
L 246.193995 153.254133 
L 246.629648 153.27278 
L 247.149939 153.135058 
L 247.875557 152.814674 
L 250.072153 152.068089 
L 250.220142 151.83834 
L 250.265466 151.869278 
L 250.919689 152.29656 
L 251.561143 152.678978 
L 252.047363 153.117327 
L 252.658308 153.240896 
L 252.874101 153.905438 
L 252.910023 154.192443 
L 252.950097 157.796894 
L 253.009221 158.351464 
L 253.073307 158.337318 
L 253.257271 158.283264 
L 253.394704 158.16772 
L 253.526664 158.233577 
L 253.64174 157.88503 
L 253.800929 155.711164 
L 253.808288 155.827151 
L 253.936286 156.525136 
L 254.157158 157.375276 
L 254.339224 157.791961 
L 254.531934 157.785404 
L 256.124039 155.753029 
L 256.461801 155.575292 
L 256.964612 155.720225 
L 257.347618 155.848496 
L 257.724618 155.576204 
L 258.084408 155.19853 
L 257.802213 156.355881 
L 257.055559 158.117906 
L 257.193634 158.510013 
L 257.092435 159.332183 
L 257.483229 159.493143 
L 257.54119 160.014974 
L 257.88081 159.726897 
L 258.345325 159.352557 
L 258.744249 159.443749 
L 259.367538 159.80021 
L 260.291065 159.767278 
L 261.677911 159.532114 
L 263.180306 159.84261 
L 265.103724 159.79144 
L 267.129872 159.70615 
L 269.207637 160.270903 
L 270.816121 160.682271 
L 271.053804 160.522389 
L 271.368737 160.077797 
L 272.19398 159.171947 
L 272.750247 158.837547 
L 273.651556 158.713675 
L 273.803301 159.257137 
L 273.865424 159.241989 
L 274.204586 159.390834 
L 274.909497 159.338347 
L 275.286578 159.614557 
L 275.961977 160.494145 
L 276.108429 161.347621 
L 276.481091 161.473536 
L 276.405739 163.740427 
L 276.613152 163.729853 
L 277.83952 162.725714 
L 278.533572 162.96064 
L 279.396626 162.737749 
L 280.452651 162.601593 
L 280.930982 162.754261 
L 282.642615 163.334979 
L 284.82721 163.976466 
L 285.532048 164.404696 
L 286.126337 164.897857 
L 286.747553 165.158718 
L 288.056903 166.129954 
L 288.669396 165.990275 
L 289.824979 165.74715 
L 291.220921 166.127381 
L 291.742576 166.490228 
L 292.036271 166.147736 
L 292.254963 165.456419 
L 292.63514 165.624865 
L 293.179266 165.999111 
L 294.966166 165.94521 
L 295.733205 166.234099 
L 296.412541 166.722728 
L 297.785431 168.022458 
L 298.245451 168.368517 
L 299.209861 168.734723 
L 299.935623 168.913106 
L 300.708325 168.873195 
L 301.32902 168.54324 
L 301.938325 168.017506 
L 303.187904 166.626378 
L 303.377918 166.587257 
L 303.710813 166.767658 
L 304.179488 166.437658 
L 304.362564 166.585114 
L 304.69373 166.966592 
L 305.046186 167.120276 
L 306.376104 168.628784 
L 306.705433 169.917748 
L 306.96055 170.687266 
L 307.679423 171.610342 
L 308.003952 171.881602 
L 308.839725 171.988124 
L 309.123331 172.161611 
L 309.307278 172.022364 
L 310.258738 170.8581 
L 311.113659 170.200027 
L 312.123673 169.663156 
L 312.869727 169.461672 
L 313.248225 169.551394 
L 313.653861 169.941295 
L 314.258526 170.485299 
L 316.841337 172.071295 
L 317.200323 171.81366 
L 317.676606 170.856006 
L 317.955236 170.399825 
L 318.172998 170.362307 
L 318.617537 170.634587 
L 319.130505 170.867108 
L 320.183968 170.985677 
L 321.066936 170.969163 
L 321.593272 171.203006 
L 322.503747 171.633634 
L 323.034206 171.571686 
L 323.610508 171.329991 
L 323.972462 170.975975 
L 324.37132 170.115673 
L 324.74574 169.338458 
L 325.153966 168.835775 
L 326.01397 168.171063 
L 328.324804 166.791815 
L 329.011255 166.679269 
L 329.660521 166.779553 
L 330.551891 167.206335 
L 331.16871 167.666312 
L 331.426533 168.040074 
L 332.249753 168.312553 
L 333.953986 168.662437 
L 334.56495 168.515066 
L 335.653551 167.940004 
L 336.030394 167.414729 
L 336.556219 166.668796 
L 337.61165 165.931008 
L 338.210315 165.747014 
L 339.038746 165.213475 
L 339.765945 165.081693 
L 340.223694 164.561881 
L 340.281143 164.330944 
L 340.258291 164.003512 
L 340.463445 163.969934 
L 340.886214 164.627436 
L 341.421279 164.980825 
L 342.334084 165.284039 
L 345.022301 165.710615 
L 345.652315 165.461718 
L 346.263269 164.975586 
L 346.47906 164.71915 
L 346.59651 164.285188 
L 346.826031 164.174874 
L 347.151178 164.214259 
L 350.031715 165.430129 
L 350.312864 165.399317 
L 350.778198 165.345119 
L 351.632302 164.983066 
L 354.678919 164.818671 
L 355.99896 164.777139 
L 356.602911 164.571461 
L 357.116208 164.215732 
L 357.478876 163.878592 
L 359.772962 162.368738 
L 359.718877 161.978299 
L 359.680655 161.893868 
L 359.946262 161.553842 
L 359.828659 161.534889 
L 359.23553 161.507059 
L 359.266138 161.604132 
L 359.266138 161.604132 
" style="fill:none;stroke:#ff7f0e;stroke-linecap:square;stroke-width:1.5;"/>
   </g>
   <g id="patch_3">
    <path d="M 54 187.032273 
L 54 99.527727 
" style="fill:none;stroke:#000000;stroke-linecap:square;stroke-linejoin:miter;stroke-width:0.8;"/>
   </g>
   <g id="patch_4">
    <path d="M 388.8 187.032273 
L 388.8 99.527727 
" style="fill:none;stroke:#000000;stroke-linecap:square;stroke-linejoin:miter;stroke-width:0.8;"/>
   </g>
   <g id="patch_5">
    <path d="M 54 187.032273 
L 388.8 187.032273 
" style="fill:none;stroke:#000000;stroke-linecap:square;stroke-linejoin:miter;stroke-width:0.8;"/>
   </g>
   <g id="patch_6">
    <path d="M 54 99.527727 
L 388.8 99.527727 
" style="fill:none;stroke:#000000;stroke-linecap:square;stroke-linejoin:miter;stroke-width:0.8;"/>
   </g>
  </g>
 </g>
 <defs>
  <clipPath id="p1be0ab9775">
   <rect height="87.504545" width="334.8" x="54" y="99.527727"/>
  </clipPath>
 </defs>
</svg>
