<?xml version="1.0" encoding="UTF-8" standalone="no"?>
<!-- Created with Inkscape (http://www.inkscape.org/) -->

<svg
   width="512"
   height="512"
   viewBox="0 0 135.46666 135.46667"
   version="1.1"
   id="svg5"
   inkscape:version="1.1.2 (1:1.1+202202050950+0a00cf5339)"
   sodipodi:docname="pwl_skematics.svg"
   xmlns:inkscape="http://www.inkscape.org/namespaces/inkscape"
   xmlns:sodipodi="http://sodipodi.sourceforge.net/DTD/sodipodi-0.dtd"
   xmlns="http://www.w3.org/2000/svg"
   xmlns:svg="http://www.w3.org/2000/svg">
  <sodipodi:namedview
     id="namedview7"
     pagecolor="#ffffff"
     bordercolor="#666666"
     borderopacity="1.0"
     inkscape:pageshadow="2"
     inkscape:pageopacity="0.0"
     inkscape:pagecheckerboard="0"
     inkscape:document-units="px"
     showgrid="false"
     units="px"
     inkscape:zoom="0.90583672"
     inkscape:cx="101.01158"
     inkscape:cy="93.835896"
     inkscape:window-width="1920"
     inkscape:window-height="1043"
     inkscape:window-x="0"
     inkscape:window-y="0"
     inkscape:window-maximized="1"
     inkscape:current-layer="layer1"
     inkscape:snap-global="false" />
  <defs
     id="defs2">
    <rect
       x="268.90462"
       y="-16.46865"
       width="176.43276"
       height="41.604843"
       id="rect58621" />
    <rect
       x="268.90463"
       y="-16.468651"
       width="176.43275"
       height="41.604843"
       id="rect58621-5" />
    <rect
       x="268.90463"
       y="-16.468651"
       width="176.43275"
       height="41.604843"
       id="rect58621-5-7" />
  </defs>
  <g
     inkscape:label="Layer 1"
     inkscape:groupmode="layer"
     id="layer1">
    <path
       style="fill:none;stroke:#6c6c6c;stroke-width:0.529167;stroke-linecap:butt;stroke-linejoin:miter;stroke-miterlimit:4;stroke-dasharray:none;stroke-opacity:1"
       d="M -12.811553,-4.3135645 -26.881713,0.36838052 -45.855616,-7.7682555 -59.038361,0.77720452 -73.539404,-10.266517 -90.830943,0.12576552 -101.5648,-8.3827555 c 0,0 -9.93795,3.940612 -11.20953,4.180081 l -14.84333,-3.985555"
       id="path1656" />
    <path
       style="fill:#008000;fill-opacity:1;stroke:none;stroke-width:5.33333;stroke-linecap:round;stroke-dasharray:5.33333, 10.6667;stroke-opacity:0.6"
       id="path1017"
       sodipodi:type="arc"
       sodipodi:cx="-73.533051"
       sodipodi:cy="-9.9810123"
       sodipodi:rx="0.99081862"
       sodipodi:ry="0.99081862"
       sodipodi:start="0.87317775"
       sodipodi:end="0.87208343"
       sodipodi:arc-type="slice"
       d="m -72.896554,-9.2216745 a 0.99081862,0.99081862 0 0 1 -1.39566,-0.1226337 0.99081862,0.99081862 0 0 1 0.122252,-1.3956938 0.99081862,0.99081862 0 0 1 1.395727,0.12187 0.99081862,0.99081862 0 0 1 -0.121489,1.3957605 l -0.637327,-0.7586408 z" />
    <path
       style="fill:#008000;fill-opacity:1;stroke:none;stroke-width:5.33333;stroke-linecap:round;stroke-dasharray:5.33333, 10.6667;stroke-opacity:0.6"
       id="path1017-3"
       sodipodi:type="arc"
       sodipodi:cx="-59.017792"
       sodipodi:cy="0.56990665"
       sodipodi:rx="0.99081862"
       sodipodi:ry="0.99081862"
       sodipodi:start="0.87317775"
       sodipodi:end="0.87208343"
       sodipodi:arc-type="slice"
       d="m -58.381295,1.3292445 a 0.99081862,0.99081862 0 0 1 -1.39566,-0.1226338 0.99081862,0.99081862 0 0 1 0.122251,-1.39569347 0.99081862,0.99081862 0 0 1 1.395727,0.12187004 0.99081862,0.99081862 0 0 1 -0.121488,1.39576023 l -0.637327,-0.75864085 z" />
    <path
       style="fill:#008000;fill-opacity:1;stroke:none;stroke-width:5.33333;stroke-linecap:round;stroke-dasharray:5.33333, 10.6667;stroke-opacity:0.6"
       id="path1017-3-6"
       sodipodi:type="arc"
       sodipodi:cx="-90.825645"
       sodipodi:cy="0.003965795"
       sodipodi:rx="0.99081862"
       sodipodi:ry="0.99081862"
       sodipodi:start="0.87317775"
       sodipodi:end="0.87208343"
       sodipodi:arc-type="slice"
       d="m -90.189149,0.76330359 a 0.99081862,0.99081862 0 0 1 -1.39566,-0.1226337 0.99081862,0.99081862 0 0 1 0.122252,-1.39569352 0.99081862,0.99081862 0 0 1 1.395727,0.12187004 0.99081862,0.99081862 0 0 1 -0.121488,1.3957602 L -90.825645,0.0039658 Z" />
    <path
       style="fill:#916f6f;fill-opacity:1;stroke:none;stroke-width:5.33333;stroke-linecap:round;stroke-dasharray:5.33333, 10.6667;stroke-opacity:0.6"
       id="path1017-3-6-7"
       sodipodi:type="arc"
       sodipodi:cx="-101.58983"
       sodipodi:cy="8.1852245"
       sodipodi:rx="0.99081862"
       sodipodi:ry="0.99081862"
       sodipodi:start="0.87317775"
       sodipodi:end="0.87208343"
       sodipodi:arc-type="slice"
       d="m -100.95333,8.9445623 a 0.99081862,0.99081862 0 0 1 -1.39566,-0.1226337 0.99081862,0.99081862 0 0 1 0.12225,-1.3956935 0.99081862,0.99081862 0 0 1 1.39573,0.12187 0.99081862,0.99081862 0 0 1 -0.12149,1.3957602 l -0.63733,-0.7586408 z"
       transform="scale(1,-1)" />
    <path
       style="fill:#916f6f;fill-opacity:1;stroke:none;stroke-width:5.33333;stroke-linecap:round;stroke-dasharray:5.33333, 10.6667;stroke-opacity:0.6"
       id="path1017-3-6-7-3"
       sodipodi:type="arc"
       sodipodi:cx="-45.828064"
       sodipodi:cy="-7.4977393"
       sodipodi:rx="0.99081862"
       sodipodi:ry="0.99081862"
       sodipodi:start="0.87317775"
       sodipodi:end="0.87208343"
       sodipodi:arc-type="slice"
       d="m -45.191568,-6.7384015 a 0.99081862,0.99081862 0 0 1 -1.39566,-0.1226337 0.99081862,0.99081862 0 0 1 0.122252,-1.3956935 0.99081862,0.99081862 0 0 1 1.395727,0.12187 0.99081862,0.99081862 0 0 1 -0.121488,1.3957602 l -0.637327,-0.7586408 z" />
    <path
       style="fill:#4d4d4d;fill-opacity:1;stroke:none;stroke-width:5.33333;stroke-linecap:round;stroke-dasharray:5.33333, 10.6667;stroke-opacity:0.6"
       id="path1017-3-6-7-5"
       sodipodi:type="arc"
       sodipodi:cx="-112.84309"
       sodipodi:cy="-4.0874038"
       sodipodi:rx="0.99081862"
       sodipodi:ry="0.99081862"
       sodipodi:start="0.87317775"
       sodipodi:end="0.87208343"
       sodipodi:arc-type="slice"
       d="m -112.20659,-3.328066 a 0.99081862,0.99081862 0 0 1 -1.39566,-0.1226337 0.99081862,0.99081862 0 0 1 0.12225,-1.3956935 0.99081862,0.99081862 0 0 1 1.39573,0.12187 0.99081862,0.99081862 0 0 1 -0.12149,1.3957602 l -0.63733,-0.7586408 z" />
    <path
       style="fill:#4d4d4d;fill-opacity:1;stroke:none;stroke-width:5.33333;stroke-linecap:round;stroke-dasharray:5.33333, 10.6667;stroke-opacity:0.6"
       id="path1017-3-6-7-5-5"
       sodipodi:type="arc"
       sodipodi:cx="-27.085844"
       sodipodi:cy="0.3276276"
       sodipodi:rx="0.99081862"
       sodipodi:ry="0.99081862"
       sodipodi:start="0.87317775"
       sodipodi:end="0.87208343"
       sodipodi:arc-type="slice"
       d="m -26.449348,1.0869654 a 0.99081862,0.99081862 0 0 1 -1.39566,-0.1226337 0.99081862,0.99081862 0 0 1 0.122252,-1.39569352 0.99081862,0.99081862 0 0 1 1.395727,0.12187003 0.99081862,0.99081862 0 0 1 -0.121488,1.39576019 l -0.637327,-0.7586408 z" />
    <path
       style="fill:#008000;fill-opacity:1;stroke:none;stroke-width:5.33333;stroke-linecap:round;stroke-dasharray:5.33333, 10.6667;stroke-opacity:0.6"
       id="path1017-2"
       sodipodi:type="arc"
       sodipodi:cx="-57.654888"
       sodipodi:cy="-31.115025"
       sodipodi:rx="0.99081862"
       sodipodi:ry="0.99081862"
       sodipodi:start="0.87317775"
       sodipodi:end="0.87208343"
       sodipodi:arc-type="slice"
       d="m -57.018392,-30.355687 a 0.99081862,0.99081862 0 0 1 -1.39566,-0.122633 0.99081862,0.99081862 0 0 1 0.122252,-1.395694 0.99081862,0.99081862 0 0 1 1.395727,0.12187 0.99081862,0.99081862 0 0 1 -0.121488,1.39576 l -0.637327,-0.758641 z" />
    <path
       style="fill:#916f6f;fill-opacity:1;stroke:none;stroke-width:5.33333;stroke-linecap:round;stroke-dasharray:5.33333, 10.6667;stroke-opacity:0.6"
       id="path1017-3-6-7-2"
       sodipodi:type="arc"
       sodipodi:cx="-74.762932"
       sodipodi:cy="21.018929"
       sodipodi:rx="0.99081862"
       sodipodi:ry="0.99081862"
       sodipodi:start="0.87317775"
       sodipodi:end="0.87208343"
       sodipodi:arc-type="slice"
       transform="scale(1,-1)"
       d="m -74.126435,21.778266 a 0.99081862,0.99081862 0 0 1 -1.39566,-0.122633 0.99081862,0.99081862 0 0 1 0.122251,-1.395694 0.99081862,0.99081862 0 0 1 1.395727,0.12187 0.99081862,0.99081862 0 0 1 -0.121488,1.39576 l -0.637327,-0.75864 z" />
    <path
       style="fill:#916f6f;fill-opacity:1;stroke:none;stroke-width:5.33333;stroke-linecap:round;stroke-dasharray:5.33333, 10.6667;stroke-opacity:0.6"
       id="path1017-3-6-7-3-7"
       sodipodi:type="arc"
       sodipodi:cx="-43.379662"
       sodipodi:cy="-20.500587"
       sodipodi:rx="0.99081862"
       sodipodi:ry="0.99081862"
       sodipodi:start="0.87317775"
       sodipodi:end="0.87208343"
       sodipodi:arc-type="slice"
       d="m -42.743165,-19.74125 a 0.99081862,0.99081862 0 0 1 -1.39566,-0.122633 0.99081862,0.99081862 0 0 1 0.122252,-1.395694 0.99081862,0.99081862 0 0 1 1.395727,0.12187 0.99081862,0.99081862 0 0 1 -0.121489,1.39576 l -0.637327,-0.75864 z" />
    <path
       style="fill:#4d4d4d;fill-opacity:1;stroke:none;stroke-width:5.33333;stroke-linecap:round;stroke-dasharray:5.33333, 10.6667;stroke-opacity:0.6"
       id="path1017-3-6-7-5-0"
       sodipodi:type="arc"
       sodipodi:cx="-86.738136"
       sodipodi:cy="-26.691059"
       sodipodi:rx="0.99081862"
       sodipodi:ry="0.99081862"
       sodipodi:start="0.87317775"
       sodipodi:end="0.87208343"
       sodipodi:arc-type="slice"
       d="m -86.10164,-25.931721 a 0.99081862,0.99081862 0 0 1 -1.39566,-0.122634 0.99081862,0.99081862 0 0 1 0.122252,-1.395694 0.99081862,0.99081862 0 0 1 1.395727,0.121871 0.99081862,0.99081862 0 0 1 -0.121488,1.39576 l -0.637327,-0.758641 z" />
    <path
       style="fill:#4d4d4d;fill-opacity:1;stroke:none;stroke-width:5.33333;stroke-linecap:round;stroke-dasharray:5.33333, 10.6667;stroke-opacity:0.6"
       id="path1017-3-6-7-5-5-9"
       sodipodi:type="arc"
       sodipodi:cx="-26.524256"
       sodipodi:cy="-25.944668"
       sodipodi:rx="0.99081862"
       sodipodi:ry="0.99081862"
       sodipodi:start="0.87317775"
       sodipodi:end="0.87208343"
       sodipodi:arc-type="slice"
       d="m -25.887759,-25.18533 a 0.99081862,0.99081862 0 0 1 -1.39566,-0.122634 0.99081862,0.99081862 0 0 1 0.122251,-1.395693 0.99081862,0.99081862 0 0 1 1.395727,0.12187 0.99081862,0.99081862 0 0 1 -0.121488,1.39576 l -0.637327,-0.758641 z" />
    <path
       style="fill:none;stroke:#916f6f;stroke-width:0.529167;stroke-linecap:butt;stroke-linejoin:miter;stroke-miterlimit:4;stroke-dasharray:none;stroke-opacity:1"
       d="m -74.652285,-21.08103 -12.327598,-5.916177"
       id="path6516"
       sodipodi:nodetypes="cc" />
    <path
       style="fill:none;stroke:#916f6f;stroke-width:0.529167;stroke-linecap:butt;stroke-linejoin:miter;stroke-miterlimit:4;stroke-dasharray:none;stroke-opacity:1"
       d="m -26.492155,-25.90483 -16.508441,5.320894"
       id="path6516-3"
       sodipodi:nodetypes="cc" />
    <path
       style="fill:none;stroke:#4d4d4d;stroke-width:0.529167;stroke-linecap:butt;stroke-linejoin:miter;stroke-miterlimit:4;stroke-dasharray:none;stroke-opacity:0.996078"
       d="m -86.378523,-26.71819 -13.30855,5.248345"
       id="path8752"
       sodipodi:nodetypes="cc" />
    <path
       style="fill:none;stroke:#4d4d4d;stroke-width:0.529167;stroke-linecap:butt;stroke-linejoin:miter;stroke-miterlimit:4;stroke-dasharray:none;stroke-opacity:0.996078"
       d="m -11.161527,-19.930834 -15.544686,-5.983863"
       id="path8752-6"
       sodipodi:nodetypes="cc" />
    <path
       style="fill:none;stroke:#008000;stroke-width:0.529167;stroke-linecap:butt;stroke-linejoin:miter;stroke-miterlimit:4;stroke-dasharray:none;stroke-opacity:1"
       d="m -74.778571,-20.933279 17.186928,-10.478772 14.295265,11.00038"
       id="path11298" />
    <path
       style="fill:#008000;fill-opacity:1;stroke:none;stroke-width:5.33333;stroke-linecap:round;stroke-dasharray:5.33333, 10.6667;stroke-opacity:0.6"
       id="path1017-3-6-7-2-7"
       sodipodi:type="arc"
       sodipodi:cx="40.63776"
       sodipodi:cy="-57.953854"
       sodipodi:rx="0.99081862"
       sodipodi:ry="0.99081862"
       sodipodi:start="0.87317775"
       sodipodi:end="0.87208343"
       sodipodi:arc-type="slice"
       transform="scale(1,-1)"
       d="m 41.274257,-57.194516 a 0.99081862,0.99081862 0 0 1 -1.39566,-0.122634 0.99081862,0.99081862 0 0 1 0.122251,-1.395693 0.99081862,0.99081862 0 0 1 1.395727,0.12187 0.99081862,0.99081862 0 0 1 -0.121488,1.39576 l -0.637327,-0.758641 z" />
    <path
       style="fill:#ffcc00;fill-opacity:1;stroke:none;stroke-width:5.33333;stroke-linecap:round;stroke-dasharray:5.33333, 10.6667;stroke-opacity:0.6"
       id="path1017-3-6-7-3-7-84"
       sodipodi:type="arc"
       sodipodi:cx="72.021019"
       sodipodi:cy="58.472195"
       sodipodi:rx="0.99081862"
       sodipodi:ry="0.99081862"
       sodipodi:start="0.87317775"
       sodipodi:end="0.87208343"
       sodipodi:arc-type="slice"
       d="m 72.657515,59.231532 a 0.99081862,0.99081862 0 0 1 -1.39566,-0.122633 0.99081862,0.99081862 0 0 1 0.122252,-1.395694 0.99081862,0.99081862 0 0 1 1.395727,0.12187 0.99081862,0.99081862 0 0 1 -0.121488,1.39576 l -0.637327,-0.75864 z" />
    <path
       style="fill:none;stroke:#4d4d4d;stroke-width:0.529167;stroke-linecap:butt;stroke-linejoin:miter;stroke-miterlimit:4;stroke-dasharray:none;stroke-opacity:0.996078"
       d="m 29.022163,52.254589 -13.30855,5.248344"
       id="path8752-0"
       sodipodi:nodetypes="cc" />
    <path
       style="fill:#4d4d4d;fill-opacity:1;stroke:none;stroke-width:5.33333;stroke-linecap:round;stroke-dasharray:5.33333, 10.6667;stroke-opacity:0.6"
       id="path1017-3-6-7-5-0-5"
       sodipodi:type="arc"
       sodipodi:cx="28.662552"
       sodipodi:cy="52.281719"
       sodipodi:rx="0.99081862"
       sodipodi:ry="0.99081862"
       sodipodi:start="0.87317775"
       sodipodi:end="0.87208343"
       sodipodi:arc-type="slice"
       d="m 29.299048,53.041057 a 0.99081862,0.99081862 0 0 1 -1.39566,-0.122634 0.99081862,0.99081862 0 0 1 0.122252,-1.395693 0.99081862,0.99081862 0 0 1 1.395727,0.12187 0.99081862,0.99081862 0 0 1 -0.121488,1.39576 l -0.637327,-0.758641 z" />
    <path
       style="fill:none;stroke:#4d4d4d;stroke-width:0.529167;stroke-linecap:butt;stroke-linejoin:miter;stroke-miterlimit:4;stroke-dasharray:none;stroke-opacity:0.996078"
       d="m 104.82129,59.249163 12.16252,-4.851612"
       id="path8752-0-1"
       sodipodi:nodetypes="cc" />
    <path
       style="fill:#4d4d4d;fill-opacity:1;stroke:none;stroke-width:5.33333;stroke-linecap:round;stroke-dasharray:5.33333, 10.6667;stroke-opacity:0.6"
       id="path1017-3-6-7-5-0-5-5"
       sodipodi:type="arc"
       sodipodi:cx="104.46168"
       sodipodi:cy="59.276287"
       sodipodi:rx="0.99081862"
       sodipodi:ry="0.99081862"
       sodipodi:start="0.87317775"
       sodipodi:end="0.87208343"
       sodipodi:arc-type="slice"
       d="m 105.09817,60.035625 a 0.99081862,0.99081862 0 0 1 -1.39566,-0.122634 0.99081862,0.99081862 0 0 1 0.12226,-1.395693 0.99081862,0.99081862 0 0 1 1.39572,0.12187 0.99081862,0.99081862 0 0 1 -0.12149,1.39576 l -0.63732,-0.758641 z" />
    <path
       style="fill:#008000;fill-opacity:1;stroke:none;stroke-width:5.33333;stroke-linecap:round;stroke-dasharray:5.33333, 10.6667;stroke-opacity:0.6"
       id="path1017-3-6-7-5-5-9-0"
       sodipodi:type="arc"
       sodipodi:cx="88.876419"
       sodipodi:cy="53.028111"
       sodipodi:rx="0.99081862"
       sodipodi:ry="0.99081862"
       sodipodi:start="0.87317775"
       sodipodi:end="0.87208343"
       sodipodi:arc-type="slice"
       d="m 89.512915,53.787448 a 0.99081862,0.99081862 0 0 1 -1.39566,-0.122633 0.99081862,0.99081862 0 0 1 0.122252,-1.395694 0.99081862,0.99081862 0 0 1 1.395727,0.12187 0.99081862,0.99081862 0 0 1 -0.121488,1.39576 l -0.637327,-0.75864 z" />
    <path
       style="fill:none;stroke:#008000;stroke-width:0.529167;stroke-linecap:butt;stroke-linejoin:miter;stroke-miterlimit:4;stroke-dasharray:none;stroke-opacity:1"
       d="M 40.748401,57.891753 28.420803,51.975572"
       id="path6516-36"
       sodipodi:nodetypes="cc" />
    <path
       style="fill:none;stroke:#008000;stroke-width:0.529167;stroke-linecap:butt;stroke-linejoin:miter;stroke-miterlimit:4;stroke-dasharray:none;stroke-opacity:1"
       d="M 88.908533,53.067949 72.40009,58.388843"
       id="path6516-3-1"
       sodipodi:nodetypes="cc" />
    <path
       style="fill:none;stroke:#008000;stroke-width:0.529167;stroke-linecap:butt;stroke-linejoin:miter;stroke-miterlimit:4;stroke-dasharray:none;stroke-opacity:0.996078"
       d="M 104.43558,58.99921 88.890898,53.015349"
       id="path8752-6-6"
       sodipodi:nodetypes="cc" />
    <path
       style="fill:none;stroke:#008000;stroke-width:0.529167;stroke-linecap:butt;stroke-linejoin:miter;stroke-miterlimit:4;stroke-dasharray:none;stroke-opacity:1"
       d="M 40.664484,57.902823 57.809043,48.159396"
       id="path11298-3"
       sodipodi:nodetypes="cc" />
    <path
       style="fill:#ffcc00;fill-opacity:1;stroke:none;stroke-width:5.33333;stroke-linecap:round;stroke-dasharray:5.33333, 10.6667;stroke-opacity:0.6"
       id="path1017-3-6-7-2-8"
       sodipodi:type="arc"
       sodipodi:cx="40.061691"
       sodipodi:cy="-39.534283"
       sodipodi:rx="0.99081862"
       sodipodi:ry="0.99081862"
       sodipodi:start="0.87317775"
       sodipodi:end="0.87208343"
       sodipodi:arc-type="slice"
       transform="scale(1,-1)"
       d="m 40.698188,-38.774945 a 0.99081862,0.99081862 0 0 1 -1.39566,-0.122634 0.99081862,0.99081862 0 0 1 0.122252,-1.395693 0.99081862,0.99081862 0 0 1 1.395726,0.12187 0.99081862,0.99081862 0 0 1 -0.121488,1.39576 l -0.637327,-0.758641 z" />
    <path
       style="fill:#ffcc00;fill-opacity:1;stroke:none;stroke-width:5.33333;stroke-linecap:round;stroke-dasharray:5.33333, 10.6667;stroke-opacity:0.6"
       id="path1017-3-6-7-3-7-9"
       sodipodi:type="arc"
       sodipodi:cx="71.444962"
       sodipodi:cy="40.052624"
       sodipodi:rx="0.99081862"
       sodipodi:ry="0.99081862"
       sodipodi:start="0.87317775"
       sodipodi:end="0.87208343"
       sodipodi:arc-type="slice"
       d="m 72.081458,40.811962 a 0.99081862,0.99081862 0 0 1 -1.39566,-0.122634 0.99081862,0.99081862 0 0 1 0.122252,-1.395694 0.99081862,0.99081862 0 0 1 1.395727,0.12187 0.99081862,0.99081862 0 0 1 -0.121488,1.395761 l -0.637327,-0.758641 z" />
    <path
       style="fill:#008000;fill-opacity:0.980392;stroke:none;stroke-width:5.33333;stroke-linecap:round;stroke-dasharray:5.33333, 10.6667;stroke-opacity:0.6"
       id="path1017-3-6-7-5-0-73"
       sodipodi:type="arc"
       sodipodi:cx="28.086487"
       sodipodi:cy="33.862156"
       sodipodi:rx="0.99081862"
       sodipodi:ry="0.99081862"
       sodipodi:start="0.87317775"
       sodipodi:end="0.87208343"
       sodipodi:arc-type="slice"
       d="m 28.722983,34.621494 a 0.99081862,0.99081862 0 0 1 -1.39566,-0.122634 0.99081862,0.99081862 0 0 1 0.122252,-1.395694 0.99081862,0.99081862 0 0 1 1.395727,0.121871 0.99081862,0.99081862 0 0 1 -0.121488,1.39576 l -0.637327,-0.758641 z" />
    <path
       style="fill:#008000;fill-opacity:1;stroke:none;stroke-width:5.33333;stroke-linecap:round;stroke-dasharray:5.33333, 10.6667;stroke-opacity:0.6"
       id="path1017-3-6-7-5-5-9-6"
       sodipodi:type="arc"
       sodipodi:cx="88.300362"
       sodipodi:cy="34.608547"
       sodipodi:rx="0.99081862"
       sodipodi:ry="0.99081862"
       sodipodi:start="0.87317775"
       sodipodi:end="0.87208343"
       sodipodi:arc-type="slice"
       d="m 88.936858,35.367885 a 0.99081862,0.99081862 0 0 1 -1.39566,-0.122634 0.99081862,0.99081862 0 0 1 0.122252,-1.395693 0.99081862,0.99081862 0 0 1 1.395727,0.12187 0.99081862,0.99081862 0 0 1 -0.121488,1.39576 l -0.637327,-0.758641 z" />
    <path
       style="fill:none;stroke:#008000;stroke-width:0.529167;stroke-linecap:butt;stroke-linejoin:miter;stroke-miterlimit:4;stroke-dasharray:none;stroke-opacity:1"
       d="M 40.172338,39.472186 27.84474,33.556009"
       id="path6516-1"
       sodipodi:nodetypes="cc" />
    <path
       style="fill:none;stroke:#008000;stroke-width:0.529167;stroke-linecap:butt;stroke-linejoin:miter;stroke-miterlimit:4;stroke-dasharray:none;stroke-opacity:1"
       d="M 88.33247,34.648386 71.82403,39.96928"
       id="path6516-3-2"
       sodipodi:nodetypes="cc" />
    <path
       style="fill:none;stroke:#008000;stroke-width:0.529167;stroke-linecap:butt;stroke-linejoin:miter;stroke-miterlimit:4;stroke-dasharray:none;stroke-opacity:0.996078"
       d="M 28.4461,33.835026 15.13755,39.083371"
       id="path8752-9"
       sodipodi:nodetypes="cc" />
    <path
       style="fill:none;stroke:#008000;stroke-width:0.529167;stroke-linecap:butt;stroke-linejoin:miter;stroke-miterlimit:4;stroke-dasharray:none;stroke-opacity:0.87451"
       d="M 103.6631,40.622382 88.11841,34.638519"
       id="path8752-6-31"
       sodipodi:nodetypes="cc" />
    <path
       style="fill:none;stroke:#808080;stroke-width:0.529167;stroke-linecap:butt;stroke-linejoin:miter;stroke-miterlimit:4;stroke-dasharray:1.5875, 1.5875;stroke-dashoffset:0;stroke-opacity:0.637345"
       d="M 40.046052,39.619937 57.23298,29.141165 71.52825,40.141545"
       id="path11298-9" />
    <path
       style="fill:#800000;stroke:#ffcc00;stroke-width:0.529167;stroke-linecap:butt;stroke-linejoin:miter;stroke-miterlimit:4;stroke-dasharray:none;stroke-opacity:1"
       d="M 57.476295,48.138186 72.162216,58.580803"
       id="path20530"
       sodipodi:nodetypes="cc" />
    <path
       style="fill:#800000;stroke:#ffcc00;stroke-width:0.529167;stroke-linecap:butt;stroke-linejoin:miter;stroke-miterlimit:4;stroke-dasharray:none;stroke-opacity:1"
       d="m 40.192714,39.362332 30.767494,0.388094"
       id="path20530-0" />
    <path
       style="fill:none;stroke:#0a7e0a;stroke-width:0.529167;stroke-linecap:butt;stroke-linejoin:miter;stroke-miterlimit:4;stroke-dasharray:none;stroke-opacity:0.988235"
       d="M 29.49297,13.947004 40.699153,22.425698 57.769265,12.05817 71.935443,22.917204 85.608479,14.825878"
       id="path3213-6" />
    <path
       style="fill:#ffcc00;fill-opacity:1;stroke:none;stroke-width:5.33333;stroke-linecap:round;stroke-dasharray:5.33333, 10.6667;stroke-opacity:0.6"
       id="path1017-2-0"
       sodipodi:type="arc"
       sodipodi:cx="57.646439"
       sodipodi:cy="12.049514"
       sodipodi:rx="0.99081862"
       sodipodi:ry="0.99081862"
       sodipodi:start="0.87317775"
       sodipodi:end="0.87208343"
       sodipodi:arc-type="slice"
       d="m 58.282935,12.808852 a 0.99081862,0.99081862 0 0 1 -1.39566,-0.122634 0.99081862,0.99081862 0 0 1 0.122252,-1.395694 0.99081862,0.99081862 0 0 1 1.395727,0.12187 0.99081862,0.99081862 0 0 1 -0.121488,1.395761 l -0.637327,-0.758641 z" />
    <path
       style="fill:#008000;fill-opacity:1;stroke:none;stroke-width:5.33333;stroke-linecap:round;stroke-dasharray:5.33333, 10.6667;stroke-opacity:0.6"
       id="path1017-3-9-2"
       sodipodi:type="arc"
       sodipodi:cx="72.161697"
       sodipodi:cy="22.600433"
       sodipodi:rx="0.99081862"
       sodipodi:ry="0.99081862"
       sodipodi:start="0.87317775"
       sodipodi:end="0.87208343"
       sodipodi:arc-type="slice"
       d="m 72.798194,23.359771 a 0.99081862,0.99081862 0 0 1 -1.39566,-0.122634 0.99081862,0.99081862 0 0 1 0.122252,-1.395693 0.99081862,0.99081862 0 0 1 1.395727,0.12187 0.99081862,0.99081862 0 0 1 -0.121489,1.39576 l -0.637327,-0.758641 z" />
    <path
       style="fill:#008000;fill-opacity:1;stroke:none;stroke-width:5.33333;stroke-linecap:round;stroke-dasharray:5.33333, 10.6667;stroke-opacity:0.6"
       id="path1017-3-6-1-6"
       sodipodi:type="arc"
       sodipodi:cx="40.353851"
       sodipodi:cy="22.034492"
       sodipodi:rx="0.99081862"
       sodipodi:ry="0.99081862"
       sodipodi:start="0.87317775"
       sodipodi:end="0.87208343"
       sodipodi:arc-type="slice"
       d="m 40.990348,22.79383 a 0.99081862,0.99081862 0 0 1 -1.39566,-0.122633 0.99081862,0.99081862 0 0 1 0.122252,-1.395694 0.99081862,0.99081862 0 0 1 1.395726,0.12187 0.99081862,0.99081862 0 0 1 -0.121488,1.39576 l -0.637327,-0.758641 z" />
    <path
       style="fill:#916f6f;fill-opacity:1;stroke:none;stroke-width:5.33333;stroke-linecap:round;stroke-dasharray:5.33333, 10.6667;stroke-opacity:0.6"
       id="path1017-3-6-7-2-1"
       sodipodi:type="arc"
       sodipodi:cx="29.589664"
       sodipodi:cy="-13.845298"
       sodipodi:rx="0.99081862"
       sodipodi:ry="0.99081862"
       sodipodi:start="0.87317775"
       sodipodi:end="0.87208343"
       sodipodi:arc-type="slice"
       transform="scale(1,-1)"
       d="m 30.226161,-13.08596 a 0.99081862,0.99081862 0 0 1 -1.39566,-0.122634 0.99081862,0.99081862 0 0 1 0.122252,-1.395693 0.99081862,0.99081862 0 0 1 1.395727,0.12187 0.99081862,0.99081862 0 0 1 -0.121489,1.39576 l -0.637327,-0.758641 z" />
    <path
       style="fill:#916f6f;fill-opacity:1;stroke:none;stroke-width:5.33333;stroke-linecap:round;stroke-dasharray:5.33333, 10.6667;stroke-opacity:0.6"
       id="path1017-3-6-7-3-7-8"
       sodipodi:type="arc"
       sodipodi:cx="85.351433"
       sodipodi:cy="14.532783"
       sodipodi:rx="0.99081862"
       sodipodi:ry="0.99081862"
       sodipodi:start="0.87317775"
       sodipodi:end="0.87208343"
       sodipodi:arc-type="slice"
       d="m 85.987929,15.29212 a 0.99081862,0.99081862 0 0 1 -1.39566,-0.122633 0.99081862,0.99081862 0 0 1 0.122252,-1.395694 0.99081862,0.99081862 0 0 1 1.395727,0.12187 0.99081862,0.99081862 0 0 1 -0.121488,1.39576 l -0.637327,-0.75864 z" />
    <path
       style="fill:#4d4d4d;fill-opacity:1;stroke:none;stroke-width:5.33333;stroke-linecap:round;stroke-dasharray:5.33333, 10.6667;stroke-opacity:0.6"
       id="path1017-3-6-7-5-0-7"
       sodipodi:type="arc"
       sodipodi:cx="18.336409"
       sodipodi:cy="17.943123"
       sodipodi:rx="0.99081862"
       sodipodi:ry="0.99081862"
       sodipodi:start="0.87317775"
       sodipodi:end="0.87208343"
       sodipodi:arc-type="slice"
       d="m 18.972905,18.702461 a 0.99081862,0.99081862 0 0 1 -1.39566,-0.122634 0.99081862,0.99081862 0 0 1 0.122252,-1.395694 0.99081862,0.99081862 0 0 1 1.395727,0.12187 0.99081862,0.99081862 0 0 1 -0.121488,1.395761 l -0.637327,-0.758641 z" />
    <path
       style="fill:#4d4d4d;fill-opacity:1;stroke:none;stroke-width:5.33333;stroke-linecap:round;stroke-dasharray:5.33333, 10.6667;stroke-opacity:0.6"
       id="path1017-3-6-7-5-5-9-9"
       sodipodi:type="arc"
       sodipodi:cx="104.09365"
       sodipodi:cy="22.358154"
       sodipodi:rx="0.99081862"
       sodipodi:ry="0.99081862"
       sodipodi:start="0.87317775"
       sodipodi:end="0.87208343"
       sodipodi:arc-type="slice"
       d="m 104.73015,23.117492 a 0.99081862,0.99081862 0 0 1 -1.39566,-0.122634 0.99081862,0.99081862 0 0 1 0.12225,-1.395693 0.99081862,0.99081862 0 0 1 1.39573,0.12187 0.99081862,0.99081862 0 0 1 -0.12149,1.39576 l -0.63733,-0.758641 z" />
    <path
       style="fill:none;stroke:#916f6f;stroke-width:0.529167;stroke-linecap:butt;stroke-linejoin:miter;stroke-miterlimit:4;stroke-dasharray:none;stroke-opacity:1"
       d="M 29.682705,13.823486 18.534388,17.884245"
       id="path6516-2" />
    <path
       style="fill:none;stroke:#916f6f;stroke-width:0.529167;stroke-linecap:butt;stroke-linejoin:miter;stroke-miterlimit:4;stroke-dasharray:none;stroke-opacity:1"
       d="M 104.08089,22.511034 85.189239,14.486738"
       id="path6516-3-0"
       sodipodi:nodetypes="cc" />
    <path
       style="fill:none;stroke:#4d4d4d;stroke-width:0.529167;stroke-linecap:butt;stroke-linejoin:miter;stroke-miterlimit:4;stroke-dasharray:none;stroke-opacity:0.996078"
       d="M 18.696026,17.915996 6.385768,13.98642"
       id="path8752-2" />
    <path
       style="fill:none;stroke:#4d4d4d;stroke-width:0.529167;stroke-linecap:butt;stroke-linejoin:miter;stroke-miterlimit:4;stroke-dasharray:none;stroke-opacity:0.996078"
       d="m 118.50385,18.790903 -14.59216,3.597223"
       id="path8752-6-3"
       sodipodi:nodetypes="cc" />
    <path
       style="fill:#ffcc00;fill-opacity:1;stroke:none;stroke-width:5.33321;stroke-linecap:round;stroke-miterlimit:4;stroke-dasharray:5.33321, 10.6664;stroke-dashoffset:0;stroke-opacity:0.6"
       id="path1017-2-0-2"
       sodipodi:type="arc"
       sodipodi:cx="57.770939"
       sodipodi:cy="48.127628"
       sodipodi:rx="0.99081862"
       sodipodi:ry="0.99081862"
       sodipodi:start="0.87317775"
       sodipodi:end="0.87208343"
       sodipodi:arc-type="slice"
       d="m 58.407435,48.886966 a 0.99081862,0.99081862 0 0 1 -1.39566,-0.122634 0.99081862,0.99081862 0 0 1 0.122252,-1.395693 0.99081862,0.99081862 0 0 1 1.395727,0.12187 0.99081862,0.99081862 0 0 1 -0.121488,1.39576 l -0.637327,-0.758641 z" />
    <path
       style="fill:#ffcc00;fill-opacity:1;stroke:none;stroke-width:5.33321;stroke-linecap:round;stroke-miterlimit:4;stroke-dasharray:5.33321, 10.6664;stroke-dashoffset:0;stroke-opacity:0.6"
       id="path1017-2-0-2-6"
       sodipodi:type="arc"
       sodipodi:cx="64.841454"
       sodipodi:cy="53.386356"
       sodipodi:rx="0.99081862"
       sodipodi:ry="0.99081862"
       sodipodi:start="0.87317775"
       sodipodi:end="0.87208343"
       sodipodi:arc-type="slice"
       d="m 65.47795,54.145694 a 0.99081862,0.99081862 0 0 1 -1.39566,-0.122634 0.99081862,0.99081862 0 0 1 0.122252,-1.395693 0.99081862,0.99081862 0 0 1 1.395727,0.12187 0.99081862,0.99081862 0 0 1 -0.121488,1.39576 l -0.637327,-0.758641 z" />
    <g
       id="g70166"
       transform="translate(24.401584,-17.468684)">
      <path
         style="fill:#ffcc00;fill-opacity:1;stroke:none;stroke-width:5.33321;stroke-linecap:round;stroke-miterlimit:4;stroke-dasharray:5.33321, 10.6664;stroke-dashoffset:0;stroke-opacity:0.6"
         id="path1017-2-0-2-6-5"
         sodipodi:type="arc"
         sodipodi:cx="53.349335"
         sodipodi:cy="90.111679"
         sodipodi:rx="1.8676419"
         sodipodi:ry="1.8676419"
         sodipodi:start="0.87317775"
         sodipodi:end="0.87208343"
         sodipodi:arc-type="slice"
         d="m 54.549098,91.542992 a 1.8676419,1.8676419 0 0 1 -2.630748,-0.231159 1.8676419,1.8676419 0 0 1 0.230439,-2.63081 1.8676419,1.8676419 0 0 1 2.630873,0.229719 1.8676419,1.8676419 0 0 1 -0.228999,2.630936 l -1.201328,-1.429999 z" />
      <path
         style="fill:#008000;fill-opacity:1;stroke:none;stroke-width:5.33321;stroke-linecap:round;stroke-miterlimit:4;stroke-dasharray:5.33321, 10.6664;stroke-dashoffset:0;stroke-opacity:0.6"
         id="path1017-2-0-2-6-5-6"
         sodipodi:type="arc"
         sodipodi:cx="53.339649"
         sodipodi:cy="98.338211"
         sodipodi:rx="1.8676419"
         sodipodi:ry="1.8676419"
         sodipodi:start="0.87317775"
         sodipodi:end="0.87208343"
         sodipodi:arc-type="slice"
         d="m 54.539412,99.769524 a 1.8676419,1.8676419 0 0 1 -2.630747,-0.231159 1.8676419,1.8676419 0 0 1 0.230438,-2.63081 1.8676419,1.8676419 0 0 1 2.630874,0.229719 1.8676419,1.8676419 0 0 1 -0.228999,2.630936 l -1.201329,-1.429999 z" />
      <path
         style="fill:#916f6f;fill-opacity:1;stroke:none;stroke-width:5.33321;stroke-linecap:round;stroke-miterlimit:4;stroke-dasharray:5.33321, 10.6664;stroke-dashoffset:0;stroke-opacity:0.6"
         id="path1017-2-0-2-6-5-3"
         sodipodi:type="arc"
         sodipodi:cx="53.300213"
         sodipodi:cy="106.98782"
         sodipodi:rx="1.8676419"
         sodipodi:ry="1.8676419"
         sodipodi:start="0.87317775"
         sodipodi:end="0.87208343"
         sodipodi:arc-type="slice"
         d="m 54.499976,108.41914 a 1.8676419,1.8676419 0 0 1 -2.630747,-0.23116 1.8676419,1.8676419 0 0 1 0.230438,-2.63081 1.8676419,1.8676419 0 0 1 2.630873,0.22972 1.8676419,1.8676419 0 0 1 -0.228999,2.63093 l -1.201328,-1.43 z" />
      <text
         xml:space="preserve"
         transform="matrix(0.26458333,0,0,0.26458333,-12.329864,90.846551)"
         id="text58619"
         style="font-size:24px;line-height:1.25;font-family:sans-serif;letter-spacing:0px;word-spacing:0px;white-space:pre;shape-inside:url(#rect58621)"><tspan
           x="268.9043"
           y="4.765625"
           id="tspan70239">selected dof</tspan></text>
      <text
         xml:space="preserve"
         transform="matrix(0.26458333,0,0,0.26458333,-12.304861,98.898723)"
         id="text58619-4"
         style="font-size:24px;line-height:1.25;font-family:sans-serif;letter-spacing:0px;word-spacing:0px;white-space:pre;shape-inside:url(#rect58621-5)"><tspan
           x="268.9043"
           y="4.765625"
           id="tspan70241">expanded dof</tspan></text>
      <text
         xml:space="preserve"
         transform="matrix(0.26458333,0,0,0.26458333,-11.957691,107.41959)"
         id="text58619-4-6"
         style="font-size:24px;line-height:1.25;font-family:sans-serif;letter-spacing:0px;word-spacing:0px;white-space:pre;shape-inside:url(#rect58621-5-7)"><tspan
           x="268.9043"
           y="4.765625"
           id="tspan70243">affected</tspan></text>
    </g>
  </g>
</svg>
