<?xml version="1.0" encoding="UTF-8" standalone="no"?>
<svg
   viewBox="0 0 512 512"
   style="height: 512px; width: 512px;"
   version="1.1"
   id="svg6"
   sodipodi:docname="walk-or-shoot.svg"
   inkscape:export-filename="walk-or-shoot.png"
   inkscape:export-xdpi="6"
   inkscape:export-ydpi="6"
   inkscape:version="1.2.2 (1:1.2.2+202212051550+b0a8486541)"
   xml:space="preserve"
   xmlns:inkscape="http://www.inkscape.org/namespaces/inkscape"
   xmlns:sodipodi="http://sodipodi.sourceforge.net/DTD/sodipodi-0.dtd"
   xmlns="http://www.w3.org/2000/svg"
   xmlns:svg="http://www.w3.org/2000/svg"><defs
     id="defs10" /><sodipodi:namedview
     id="namedview8"
     pagecolor="#ffd4ff"
     bordercolor="#666666"
     borderopacity="1.0"
     inkscape:showpageshadow="2"
     inkscape:pageopacity="0"
     inkscape:pagecheckerboard="true"
     inkscape:deskcolor="#d1d1d1"
     showgrid="false"
     inkscape:zoom="0.4609375"
     inkscape:cx="-107.38983"
     inkscape:cy="310.23729"
     inkscape:window-width="1920"
     inkscape:window-height="1043"
     inkscape:window-x="1920"
     inkscape:window-y="0"
     inkscape:window-maximized="1"
     inkscape:current-layer="svg6" /><path
     style="fill:#ffffff;fill-opacity:1;stroke:#280b0b;stroke-width:32.1869;stroke-linecap:butt;stroke-linejoin:miter;stroke-dasharray:none;stroke-opacity:1"
     d="M 45.277296,342.10223 C 66.682896,248.3038 87.890086,252.58711 135.50839,199.27494 214.58148,110.74683 237.2827,48.229647 245.58944,37.963617 c 4.15336,-5.13302 39.37703,-12.22926 65.04733,-8.56527 25.67029,3.66399 71.92517,39.83426 92.45201,57.492 41.05368,35.315483 28.01732,46.238163 28.01732,46.238163 0,0 -75.22553,11.9636 -128.34972,68.72832 -37.07896,39.61995 -11.80903,154.68292 -11.80903,154.68292 0,0 44.47803,28.29512 95.49231,30.06686 103.63541,3.59933 96.9247,96.10695 96.9247,96.10695 l -233.02198,0.89861 c 0,0 -37.2504,-62.98207 -101.26846,-92.93894 z"
     id="path2638-3"
     sodipodi:nodetypes="csssscscsccsc" /><g
     id="path3388"
     style="fill:#ffffff;fill-opacity:1;stroke:#280b0b;stroke-width:8;stroke-dasharray:none;stroke-opacity:1"
     transform="translate(608.70082,250.43292)" /><path
     style="fill:#ffffff;fill-opacity:1;stroke:#280b0b;stroke-width:29.0136;stroke-linecap:butt;stroke-linejoin:miter;stroke-dasharray:none;stroke-opacity:1"
     d="M 197.33099,93.625459 23.9782,28.387829 81.173747,198.37139 l 19.814393,-57.7364 179.8801,177.08604 -0.80042,57.7578 108.28582,103.36523 11.10629,-89.25579 83.99265,-18.29648 -108.30343,-98.55872 -55.12182,0.83733 -174.2945,-169.14917 z"
     id="path3386"
     sodipodi:nodetypes="ccccccccccccc" /></svg>
