<?xml version="1.0" encoding="UTF-8" standalone="no"?>
<svg
   viewBox="0 0 512 512"
   style="height: 512px; width: 512px;"
   version="1.1"
   id="svg6"
   sodipodi:docname="walking-boot.svg"
   inkscape:export-filename="walking-boot.png"
   inkscape:export-xdpi="6"
   inkscape:export-ydpi="6"
   inkscape:version="1.2.2 (1:1.2.2+202212051550+b0a8486541)"
   xml:space="preserve"
   xmlns:inkscape="http://www.inkscape.org/namespaces/inkscape"
   xmlns:sodipodi="http://sodipodi.sourceforge.net/DTD/sodipodi-0.dtd"
   xmlns="http://www.w3.org/2000/svg"
   xmlns:svg="http://www.w3.org/2000/svg"><defs
     id="defs10" /><sodipodi:namedview
     id="namedview8"
     pagecolor="#ffd4ff"
     bordercolor="#666666"
     borderopacity="1.0"
     inkscape:showpageshadow="2"
     inkscape:pageopacity="0"
     inkscape:pagecheckerboard="true"
     inkscape:deskcolor="#d1d1d1"
     showgrid="false"
     inkscape:zoom="0.921875"
     inkscape:cx="106.30508"
     inkscape:cy="257.08475"
     inkscape:window-width="745"
     inkscape:window-height="481"
     inkscape:window-x="771"
     inkscape:window-y="375"
     inkscape:window-maximized="0"
     inkscape:current-layer="svg6" /><path
     style="fill:#ffffff;fill-opacity:1;stroke:#280b0b;stroke-width:32;stroke-linecap:butt;stroke-linejoin:miter;stroke-dasharray:none;stroke-opacity:1"
     d="m 31.277278,332.9781 c 21.2813,-93.25372 42.365325,-88.99527 89.707092,-141.99785 78.61389,-88.01401 101.18329,-150.168123 109.44178,-160.374534 4.12925,-5.103207 39.14836,-12.158237 64.66959,-8.515527 25.52122,3.64271 71.50748,39.602936 91.91511,57.158129 40.81528,35.110392 27.85462,45.969642 27.85462,45.969642 0,0 -74.78867,11.89411 -127.60435,68.32919 -36.86364,39.38986 -11.74047,153.78463 -11.74047,153.78463 0,0 44.21975,28.1308 94.93777,29.89226 C 473.49199,380.80246 466.23311,478.5 466.23311,478.5 l -231.08162,-4.83375 c 0,0 -37.03407,-62.61631 -100.68036,-92.39921 z"
     id="path2638"
     sodipodi:nodetypes="csssscscsccsc" /></svg>
