<?xml version="1.0" encoding="UTF-8" standalone="no"?>
<!-- Created with matplotlib (https://matplotlib.org/) -->

<svg
   height="288pt"
   version="1.1"
   viewBox="0 0 440.49393 288"
   width="440.49393pt"
   id="svg130"
   sodipodi:docname="super_1279.svg"
   inkscape:version="1.1.2 (1:1.1+202202050950+0a00cf5339)"
   xmlns:inkscape="http://www.inkscape.org/namespaces/inkscape"
   xmlns:sodipodi="http://sodipodi.sourceforge.net/DTD/sodipodi-0.dtd"
   xmlns:xlink="http://www.w3.org/1999/xlink"
   xmlns="http://www.w3.org/2000/svg"
   xmlns:svg="http://www.w3.org/2000/svg"
   xmlns:rdf="http://www.w3.org/1999/02/22-rdf-syntax-ns#"
   xmlns:cc="http://creativecommons.org/ns#"
   xmlns:dc="http://purl.org/dc/elements/1.1/">
  <sodipodi:namedview
     id="namedview132"
     pagecolor="#ffffff"
     bordercolor="#666666"
     borderopacity="1.0"
     inkscape:pageshadow="2"
     inkscape:pageopacity="0.0"
     inkscape:pagecheckerboard="0"
     inkscape:document-units="pt"
     showgrid="false"
     inkscape:snap-global="false"
     fit-margin-top="0"
     fit-margin-left="0"
     fit-margin-right="0"
     fit-margin-bottom="0"
     inkscape:zoom="0.70710678"
     inkscape:cx="6.363961"
     inkscape:cy="182.43355"
     inkscape:window-width="1920"
     inkscape:window-height="1043"
     inkscape:window-x="0"
     inkscape:window-y="0"
     inkscape:window-maximized="1"
     inkscape:current-layer="svg130" />
  <metadata
     id="metadata2">
    <rdf:RDF>
      <cc:Work>
        <dc:type
           rdf:resource="http://purl.org/dc/dcmitype/StillImage" />
        <dc:date>2022-02-14T16:24:53.291647</dc:date>
        <dc:format>image/svg+xml</dc:format>
        <dc:creator>
          <cc:Agent>
            <dc:title>Matplotlib v3.3.2, https://matplotlib.org/</dc:title>
          </cc:Agent>
        </dc:creator>
      </cc:Work>
    </rdf:RDF>
  </metadata>
  <defs
     id="defs6">
    <rect
       x="180.59631"
       y="53.864349"
       width="177.09918"
       height="39.32605"
       id="rect11433" />
    <style
       type="text/css"
       id="style4">*{stroke-linecap:butt;stroke-linejoin:round;}</style>
    <clipPath
       id="p48bf2a7043-5">
      <rect
         height="217.44"
         width="260.07529"
         x="91.36235"
         y="34.560001"
         id="rect125-3" />
    </clipPath>
    <clipPath
       id="clipPath1142">
      <rect
         height="217.44"
         width="260.07529"
         x="91.36235"
         y="34.560001"
         id="rect1140" />
    </clipPath>
    <clipPath
       clipPathUnits="userSpaceOnUse"
       id="clipPath1302">
      <rect
         style="fill:#666666;stroke:#666666;stroke-width:0.802702;stroke-linecap:round"
         id="rect1304"
         width="42.599297"
         height="40.327972"
         x="103.45691"
         y="220.49342" />
    </clipPath>
    <rect
       x="180.59631"
       y="53.864349"
       width="177.09918"
       height="39.32605"
       id="rect11433-2" />
  </defs>
  <g
     id="patch_1"
     transform="translate(-39,-18)">
    <path
       d="M 0,288 H 432 V 0 H 0 Z"
       style="fill:none"
       id="path8" />
  </g>
  <g
     id="patch_2"
     transform="translate(-39,-18)">
    <path
       d="M 91.362353,252 H 351.43765 V 34.56 H 91.362353 Z"
       style="fill:#ffffff"
       id="path11" />
  </g>
  <g
     id="matplotlib.axis_1"
     transform="translate(-39,-18)">
    <g
       id="xtick_1">
      <g
         id="line2d_1">
        <defs
           id="defs15">
          <path
             d="M 0,0 V 3.5"
             id="m2757dc7976"
             style="stroke:#000000;stroke-width:0.8" />
        </defs>
        <g
           id="g19">
          <use
             style="stroke:#000000;stroke-width:0.8"
             x="93.494118"
             xlink:href="#m2757dc7976"
             y="252"
             id="use17"
             width="100%"
             height="100%" />
        </g>
      </g>
      <g
         id="text_1">
        <!-- 76.0 -->
        <g
           transform="matrix(0.16,0,0,-0.16,75.681618,271.1575)"
           id="g36">
          <defs
             id="defs26">
            <path
               d="m 8.203125,72.90625 h 46.875 V 68.703125 L 28.609375,0 H 18.3125 L 43.21875,64.59375 H 8.203125 Z"
               id="DejaVuSans-55" />
            <path
               d="m 33.015625,40.375 q -6.640625,0 -10.53125,-4.546875 -3.875,-4.53125 -3.875,-12.4375 0,-7.859375 3.875,-12.4375 3.890625,-4.5625 10.53125,-4.5625 6.640625,0 10.515625,4.5625 3.875,4.578125 3.875,12.4375 0,7.90625 -3.875,12.4375 Q 39.65625,40.375 33.015625,40.375 Z M 52.59375,71.296875 V 62.3125 q -3.71875,1.75 -7.5,2.671875 -3.78125,0.9375 -7.5,0.9375 -9.765625,0 -14.921875,-6.59375 -5.140625,-6.59375 -5.875,-19.921875 2.875,4.25 7.21875,6.515625 4.359375,2.265625 9.578125,2.265625 10.984375,0 17.359375,-6.671875 6.375,-6.65625 6.375,-18.125 0,-11.234375 -6.640625,-18.03125 -6.640625,-6.78125 -17.671875,-6.78125 -12.65625,0 -19.34375,9.6875 -6.6875,9.703125 -6.6875,28.109375 0,17.28125 8.203125,27.5625 8.203125,10.28125 22.015625,10.28125 3.71875,0 7.5,-0.734375 3.78125,-0.734375 7.890625,-2.1875 z"
               id="DejaVuSans-54" />
            <path
               d="M 10.6875,12.40625 H 21 V 0 H 10.6875 Z"
               id="DejaVuSans-46" />
            <path
               d="m 31.78125,66.40625 q -7.609375,0 -11.453125,-7.5 Q 16.5,51.421875 16.5,36.375 q 0,-14.984375 3.828125,-22.484375 3.84375,-7.5 11.453125,-7.5 7.671875,0 11.5,7.5 3.84375,7.5 3.84375,22.484375 0,15.046875 -3.84375,22.53125 -3.828125,7.5 -11.5,7.5 z m 0,7.8125 q 12.265625,0 18.734375,-9.703125 6.46875,-9.6875 6.46875,-28.140625 0,-18.40625 -6.46875,-28.109375 -6.46875,-9.6875 -18.734375,-9.6875 -12.25,0 -18.71875,9.6875 Q 6.59375,17.96875 6.59375,36.375 q 0,18.453125 6.46875,28.140625 6.46875,9.703125 18.71875,9.703125 z"
               id="DejaVuSans-48" />
          </defs>
          <use
             xlink:href="#DejaVuSans-55"
             id="use28"
             x="0"
             y="0"
             width="100%"
             height="100%" />
          <use
             x="63.623047"
             xlink:href="#DejaVuSans-54"
             id="use30"
             y="0"
             width="100%"
             height="100%" />
          <use
             x="127.24609"
             xlink:href="#DejaVuSans-46"
             id="use32"
             y="0"
             width="100%"
             height="100%" />
          <use
             x="159.0332"
             xlink:href="#DejaVuSans-48"
             id="use34"
             y="0"
             width="100%"
             height="100%" />
        </g>
      </g>
    </g>
    <g
       id="xtick_2">
      <g
         id="line2d_2">
        <g
           id="g42">
          <use
             style="stroke:#000000;stroke-width:0.8"
             x="349.30588"
             xlink:href="#m2757dc7976"
             y="252"
             id="use40"
             width="100%"
             height="100%" />
        </g>
      </g>
      <g
         id="text_2">
        <!-- 88.0 -->
        <g
           transform="matrix(0.16,0,0,-0.16,331.49338,271.1575)"
           id="g56">
          <defs
             id="defs46">
            <path
               d="m 31.78125,34.625 q -7.03125,0 -11.0625,-3.765625 -4.015625,-3.765625 -4.015625,-10.34375 0,-6.59375 4.015625,-10.359375 4.03125,-3.765625 11.0625,-3.765625 7.03125,0 11.078125,3.78125 4.0625,3.796875 4.0625,10.34375 0,6.578125 -4.03125,10.34375 Q 38.875,34.625 31.78125,34.625 Z m -9.859375,4.1875 Q 15.578125,40.375 12.03125,44.71875 8.5,49.078125 8.5,55.328125 q 0,8.734375 6.21875,13.8125 6.234375,5.078125 17.0625,5.078125 10.890625,0 17.09375,-5.078125 6.203125,-5.078125 6.203125,-13.8125 0,-6.25 -3.546875,-10.609375 Q 48,40.375 41.703125,38.8125 q 7.125,-1.65625 11.09375,-6.5 3.984375,-4.828125 3.984375,-11.796875 0,-10.609375 -6.46875,-16.28125 -6.46875,-5.65625 -18.53125,-5.65625 -12.046875,0 -18.53125,5.65625 -6.46875,5.671875 -6.46875,16.28125 0,6.96875 4,11.796875 4.015625,4.84375 11.140625,6.5 z M 18.3125,54.390625 q 0,-5.65625 3.53125,-8.828125 3.546875,-3.171875 9.9375,-3.171875 6.359375,0 9.9375,3.171875 3.59375,3.171875 3.59375,8.828125 0,5.671875 -3.59375,8.84375 -3.578125,3.171875 -9.9375,3.171875 -6.390625,0 -9.9375,-3.171875 Q 18.3125,60.0625 18.3125,54.390625 Z"
               id="DejaVuSans-56" />
          </defs>
          <use
             xlink:href="#DejaVuSans-56"
             id="use48"
             x="0"
             y="0"
             width="100%"
             height="100%" />
          <use
             x="63.623047"
             xlink:href="#DejaVuSans-56"
             id="use50"
             y="0"
             width="100%"
             height="100%" />
          <use
             x="127.24609"
             xlink:href="#DejaVuSans-46"
             id="use52"
             y="0"
             width="100%"
             height="100%" />
          <use
             x="159.0332"
             xlink:href="#DejaVuSans-48"
             id="use54"
             y="0"
             width="100%"
             height="100%" />
        </g>
      </g>
    </g>
  </g>
  <g
     id="matplotlib.axis_2"
     transform="translate(-39,-18)">
    <g
       id="ytick_1">
      <g
         id="line2d_3">
        <defs
           id="defs62">
          <path
             d="M 0,0 H -3.5"
             id="m080b601c05"
             style="stroke:#000000;stroke-width:0.8" />
        </defs>
        <g
           id="g66">
          <use
             style="stroke:#000000;stroke-width:0.8"
             x="91.36235"
             xlink:href="#m080b601c05"
             y="249.86824"
             id="use64"
             width="100%"
             height="100%" />
        </g>
      </g>
      <g
         id="text_3">
        <!-- 36.0 -->
        <g
           transform="matrix(0.16,0,0,-0.16,48.737353,255.94698)"
           id="g80">
          <defs
             id="defs70">
            <path
               d="M 40.578125,39.3125 Q 47.65625,37.796875 51.625,33 q 3.984375,-4.78125 3.984375,-11.8125 0,-10.78125 -7.421875,-16.703125 -7.421875,-5.90625 -21.09375,-5.90625 -4.578125,0 -9.4375,0.90625 -4.859375,0.90625 -10.03125,2.71875 v 9.515625 q 4.09375,-2.390625 8.96875,-3.609375 4.890625,-1.21875 10.21875,-1.21875 9.265625,0 14.125,3.65625 4.859375,3.65625 4.859375,10.640625 0,6.453125 -4.515625,10.078125 -4.515625,3.640625 -12.5625,3.640625 h -8.5 v 8.109375 h 8.890625 q 7.265625,0 11.125,2.90625 3.859375,2.90625 3.859375,8.375 0,5.609375 -3.984375,8.609375 -3.96875,3.015625 -11.390625,3.015625 -4.0625,0 -8.703125,-0.890625 Q 15.375,64.15625 9.8125,62.3125 v 8.78125 q 5.625,1.5625 10.53125,2.34375 4.90625,0.78125 9.25,0.78125 11.234375,0 17.765625,-5.109375 6.546875,-5.09375 6.546875,-13.78125 0,-6.0625 -3.46875,-10.234375 -3.46875,-4.171875 -9.859375,-5.78125 z"
               id="DejaVuSans-51" />
          </defs>
          <use
             xlink:href="#DejaVuSans-51"
             id="use72"
             x="0"
             y="0"
             width="100%"
             height="100%" />
          <use
             x="63.623047"
             xlink:href="#DejaVuSans-54"
             id="use74"
             y="0"
             width="100%"
             height="100%" />
          <use
             x="127.24609"
             xlink:href="#DejaVuSans-46"
             id="use76"
             y="0"
             width="100%"
             height="100%" />
          <use
             x="159.0332"
             xlink:href="#DejaVuSans-48"
             id="use78"
             y="0"
             width="100%"
             height="100%" />
        </g>
      </g>
    </g>
    <g
       id="ytick_2">
      <g
         id="line2d_4">
        <g
           id="g86">
          <use
             style="stroke:#000000;stroke-width:0.8"
             x="91.36235"
             xlink:href="#m080b601c05"
             y="36.691765"
             id="use84"
             width="100%"
             height="100%" />
        </g>
      </g>
      <g
         id="text_4">
        <!-- 46.0 -->
        <g
           transform="matrix(0.16,0,0,-0.16,48.737353,42.770515)"
           id="g100">
          <defs
             id="defs90">
            <path
               d="M 37.796875,64.3125 12.890625,25.390625 h 24.90625 z m -2.59375,8.59375 h 12.40625 V 25.390625 h 10.40625 V 17.1875 H 47.609375 V 0 h -9.8125 V 17.1875 H 4.890625 v 9.515625 z"
               id="DejaVuSans-52" />
          </defs>
          <use
             xlink:href="#DejaVuSans-52"
             id="use92"
             x="0"
             y="0"
             width="100%"
             height="100%" />
          <use
             x="63.623047"
             xlink:href="#DejaVuSans-54"
             id="use94"
             y="0"
             width="100%"
             height="100%" />
          <use
             x="127.24609"
             xlink:href="#DejaVuSans-46"
             id="use96"
             y="0"
             width="100%"
             height="100%" />
          <use
             x="159.0332"
             xlink:href="#DejaVuSans-48"
             id="use98"
             y="0"
             width="100%"
             height="100%" />
        </g>
      </g>
    </g>
  </g>
  <g
     id="line2d_5"
     transform="translate(-39,-18)">
    <path
       clip-path="url(#p48bf2a7043)"
       d="m 303.06965,69.994175 1.05596,0.280048 -0.3573,-0.02327 0.47758,0.254287 0.20366,0.290611 0.0163,0.423642 -0.284,0.39246 0.31249,-0.09343 -0.37227,0.107631 0.34531,0.618091 -0.17092,-0.229578 -4.77112,-1.395371 -0.73502,-0.01767 -0.45888,0.768242 0.32633,0.151448 0.61296,-0.306915 0.21875,-0.46593 -0.007,-0.360483 0.0757,0.116066 0.12066,1.062036 -0.0997,0.414109 -0.0317,0.648763 -0.77598,-0.525635 -0.57397,-5e-5 -0.44241,-0.261013 -0.69077,-0.07859 -0.21542,0.238285 0.10064,0.157507 0.11159,0.255849 -0.54327,0.303249 -0.083,0.434371 0.002,0.359855 -0.96055,-0.686129 0.10244,0.144349 0.85992,1.487 0.18196,0.290603 -0.24299,-0.210294 -0.0732,-0.173856 0.0618,-0.01391 -0.13157,0.636963 -0.17777,-0.201522 -0.24587,0.246725 -0.86951,0.448323 -1.04068,0.375294 -0.002,-0.509679 0.34667,0.04055 0.20598,0.22856 -0.33288,0.591641 -1.04939,0.09076 -0.33704,0.754721 -0.16585,0.767244 -0.65531,0.198328 -0.33682,0.351432 -0.34296,0.198641 -0.0984,0.726489 -0.35562,-0.03976 -0.40077,-0.161355 -0.097,0.158665 0.22999,1.352754 -0.0217,-0.0081 -0.084,0.01571 -0.23085,0.925804 -0.0333,-0.35346 -0.12499,-0.03281 -0.44946,0.200794 -0.20372,0.108261 -0.66107,-0.227884 -0.50548,0.287454 -0.18442,-0.516022 -0.5301,-0.256739 -0.51309,-0.218716 -0.0251,-0.285892 0.3454,-0.07138 -0.002,0.250671 -0.30901,0.420356 0.29043,-0.0037 0.28369,-0.134573 -1.10413,0.82097 -0.40715,-1.679045 0.49988,1.012132 -1.10099,-0.524346 -0.67093,0.06787 0.0701,0.07626 -0.27497,0.309695 -0.35123,-0.138148 -0.38398,-1.852031 -0.52947,0.01597 -0.51515,0.654474 -0.35816,-0.01999 -0.23485,-0.249554 -0.22066,0.07498 -0.90582,1.064131 -0.7103,0.400796 -0.73036,0.03403 -0.32286,0.451783 -0.30839,0.774982 0.12206,0.678383 0.27138,0.510237 0.81968,3.402764 0.27524,1.627461 -0.0333,0.718049 -0.19893,0.550966 -0.32078,0.765297 -0.0902,0.894984 -0.0294,0.41828 -0.22226,0.718129 0.29562,0.216585 0.27468,0.385862 -0.29117,0.113266 0.44185,-0.0059 -2.65221,-1.876862 0.27747,0.344376 0.44221,0.773422 -0.16956,0.118396 -0.41839,-0.09505 -0.058,0.427889 0.30214,1.755075 -0.108,1.441236 -0.42763,0.237055 -0.66506,-0.06775 -1.35789,-0.791661 -0.79629,-0.14365 -1.16899,-0.02947 -0.24512,-0.06084 -0.15153,0.505328 -0.97166,-0.460886 -0.0904,0.214109 0.43988,0.97521 -0.39407,0.05383 -0.14617,0.350505 -0.35507,0.240576 -0.34535,-0.252923 -0.35244,0.0084 -1.86994,-1.809028 -0.51114,-0.107141 -0.65895,0.357371 -0.81237,-0.0097 -1.50907,-0.443188 -0.0227,0.469909 -0.44826,-0.01342 0.25291,1.615865 -0.10585,0.0642 0.0129,0.744329 -0.57497,2.039569 -0.0391,0.231275 -0.51976,0.470451 0.5987,0.74914 -0.51024,-0.10045 0.14048,0.70395 0.0312,0.0658 -0.12598,-0.0159 -0.17791,0.14042 -0.36969,0.5591 -0.28577,-0.0163 -0.18901,0.39022 0.0866,-0.32116 -0.0426,-0.0421 0.30883,0.95199 -0.84172,0.0334 0.65825,0.86981 -0.48478,0.11242 0.51999,0.28059 -1.45893,-0.6727 -0.27939,0.0868 0.41567,0.19206 -0.97283,0.32418 -1.27647,0.92494 0.18454,-0.1168 0.18585,0.31745 -0.73321,0.63428 -3.34548,-0.284 -0.8172,0.78184 -0.50427,1.02683 -0.61434,0.4294 -0.57493,0.0967 -0.25445,0.23833 -0.23191,0.43992 -0.47017,0.19365 -0.2129,0.035 -0.45887,0.72839 -0.23848,0.41476 0.10743,0.75079 0.27581,1.00732 -0.19916,0.92173 0.007,0.96344 -0.10063,0.69607 0.0773,0.5298 1.09819,2.37599 0.73126,1.92398 0.52327,2.01856 -0.31172,0.0258 -0.47592,-0.17736 0.17447,0.016 -2.08467,-0.0505 0.11635,0.87354 -0.21447,0.29761 -0.66081,0.0224 -1.39843,-1.31262 -1.22504,-0.24091 -0.49584,-0.23808 -0.0805,0.63121 -0.14629,0.2404 -0.20066,0.11182 -0.88012,-0.005 -0.43945,0.82978 -0.33666,0.73405 -0.2687,0.80732 -0.0363,0.20745 -0.18157,0.0686 -0.37866,-0.0767 -1.03364,0.0741 -1.2798,-1.01744 -0.70985,0.0124 -0.90826,-0.32697 -1.54876,-0.0451 -1.06594,-0.28091 -0.57945,0.19649 -0.43913,0.57355 -0.7012,0.75797 -0.82142,0.79828 -0.36037,0.0555 -0.7148,0.52266 -0.68648,0.70671 -3.05682,1.75545 -0.31797,0.53781 -0.0946,0.36769 0.082,0.45545 -0.0596,0.41486 -0.75641,0.18958 -0.89659,0.0654 -0.22695,0.158 0.17552,0.25582 -0.0437,0.0282 -1.80576,1.74284 -1.06183,0.0651 -0.46175,0.31268 0.004,0.18985 -0.44119,-0.0278 0.94814,0.97562 0.0679,0.40898 -0.15515,0.45392 -0.56769,0.21049 -0.14299,0.35912 0.0176,0.37081 -0.51064,0.63872 -0.0647,1.25714 -0.0995,1.27971 -0.18583,2.6313 -0.24634,1.13157 -0.2504,0.12366 -0.25431,9.5e-4 0.0701,0.0946 0.31855,0.40899 0.0978,0.39414 -0.0682,0.25204 1.17999,1.97108 -0.77842,-0.63926 0.11556,0.87718 0.79715,1.88494 0.10277,1.36131 -0.1964,1.04279 -0.27244,0.22348 -0.26944,-0.38012 0.0731,-0.0388 0.5789,0.14365 -0.50709,0.55287 0.081,0.19678 -0.26421,0.49904 -0.75194,0.83291 0.0198,0.47225 -1.02251,0.0548 0.24763,1.09865 0.40478,0.40954 -0.36295,-0.0642 -0.16468,0.35461 -0.90733,1.03798 0.0839,0.88322 -0.14865,0.84835 0.16955,0.84847 -2.1506,-0.87458 -1.18591,1.35271 -0.95245,0.70397 -1.23884,-0.26612 -2.47866,0.70801 -1.17368,0.65964 -1.42505,1.06974 0.10758,0.25015 -0.96579,0.49465 -0.34798,0.17274 -0.80763,-0.29821 -0.0781,0.28353 -0.009,0.48886 0.25254,-0.17407 -0.71919,0.31409 -0.0166,0.4833 -0.16567,0.64223 -0.75009,0.23663 -1.12005,0.0953 0.0197,0.13463 -0.56167,0.21671 0.0443,0.0681 -1.05668,0.91911 -0.39888,0.69436 0.4959,-0.15026 -0.10253,0.50925 0.57392,0.23355 0.48365,0.46327 -0.70149,0.2594 0.26897,-0.1784 -0.10208,0.0141 -0.16488,0.71115 -0.29397,0.61564 -0.26233,0.14611 -0.95526,0.009 -1.08657,0.0425 -0.68392,0.49938 -0.3292,0.34145 -0.39562,-0.0817 -0.58907,0.59145 -0.64785,0.30147 -0.75573,0.82889 -0.32722,0.26484 -0.12471,0.29654 -0.53695,0.42676 -1.16851,-0.62223 -0.27742,0.246 -0.10206,0.41037 -1.25366,2.00182 -0.63559,0.33547 -1.33675,0.70352 -0.29828,0.55992 -0.3991,-0.0212 -0.42256,-0.16788 -0.52795,-0.47058 -0.77812,-0.86918 -0.29301,-0.04 -0.82832,0.34429 -0.49804,-0.0445 -0.34159,-1.15002 -0.0515,-0.52714 -0.39196,-0.7041 -1.2166,0.62214 -0.93661,-0.0224 -1.26507,-0.52614 0.0673,-0.15152 -0.0904,-0.14005 -0.97184,-0.0427 -1.24366,-0.0812 -0.43069,-0.21991 -0.98313,-1.15628 -1.16223,-0.42059 -0.2093,-0.36381 0.0223,-0.3387 -0.0455,0.31783 0.76539,0.64442 -0.2524,0.53483 0.65608,0.59516 -1.88877,-2.27427 -0.32548,0.55266 -0.17875,0.82772 -0.49689,0.72867 -0.35212,0.12283 -0.63569,-0.30372 -0.33633,-0.51679 0.6477,0.83486 0.15181,0.17859 -0.61922,-0.12396 -0.65569,-0.0721 -0.0759,0.26976 -0.0673,0.0498 0.0953,-0.0829 0.0659,-0.37975 -0.31044,0.74636 -0.17473,0.80279 -0.39068,0.0886 -0.67204,-0.0794 -0.2118,0.17218 -0.12167,0.56673 -0.0915,0.19303 -0.23264,-0.0925 -0.0467,0.14291 -0.36678,-0.0807 -0.016,0.17693 -0.21323,-0.14732 -0.0281,0.0797 0.26959,-0.24924 -0.69326,0.57197 -0.44574,0.10976 -0.54389,0.29652 -0.64595,0.84769 0.14561,0.46983 0.53794,0.84406 -0.17733,-0.20074 0.13982,-0.0441 -0.31121,-0.45616 -0.69575,0.18858 -0.1951,-0.0778 0.40763,-0.49213 -0.3666,-0.46768 -0.12557,0.20862 -0.57552,-0.26122 0.57617,1.14849 -0.14655,0.0834 -0.25795,-0.37567 -0.11473,-0.0462 -0.14406,0.21137 -0.37164,0.078 0.33346,-0.0503 0.0564,0.46365 0.0466,0.2198 -0.0522,-0.30739 -0.24234,-0.0717 0.0963,-0.25692 0.005,0.26621 0.27326,0.0147 -0.23291,0.0392 -0.10676,0.24524 0.0778,-0.078 0.1544,0.19928 -0.45457,-0.0269 -0.9913,0.60612 -0.017,0.25932 0.33755,0.58532 0.0568,0.26016 -0.18353,-0.81275 0.0859,0.704 -0.10095,0.85898 -0.0658,-0.38712 -0.0329,-0.2929 0.0233,0.75663 0.35562,0.8104 -0.24174,0.0713 -0.33294,-0.0912 -0.14249,0.18379 0.0889,0.40374 0.15016,1.67279 -0.0166,-0.13879 1.42761,-0.90492 -0.18214,0.55849 0.29772,0.22402 -0.46707,0.29621 0.15038,-0.50501 0.71415,0.7147 -0.53969,-1.39831 1.92525,0.53334 -1.43164,-0.52121 1.44717,1.41331 1.455,-0.94411 -3.28826,0.62355 -0.22651,2.62476 -0.77077,-0.13914 0.4425,-0.0738 -0.76102,-1.33465 2.72774,-1.88774 -10.59618,4.56455 -2.85529,-0.0916 0.52073,-0.81469 0.63263,0.16763 -1.56872,0.2169 -0.23084,-0.64142 0.18452,-0.11135 -2.00463,2.16392 -1.85618,0.19143 -1.19088,0.74968 -0.20669,-0.2684 0.78807,-0.0925 -0.2753,-1.13647 -0.48727,0.91492 0.0783,-0.13237 0.0964,0.11181 -0.32474,0.0238 0.20824,0.0264 -0.5308,0.25796 -0.078,0.41921 0.36674,0.52366 0.0151,0.64124 -0.23611,0.4015 0.19378,-0.0368 0.21418,0.15452 0.71045,-0.0144 -1.38333,0.5002 2.6179,0.342 -1.03707,-0.74222 -0.67676,0.88934 -0.13604,-0.4617 0.19662,-0.37399 0.78576,0.51306 -1.00318,-0.0984 0.25466,0.2703 -0.0386,0.64411 0.93923,-0.25842 -0.58669,0.34689 -0.66011,0.60402 0.82822,-0.28653 2.08943,-1.9727 -1.04238,0.52507 0.0372,-0.47175 -0.73345,0.23692 -0.0825,0.21832 0.0238,0.32594 -0.23631,0.036 -0.9806,0.6067 -0.6535,0.0183 -0.17823,0.56384 -0.14273,1.07665 -1.33159,-0.38107 0.41737,-0.13764 0.69554,-0.0774 -0.31084,0.39658 0.0933,1.36776 -0.64812,-0.79551 0.25,-0.88905 2.2032,-0.8048 0.88062,0.42067 -0.25427,-0.0406 0.38562,1.28597 -0.57479,0.006 -0.0231,-0.80006 0.6957,0.11983 -0.78624,0.44343 -0.53116,0.53466 -1.20409,0.97305 0.91852,-0.2646 -0.42584,-0.6762 0.71452,0.14984 0.15866,-0.0828 -0.39419,-0.0477 -0.39195,1.38869 -0.67782,1.1046 0.20277,0.33595 -0.0517,-0.50088 0.0803,0.77862 0.44232,-0.0659 -0.59214,-0.0443 0.3539,0.64609 -0.51462,0.0824 0.32546,0.58783 0.19291,0.051 -0.36603,-0.52418 0.79438,0.82752 -0.17363,0.14033 0.0506,-0.91449 0.0306,-0.0356 -4e-5,0.15677 -0.3418,-0.16129 0.13817,-0.16101 1.72642,0.80133 0.55404,0.13351 -0.03,0.0485 -0.63343,0.31981 -0.11527,-0.16928 -0.0407,-0.75958 0.30128,0.1732 0.30002,-0.39564 -1.76987,0.44187 -0.68595,3.02536 2.44885,1.9692 0.0633,-0.56962 2.31793,0.78929 2.60696,0.23321 3.47185,-1.18502 -0.78314,-2.1267 2.52453,-1.9925 0.96944,0.31599 -2.48546,-0.58375 0.38686,0.19977 -0.19143,-0.0609 0.14808,0.22423 -0.25765,-0.0194 0.74067,0.44661 0.3626,0.53101 -1.49425,5.81798 1.309,-0.38217 -0.27863,-1.45471 -1.56705,3.39668 -5.69154,-1.09851 -0.98681,-2.89951 1.41246,1.25158 -0.81314,-1.37483 -0.32615,0.006 0.30739,0.0579 3.99742,0.17714 0.18427,-1.58849 -0.25862,-0.36199 -0.53681,0.57027 -0.65684,1.15787 -0.89138,-0.57643 -1.54947,0.99261 0.13693,0.0346 1.88267,-0.99584 -0.57098,0.1152 1.57046,1.50252 -0.41954,0.40594 -0.60351,-1.95807 -0.54077,0.68974 0.0574,0.23055 -0.47872,0.90893 1.01621,-1.31168 1.03431,1.70475 -0.22182,-2.25681 -3.66801,1.79151 0.35377,-0.0583 0.79436,0.91456 -0.30545,0.15654 0.33541,0.14314 -0.0339,0.12881 0.53298,-0.43786 0.32024,0.47854 0.10971,-0.18169 -0.65688,-0.42757 -0.65157,0.51747 1.42199,-0.0597 -0.0725,0.79087 -0.50829,-1.06984 0.0581,0.22953 -0.17809,-0.18907 -0.0289,-0.2469 0.56364,0.10794 -0.11266,0.19043 0.10759,-0.13723 1.93301,0.0479 -0.36102,-0.0177 0.24974,0.15091 -0.4599,0.35901 -0.3776,0.66555 1.45435,-0.66664 -0.26576,-0.008 0.84263,0.45513 -3.72003,-0.0531 0.43082,0.2639 0.51298,0.15848 0.0832,-0.15929 0.0338,0.36488 0.39851,0.63097 0.29215,-0.0889 0.99548,-0.11424 0.0756,-0.35098 -0.12621,0.27452 -0.0994,0.4615 0.10312,0.5819 -0.21039,0.42224 0.11269,0.0722 -0.0536,0.10664 0.10021,0.0894 -0.35426,0.40483 -0.35417,0.31278 0.54363,-0.23 -0.87375,0.85836 -1.74356,0.28862 -1.4986,-10e-4 -0.63969,1.11259 0.50359,-0.9311 0.10842,0.55053 0.90437,-0.26647 -0.28115,0.72284 -0.13519,-0.75511 0.51603,-1.42661 -0.0346,-0.30199 0.1358,-0.52261 -0.24696,0.15245 0.0589,0.0908 -0.46463,0.78393 -1.17193,-0.9494 0.3253,0.38262 -0.4196,-0.26676 0.9846,0.56624 -0.20472,-1.20781 0.11604,0.59194 -1.43821,-0.21164 -0.96537,-1.69719 -1.11024,1.29348 -0.48783,-0.3706 -1.07751,0.59359 0.42827,1.14801 0.24717,-1.09392 1.29843,-0.12638 -0.12927,0.0829 -0.71078,0.48885 0.24112,-0.0773 -0.30821,-0.3941 1.62316,1.07379 -0.14999,0.29659 -1.09521,0.0562 -0.62109,-1.02778 -0.17517,-1.4096 0.341,-0.0695 -0.18362,-0.18679 0.55638,0.20281 -0.40469,-0.42435 0.22757,-0.19764 -0.43305,-0.24949 1.27893,0.17771 -0.59235,-10e-4 -0.0949,-1.44907 -0.50167,1.50627 1.00588,-0.52965 0.29803,-2.31792 0.21477,0.41729 0.51187,-0.16394 -0.23025,0.007 -0.47293,-0.23992 0.28665,-0.0211 -0.0412,-0.0585 -1.47004,-1.24337 -1.70509,-0.21836 1.36774,1.20636 -0.64928,0.68326 -0.76168,-0.74809 1.15223,-0.0378 -0.83011,-0.47206 -0.90366,-2.02064 0.078,-1.06348 0.37262,0.0603 -0.54165,-0.89989 -0.12294,-0.006 0.10825,0.42848 0.44207,0.20761 0.15598,-0.0859 0.11116,-0.19286 0.47038,-0.19661 -0.49503,0.14196 -0.0428,-0.0953 0.29795,0.22069 -0.0757,0.30566 -0.29551,0.27622 0.19806,0.009 0.5808,-0.15511 0.14351,-0.38552 1.3971,-0.21456 -1.69439,1.6622 -0.12635,-0.2645 -0.43025,-0.49795 1.88759,-0.66017 -1.94366,-1.31772 0.16016,-0.77617 -0.39667,-0.18285 0.22875,0.33881 -0.59362,-1.00481 -0.12874,0.45107 -0.0785,-0.11431 -0.25218,-0.36313 -0.15785,-0.27279 -0.24394,-0.48889 -0.36758,-0.12298 0.11134,-0.0337 -0.10976,-0.21638 0.11673,-0.33517 -0.0611,-0.15302 0.10279,-0.002 -0.72084,-0.058 1.19732,0.37127 -0.43775,0.0143 0.39197,0.22702 0.24307,0.48401 -0.64081,-0.2219 -0.32549,-0.66996 0.28006,0.29541 -0.3575,-0.0318 -0.0769,0.81864 0.26993,0.0182 -0.24278,-0.31461 -0.33184,0.36548 -0.18325,-0.11472 0.16694,0.22257 0.0696,-2.99922 -0.59909,0.91145 -0.9653,-0.9121 -0.20031,0.57234 -0.56184,-0.24312 -1.06825,0.3978 -1.02471,2.46681 -0.13075,-2.1682 2.68601,6.70961 -1.48708,0.81239 -1.54906,3.32502 0.93317,0.97022 6.3409,1.67494 4.89341,2.13 1.16251,-0.33626 -4.92362,-1.42192 1.38324,-0.62275 1.23633,0.7149 2.40008,0.15111 0.46137,-0.0845 -0.13791,0.0224 0.26266,0.1879 -0.86828,-0.46167 0.52572,0.48923 -2.01444,-0.46658 -2.37948,-0.0907 0.31044,-0.10167 -0.23337,0.0752 -1.07233,0.50429 -2.55097,-0.94395 -1.98816,-1.69867 -1.81026,-0.0267 -2.1017,-1.58146 0.10832,-0.29198 0.75203,-0.80757 0.59705,0.24284 -0.40654,-0.59544 0.82174,0.11602 -0.6633,-2.14889 -0.37257,0.54342 -0.36724,0.13096 0.10694,0.50691 -0.0383,-0.34958 -0.40383,-0.47587 -1.57865,2.07871 -1.7266,-1.49798 0.78976,-0.79317 3.90036,-3.48372 -3.51167,-3.28815 -1.91326,-5.05134 -2.24141,-0.53895 0.19408,-1.59281 1.96067,-0.88644 -3.20271,2.51988 6.57416,-0.66239 0.35825,-3.84441 -1.48113,0.90895 2.08464,0.74368 -0.15841,-0.99931 -1.2139,-2.38258 -5.29585,-1.97367 -0.18544,0.20783 2.23207,-0.5445 -2.05228,-1.29346 -0.15792,0.5309 0.45489,3.21833 -1.40177,0.59624 -0.0103,0.47218 0.95571,2.8624 4.24847,-0.6827 0.36154,-0.19827 0.7642,-0.77251 -1.51904,1.26165 -0.4862,-1.0147 0.70441,1.04039 0.72385,-1.03282 -1.73072,0.47804 0.58004,0.30765 -1.09775,1.152 0.81517,-0.56514 -0.9332,0.45827 1.12959,-1.18453 -1.0347,0.88306 0.50683,0.14117 0.57639,-0.0212 -0.53111,0.27292 -0.38465,-0.66887 0.90202,-0.49641 -0.73358,1.35988 0.28318,-0.18727 0.58996,-0.0703 -0.36235,0.068 0.21724,0.64297 -0.26291,-0.23292 0.53635,0.41863 0.65721,0.26894 -0.67883,0.062 0.0272,0.26649 0.40784,0.52912 -0.0696,0.10791 0.5443,0.65813 -0.87441,-0.36827 -1.91367,-2.20287 4.18141,-1.78241 0.93811,0.85176 -0.40022,-0.21817 0.33624,0.61254 2.20724,-1.81971 0.0334,-0.22285 -1.88709,-0.56979 1.96658,-0.0183 -2.26678,1.33091 0.15509,0.8679 0.34589,-1.28547 1.23368,1.54715 0.21301,-0.18184 -0.2698,0.40595 0.93723,-0.79039 -0.91436,0.99575 -1.50536,-0.48868 1.67442,-0.48636 -0.38554,1.11365 0.245,-0.59244 -0.0127,0.36474 0.72193,0.68967 -5.32276,-1.96317 0.94671,-3.73963 2.05125,-0.28708 -0.90503,-0.53592 -1.81884,2.14107 2.0795,1.71817 3.56653,-1.56962 -1.97342,-0.1751 1.43914,-2.20053 -1.8674,-1.10073 -4.19447,0.55729 2.17144,0.80612 -0.58948,0.71546 3.00254,-1.33596 -2.40436,-0.85869 -0.15619,0.69699 1.62048,-0.93172 -1.92645,1.91785 2.32115,2.38726 1.47455,0.26437 -1.54106,0.13033 0.38415,-0.42156 1.04283,-0.26808 -2.34845,0.55216 -0.0576,-0.98517 1.34491,0.20481 -1.67386,-0.51008 1.97795,1.42557 -1.59089,-1.18513 0.68198,-0.11653 -0.24555,0.17041 -1.01019,-0.3562 0.8617,0.22269 -0.37694,-0.95573 -1.06648,0.22061 1.11131,-0.31135 0.84335,0.73492 -0.25303,0.32434 -0.47043,-1.50614 -0.53661,0.40784 0.53009,-0.19651 0.55663,1.15178 -0.26426,-0.96899 -0.0632,1.14625 -0.19003,-0.18086 -0.0871,0.11759 0.0244,0.20801 -0.21096,0.45948 -0.83974,-0.4261 0.75997,-0.41939 0.49998,1.93205 -0.25586,-5.38474 -0.54354,-0.22503 -0.39188,-0.0153 1.35458,-0.65162 -1.55067,3.32349 1.33765,-1.58095 0.59372,1.81153 -2.85961,-1.21306 1.93554,-0.87493 0.67276,0.67558 -0.98702,1.53585 -0.72588,-0.81672 0.69161,-0.12209 -0.64275,-0.54002 0.0828,0.17609 0.24283,0.96217 -1.07965,-0.8751 -0.30194,1.56209 -1.17679,-0.20531 -0.0396,-0.5016 -0.45087,-0.56471 -0.0808,1.11945 -0.47813,-0.46169 -0.96371,2.73751 0.0572,0.32694 -1.71047,1.43212 0.84889,-0.25013 -0.12631,-0.16261 -0.58705,-0.35829 -0.98794,-0.11684 0.83878,-0.0782 -0.0487,1.12542 -0.53489,-0.17337 -0.0134,1.45292 -0.82956,-0.74228 0.42747,-0.34984 0.61313,-0.71061 0.34371,-1.29435 1.41664,-0.85052 0.3629,-0.62799 0.0448,-0.76206 0.13929,-0.28066 0.26523,-0.18564 0.0903,-0.51169 -0.25987,-0.47692 -0.33653,-0.11084 -0.12602,-0.0495 0.0155,-0.0318 0.16435,-0.1025 -0.11312,0.2019 0.51091,-0.12415 0.37698,0.0119 0.0938,0.11469 -0.0724,0.2101 0.22339,0.41734 0.79595,0.19718 1.20499,0.95949 0.6075,0.35019 0.63456,0.23082 0.26461,0.42242 0.11358,0.69649 0.48868,0.0907 -1.87126,1.8825 0.36784,1.46727 -0.0885,1.35512 0.22814,0.35136 0.57612,0.44101 0.28867,0.36842 0.12882,0.0318 0.15189,-0.33432 0.18233,-0.48887 0.26117,0.10488 0.43601,0.33128 0.43153,-0.41548 0.76923,-0.71825 0.33602,-0.0699 1.77695,0.1668 1.5117,0.57044 2.229,0.54587 1.88644,0.59145 0.78597,0.0579 0.74397,0.45441 0.58227,0.29465 0.28411,0.15576 0.1212,0.0939 0.53124,0.22027 -0.23275,0.007 0.2412,0.16155 0.0208,-0.31948 1.66775,0.67297 -0.12118,-0.0472 0.34267,-0.0652 0.21152,0.21703 0.74506,-0.0451 0.45967,-0.35482 0.4507,-0.30721 1.34145,-0.47696 0.5585,-0.60591 1.14982,0.0168 0.14919,-0.34322 0.19735,-0.45216 0.11268,-0.30198 -0.0551,-1.31243 -0.12475,-3.13091 -0.0663,-2.44518 -0.007,-2.02338 0.26142,-0.59749 0.33701,-0.48975 0.56551,-0.56264 0.82422,-0.31548 0.32552,-0.35735 0.67972,-1.60839 0.17588,-0.82462 0.75746,-2.36281 0.53892,-0.75933 0.46647,-0.28267 0.97319,-0.49129 1.07641,-0.61351 1.11375,-0.36671 0.24726,0.0112 0.90889,0.37339 0.0598,-0.47201 0.10016,-0.0611 0.6711,0.23068 0.57892,0.0935 0.15293,-0.0599 -0.0827,-0.41881 -0.003,-0.28362 0.26255,-0.22478 0.29158,-0.0675 0.55735,0.0376 0.27178,-0.38916 0.40215,-0.54597 0.59122,-0.59116 0.14857,-0.63726 0.18486,-1.0824 0.38521,-0.78223 0.79185,-1.10706 0.20028,-0.29506 0.1897,-0.66836 0.48459,-0.47873 1.04481,-0.73352 1.62309,-0.54452 1.13449,-0.40532 0.40943,-0.34213 0.24807,-0.70068 0.12171,-0.41322 0.60077,-0.91903 0.26965,-0.43008 0.007,-0.82306 0.11241,-0.0513 0.37037,0.14472 0.001,-0.23886 0.12571,-0.15756 0.18171,-2.37073 -0.13137,-1.05224 -0.32024,-0.74041 -1.79151,-3.46171 -0.90074,-2.71513 0.0222,-0.69145 -0.29617,-0.56905 -0.52372,-0.6433 -0.8728,-0.58958 -0.43792,-0.67286 -0.29718,-0.76048 -0.18726,-0.90229 -0.0226,-0.0673 0.0446,-0.31709 -0.24461,-0.50994 0.0808,-0.22879 0.2065,-0.14186 0.14932,-0.26292 -0.29941,-0.34276 -0.12569,-0.0405 0.17906,0.12026 v 0"
       style="fill:none;stroke:#1f77b4;stroke-width:1.5;stroke-linecap:square;stroke-opacity:0.5"
       id="path105" />
  </g>
  <path
     clip-path="url(#p48bf2a7043)"
     d="m 303.06965,69.994175 1.39771,2.250075 -4.94204,-1.624949 -2.48937,1.266842 -0.59759,2.571866 -2.38602,1.277845 -1.48649,2.084291 -2.46853,1.645098 -1.63497,1.913911 -2.76567,-1.661234 -2.39892,-0.903531 -4.29679,3.058399 1.32616,5.615769 -0.3858,3.906641 -0.0609,1.105961 -2.22685,-1.383606 0.31061,2.674261 -1.80459,1.904664 -2.65402,-0.609057 -1.91412,1.817831 -2.56773,-2.053598 -2.60721,-0.0212 -1.64075,3.949016 -1.26156,3.21818 -0.38867,0.67272 -3.65652,3.65186 -3.34548,-0.284 -2.32112,2.53391 -1.66964,1.28198 -0.21907,5.43812 1.4127,3.27888 0.62903,1.80579 -2.38685,1.04783 -3.3824,-0.36003 -3.25897,2.39513 -1.21936,0.98992 -3.18844,-1.3682 -2.32417,-0.28976 -3.54309,3.00512 -0.75976,0.60606 -2.65765,1.48704 -1.74162,2.38003 -2.41009,1.66925 -1.75479,0.89632 -0.34728,3.32816 -0.5433,2.56461 -0.18415,3.03703 -0.27987,1.88824 1.24612,4.34598 -0.49496,2.77342 -1.93344,2.18759 -0.78255,2.8366 0.10479,2.58004 -2.68849,-0.22269 -2.83931,1.13867 -2.47866,0.70801 -7.0812,4.72929 -1.90373,1.73401 0.4532,2.45699 -2.74785,0.66799 -2.40593,1.59651 -2.05428,1.89691 -2.75188,1.65586 -1.52771,0.94351 -2.5384,-0.61439 -2.06394,-1.48211 -3.78677,-0.47328 -2.51969,-0.75236 -2.31845,-1.6171 -4.24649,2.6034 -1.33359,0.73723 -1.52952,0.90977 -1.1505,2.23064 -3.12211,0.93984 0.57023,2.9332 1.33471,2.29393 2.85609,-0.91698 -3.28826,0.62355 -0.22651,2.62476 1.63845,-3.43532 -10.59618,4.56455 -2.85529,-0.0916 -2.46631,0.98099 -3.04706,0.94111 1.76687,2.63627 -2.71239,0.56926 -0.75722,2.80872 1.80508,-2.48936 -0.14117,0.29426 -1.27051,2.64837 0.33736,2.72142 2.41647,0.98409 -2.67397,2.68424 2.44885,1.9692 4.98816,0.45288 3.47185,-1.18502 1.74139,-4.1192 -0.15176,0.57263 -1.66938,6.29893 -3.3688,1.00676 -2.85942,-0.54547 -0.98681,-2.89951 4.57798,0.11752 -1.23629,0.0646 -2.47256,0.12923 3.01908,0.65646 -3.82446,0.20486 2.14815,1.96481 2.91681,-0.12893 -3.72003,-0.0531 0.23174,0.092 2.31745,0.91987 -0.93878,3.04739 -3.24216,0.28757 -2.34907,-3.58275 -2.67558,1.51647 2.68989,1.10183 -2.04146,-2.08464 1.49752,-3.53892 -2.90621,-1.52056 -0.42418,-2.83797 0.10757,-0.008 2.47408,-0.18796 -4.52664,-4.04645 -1.71334,-1.90196 -2.85511,3.19383 2.55526,4.54141 -3.03614,4.13741 7.27407,2.64516 4.89341,2.13 -3.76111,-1.75818 5.48102,0.15879 -1.53725,-0.10647 -4.8476,-0.44602 -1.77311,-0.23308 -1.98816,-1.69867 -3.91196,-1.60812 1.2093,-3.48502 -2.65369,2.43455 2.96352,-5.77487 -3.51167,-3.28815 -1.91326,-5.05134 -2.04733,-2.13176 5.33212,0.97105 0.35825,-3.84441 -6.06465,-3.70293 -1.11045,2.71534 0.94544,3.33458 4.24847,-0.6827 -0.0122,0.0851 -0.36757,2.55209 2.27587,-3.05839 3.08137,-0.57358 0.28465,2.67956 -5.24085,-1.9794 0.8648,-3.7234 1.40688,3.03624 3.35204,-1.46737 -1.25133,-3.06569 -5.13033,0.0444 1.52817,0.0619 3.05633,0.12375 -2.56055,-0.1617 1.39725,2.84247 -0.02,-0.21559 -0.35044,-3.77284 -1.13151,2.43155 -2.70729,-0.57118 -1.52265,3.39527 -2.50567,0.87119 0.22132,-0.16208 1.99185,-1.45875 0.8361,-2.52397 0.0606,0.0327 2.48378,1.34004 2.10893,1.79061 -1.87126,1.8825 0.27935,2.82239 2.75789,0.44331 2.41031,-0.78686 5.64167,1.72297 2.46324,0.80453 2.7585,1.08081 3.81243,-1.20348 0.98363,-0.41879 0.63853,-2.70988 -0.15712,-4.30179 0.0694,-3.32059 2.1523,-2.01767 1.44382,-4.07246 0.31599,-0.80234 2.25403,-1.62663 5.07848,-1.89287 1.73591,-1.34409 0.85922,-2.65896 1.31066,-2.06677 2.52779,-1.49461 1.94063,-0.83713 1.32018,-2.68504 0.62237,-2.20514 -0.25112,-2.57968 -1.50232,-2.91873 -0.81532,-2.23434 -0.46701,-1.97306 -2.01705,-2.29119 -0.78752,-2.46693 0.009,0.042 0.0982,-0.5618 0.17525,-0.18492 0.121,-0.20255 -0.29941,-0.34276 -0.12569,-0.0405 v 0"
     style="fill:none;stroke:#ff7f0e;stroke-width:1.5;stroke-linecap:square;stroke-opacity:0.5"
     id="path108"
     transform="translate(-39,-18)" />
  <g
     id="g1196"
     transform="matrix(3.7373767,0,0,3.7373767,-145.35174,-749.07257)"
     clip-path="url(#clipPath1302)">
    <g
       id="line2d_5-5"
       style="stroke-linecap:butt;stroke-linejoin:round"
       transform="translate(-26.543507,46.289455)">
      <path
         clip-path="url(#p48bf2a7043-5)"
         d="m 303.06965,69.994175 1.05596,0.280048 -0.3573,-0.02327 0.47758,0.254287 0.20366,0.290611 0.0163,0.423642 -0.284,0.39246 0.31249,-0.09343 -0.37227,0.107631 0.34531,0.618091 -0.17092,-0.229578 -4.77112,-1.395371 -0.73502,-0.01767 -0.45888,0.768242 0.32633,0.151448 0.61296,-0.306915 0.21875,-0.46593 -0.007,-0.360483 0.0757,0.116066 0.12066,1.062036 -0.0997,0.414109 -0.0317,0.648763 -0.77598,-0.525635 -0.57397,-5e-5 -0.44241,-0.261013 -0.69077,-0.07859 -0.21542,0.238285 0.10064,0.157507 0.11159,0.255849 -0.54327,0.303249 -0.083,0.434371 0.002,0.359855 -0.96055,-0.686129 0.10244,0.144349 0.85992,1.487 0.18196,0.290603 -0.24299,-0.210294 -0.0732,-0.173856 0.0618,-0.01391 -0.13157,0.636963 -0.17777,-0.201522 -0.24587,0.246725 -0.86951,0.448323 -1.04068,0.375294 -0.002,-0.509679 0.34667,0.04055 0.20598,0.22856 -0.33288,0.591641 -1.04939,0.09076 -0.33704,0.754721 -0.16585,0.767244 -0.65531,0.198328 -0.33682,0.351432 -0.34296,0.198641 -0.0984,0.726489 -0.35562,-0.03976 -0.40077,-0.161355 -0.097,0.158665 0.22999,1.352754 -0.0217,-0.0081 -0.084,0.01571 -0.23085,0.925804 -0.0333,-0.35346 -0.12499,-0.03281 -0.44946,0.200794 -0.20372,0.108261 -0.66107,-0.227884 -0.50548,0.287454 -0.18442,-0.516022 -0.5301,-0.256739 -0.51309,-0.218716 -0.0251,-0.285892 0.3454,-0.07138 -0.002,0.250671 -0.30901,0.420356 0.29043,-0.0037 0.28369,-0.134573 -1.10413,0.82097 -0.40715,-1.679045 0.49988,1.012132 -1.10099,-0.524346 -0.67093,0.06787 0.0701,0.07626 -0.27497,0.309695 -0.35123,-0.138148 -0.38398,-1.852031 -0.52947,0.01597 -0.51515,0.654474 -0.35816,-0.01999 -0.23485,-0.249554 -0.22066,0.07498 -0.90582,1.064131 -0.7103,0.400796 -0.73036,0.03403 -0.32286,0.451783 -0.30839,0.774982 0.12206,0.678383 0.27138,0.510237 0.81968,3.402764 0.27524,1.627461 -0.0333,0.718049 -0.19893,0.550966 -0.32078,0.765297 -0.0902,0.894984 -0.0294,0.41828 -0.22226,0.718129 0.29562,0.216585 0.27468,0.385862 -0.29117,0.113266 0.44185,-0.0059 -2.65221,-1.876862 0.27747,0.344376 0.44221,0.773422 -0.16956,0.118396 -0.41839,-0.09505 -0.058,0.427889 0.30214,1.755075 -0.108,1.441236 -0.42763,0.237055 -0.66506,-0.06775 -1.35789,-0.791661 -0.79629,-0.14365 -1.16899,-0.02947 -0.24512,-0.06084 -0.15153,0.505328 -0.97166,-0.460886 -0.0904,0.214109 0.43988,0.97521 -0.39407,0.05383 -0.14617,0.350505 -0.35507,0.240576 -0.34535,-0.252923 -0.35244,0.0084 -1.86994,-1.809028 -0.51114,-0.107141 -0.65895,0.357371 -0.81237,-0.0097 -1.50907,-0.443188 -0.0227,0.469909 -0.44826,-0.01342 0.25291,1.615865 -0.10585,0.0642 0.0129,0.744329 -0.57497,2.039569 -0.0391,0.231275 -0.51976,0.470451 0.5987,0.74914 -0.51024,-0.10045 0.14048,0.70395 0.0312,0.0658 -0.12598,-0.0159 -0.17791,0.14042 -0.36969,0.5591 -0.28577,-0.0163 -0.18901,0.39022 0.0866,-0.32116 -0.0426,-0.0421 0.30883,0.95199 -0.84172,0.0334 0.65825,0.86981 -0.48478,0.11242 0.51999,0.28059 -1.45893,-0.6727 -0.27939,0.0868 0.41567,0.19206 -0.97283,0.32418 -1.27647,0.92494 0.18454,-0.1168 0.18585,0.31745 -0.73321,0.63428 -3.34548,-0.284 -0.8172,0.78184 -0.50427,1.02683 -0.61434,0.4294 -0.57493,0.0967 -0.25445,0.23833 -0.23191,0.43992 -0.47017,0.19365 -0.2129,0.035 -0.45887,0.72839 -0.23848,0.41476 0.10743,0.75079 0.27581,1.00732 -0.19916,0.92173 0.007,0.96344 -0.10063,0.69607 0.0773,0.5298 1.09819,2.37599 0.73126,1.92398 0.52327,2.01856 -0.31172,0.0258 -0.47592,-0.17736 0.17447,0.016 -2.08467,-0.0505 0.11635,0.87354 -0.21447,0.29761 -0.66081,0.0224 -1.39843,-1.31262 -1.22504,-0.24091 -0.49584,-0.23808 -0.0805,0.63121 -0.14629,0.2404 -0.20066,0.11182 -0.88012,-0.005 -0.43945,0.82978 -0.33666,0.73405 -0.2687,0.80732 -0.0363,0.20745 -0.18157,0.0686 -0.37866,-0.0767 -1.03364,0.0741 -1.2798,-1.01744 -0.70985,0.0124 -0.90826,-0.32697 -1.54876,-0.0451 -1.06594,-0.28091 -0.57945,0.19649 -0.43913,0.57355 -0.7012,0.75797 -0.82142,0.79828 -0.36037,0.0555 -0.7148,0.52266 -0.68648,0.70671 -3.05682,1.75545 -0.31797,0.53781 -0.0946,0.36769 0.082,0.45545 -0.0596,0.41486 -0.75641,0.18958 -0.89659,0.0654 -0.22695,0.158 0.17552,0.25582 -0.0437,0.0282 -1.80576,1.74284 -1.06183,0.0651 -0.46175,0.31268 0.004,0.18985 -0.44119,-0.0278 0.94814,0.97562 0.0679,0.40898 -0.15515,0.45392 -0.56769,0.21049 -0.14299,0.35912 0.0176,0.37081 -0.51064,0.63872 -0.0647,1.25714 -0.0995,1.27971 -0.18583,2.6313 -0.24634,1.13157 -0.2504,0.12366 -0.25431,9.5e-4 0.0701,0.0946 0.31855,0.40899 0.0978,0.39414 -0.0682,0.25204 1.17999,1.97108 -0.77842,-0.63926 0.11556,0.87718 0.79715,1.88494 0.10277,1.36131 -0.1964,1.04279 -0.27244,0.22348 -0.26944,-0.38012 0.0731,-0.0388 0.5789,0.14365 -0.50709,0.55287 0.081,0.19678 -0.26421,0.49904 -0.75194,0.83291 0.0198,0.47225 -1.02251,0.0548 0.24763,1.09865 0.40478,0.40954 -0.36295,-0.0642 -0.16468,0.35461 -0.90733,1.03798 0.0839,0.88322 -0.14865,0.84835 0.16955,0.84847 -2.1506,-0.87458 -1.18591,1.35271 -0.95245,0.70397 -1.23884,-0.26612 -2.47866,0.70801 -1.17368,0.65964 -1.42505,1.06974 0.10758,0.25015 -0.96579,0.49465 -0.34798,0.17274 -0.80763,-0.29821 -0.0781,0.28353 -0.009,0.48886 0.25254,-0.17407 -0.71919,0.31409 -0.0166,0.4833 -0.16567,0.64223 -0.75009,0.23663 -1.12005,0.0953 0.0197,0.13463 -0.56167,0.21671 0.0443,0.0681 -1.05668,0.91911 -0.39888,0.69436 0.4959,-0.15026 -0.10253,0.50925 0.57392,0.23355 0.48365,0.46327 -0.70149,0.2594 0.26897,-0.1784 -0.10208,0.0141 -0.16488,0.71115 -0.29397,0.61564 -0.26233,0.14611 -0.95526,0.009 -1.08657,0.0425 -0.68392,0.49938 -0.3292,0.34145 -0.39562,-0.0817 -0.58907,0.59145 -0.64785,0.30147 -0.75573,0.82889 -0.32722,0.26484 -0.12471,0.29654 -0.53695,0.42676 -1.16851,-0.62223 -0.27742,0.246 -0.10206,0.41037 -1.25366,2.00182 -0.63559,0.33547 -1.33675,0.70352 -0.29828,0.55992 -0.3991,-0.0212 -0.42256,-0.16788 -0.52795,-0.47058 -0.77812,-0.86918 -0.29301,-0.04 -0.82832,0.34429 -0.49804,-0.0445 -0.34159,-1.15002 -0.0515,-0.52714 -0.39196,-0.7041 -1.2166,0.62214 -0.93661,-0.0224 -1.26507,-0.52614 0.0673,-0.15152 -0.0904,-0.14005 -0.97184,-0.0427 -1.24366,-0.0812 -0.43069,-0.21991 -0.98313,-1.15628 -1.16223,-0.42059 -0.2093,-0.36381 0.0223,-0.3387 -0.0455,0.31783 0.76539,0.64442 -0.2524,0.53483 0.65608,0.59516 -1.88877,-2.27427 -0.32548,0.55266 -0.17875,0.82772 -0.49689,0.72867 -0.35212,0.12283 -0.63569,-0.30372 -0.33633,-0.51679 0.6477,0.83486 0.15181,0.17859 -0.61922,-0.12396 -0.65569,-0.0721 -0.0759,0.26976 -0.0673,0.0498 0.0953,-0.0829 0.0659,-0.37975 -0.31044,0.74636 -0.17473,0.80279 -0.39068,0.0886 -0.67204,-0.0794 -0.2118,0.17218 -0.12167,0.56673 -0.0915,0.19303 -0.23264,-0.0925 -0.0467,0.14291 -0.36678,-0.0807 -0.016,0.17693 -0.21323,-0.14732 -0.0281,0.0797 0.26959,-0.24924 -0.69326,0.57197 -0.44574,0.10976 -0.54389,0.29652 -0.64595,0.84769 0.14561,0.46983 0.53794,0.84406 -0.17733,-0.20074 0.13982,-0.0441 -0.31121,-0.45616 -0.69575,0.18858 -0.1951,-0.0778 0.40763,-0.49213 -0.3666,-0.46768 -0.12557,0.20862 -0.57552,-0.26122 0.57617,1.14849 -0.14655,0.0834 -0.25795,-0.37567 -0.11473,-0.0462 -0.14406,0.21137 -0.37164,0.078 0.33346,-0.0503 0.0564,0.46365 0.0466,0.2198 -0.0522,-0.30739 -0.24234,-0.0717 0.0963,-0.25692 0.005,0.26621 0.27326,0.0147 -0.23291,0.0392 -0.10676,0.24524 0.0778,-0.078 0.1544,0.19928 -0.45457,-0.0269 -0.9913,0.60612 -0.017,0.25932 0.33755,0.58532 0.0568,0.26016 -0.18353,-0.81275 0.0859,0.704 -0.10095,0.85898 -0.0658,-0.38712 -0.0329,-0.2929 0.0233,0.75663 0.35562,0.8104 -0.24174,0.0713 -0.33294,-0.0912 -0.14249,0.18379 0.0889,0.40374 0.15016,1.67279 -0.0166,-0.13879 1.42761,-0.90492 -0.18214,0.55849 0.29772,0.22402 -0.46707,0.29621 0.15038,-0.50501 0.71415,0.7147 -0.53969,-1.39831 1.92525,0.53334 -1.43164,-0.52121 1.44717,1.41331 1.455,-0.94411 -3.28826,0.62355 -0.22651,2.62476 -0.77077,-0.13914 0.4425,-0.0738 -0.76102,-1.33465 2.72774,-1.88774 -10.59618,4.56455 -2.85529,-0.0916 0.52073,-0.81469 0.63263,0.16763 -1.56872,0.2169 -0.23084,-0.64142 0.18452,-0.11135 -2.00463,2.16392 -1.85618,0.19143 -1.19088,0.74968 -0.20669,-0.2684 0.78807,-0.0925 -0.2753,-1.13647 -0.48727,0.91492 0.0783,-0.13237 0.0964,0.11181 -0.32474,0.0238 0.20824,0.0264 -0.5308,0.25796 -0.078,0.41921 0.36674,0.52366 0.0151,0.64124 -0.23611,0.4015 0.19378,-0.0368 0.21418,0.15452 0.71045,-0.0144 -1.38333,0.5002 2.6179,0.342 -1.03707,-0.74222 -0.67676,0.88934 -0.13604,-0.4617 0.19662,-0.37399 0.78576,0.51306 -1.00318,-0.0984 0.25466,0.2703 -0.0386,0.64411 0.93923,-0.25842 -0.58669,0.34689 -0.66011,0.60402 0.82822,-0.28653 2.08943,-1.9727 -1.04238,0.52507 0.0372,-0.47175 -0.73345,0.23692 -0.0825,0.21832 0.0238,0.32594 -0.23631,0.036 -0.9806,0.6067 -0.6535,0.0183 -0.17823,0.56384 -0.14273,1.07665 -1.33159,-0.38107 0.41737,-0.13764 0.69554,-0.0774 -0.31084,0.39658 0.0933,1.36776 -0.64812,-0.79551 0.25,-0.88905 2.2032,-0.8048 0.88062,0.42067 -0.25427,-0.0406 0.38562,1.28597 -0.57479,0.006 -0.0231,-0.80006 0.6957,0.11983 -0.78624,0.44343 -0.53116,0.53466 -1.20409,0.97305 0.91852,-0.2646 -0.42584,-0.6762 0.71452,0.14984 0.15866,-0.0828 -0.39419,-0.0477 -0.39195,1.38869 -0.67782,1.1046 0.20277,0.33595 -0.0517,-0.50088 0.0803,0.77862 0.44232,-0.0659 -0.59214,-0.0443 0.3539,0.64609 -0.51462,0.0824 0.32546,0.58783 0.19291,0.051 -0.36603,-0.52418 0.79438,0.82752 -0.17363,0.14033 0.0506,-0.91449 0.0306,-0.0356 -4e-5,0.15677 -0.3418,-0.16129 0.13817,-0.16101 1.72642,0.80133 0.55404,0.13351 -0.03,0.0485 -0.63343,0.31981 -0.11527,-0.16928 -0.0407,-0.75958 0.30128,0.1732 0.30002,-0.39564 -1.76987,0.44187 -0.68595,3.02536 2.44885,1.9692 0.0633,-0.56962 2.31793,0.78929 2.60696,0.23321 3.47185,-1.18502 -0.78314,-2.1267 2.52453,-1.9925 0.96944,0.31599 -2.48546,-0.58375 0.38686,0.19977 -0.19143,-0.0609 0.14808,0.22423 -0.25765,-0.0194 0.74067,0.44661 0.3626,0.53101 -1.49425,5.81798 1.309,-0.38217 -0.27863,-1.45471 -1.56705,3.39668 -5.69154,-1.09851 -0.98681,-2.89951 1.41246,1.25158 -0.81314,-1.37483 -0.32615,0.006 0.30739,0.0579 3.99742,0.17714 0.18427,-1.58849 -0.25862,-0.36199 -0.53681,0.57027 -0.65684,1.15787 -0.89138,-0.57643 -1.54947,0.99261 0.13693,0.0346 1.88267,-0.99584 -0.57098,0.1152 1.57046,1.50252 -0.41954,0.40594 -0.60351,-1.95807 -0.54077,0.68974 0.0574,0.23055 -0.47872,0.90893 1.01621,-1.31168 1.03431,1.70475 -0.22182,-2.25681 -3.66801,1.79151 0.35377,-0.0583 0.79436,0.91456 -0.30545,0.15654 0.33541,0.14314 -0.0339,0.12881 0.53298,-0.43786 0.32024,0.47854 0.10971,-0.18169 -0.65688,-0.42757 -0.65157,0.51747 1.42199,-0.0597 -0.0725,0.79087 -0.50829,-1.06984 0.0581,0.22953 -0.17809,-0.18907 -0.0289,-0.2469 0.56364,0.10794 -0.11266,0.19043 0.10759,-0.13723 1.93301,0.0479 -0.36102,-0.0177 0.24974,0.15091 -0.4599,0.35901 -0.3776,0.66555 1.45435,-0.66664 -0.26576,-0.008 0.84263,0.45513 -3.72003,-0.0531 0.43082,0.2639 0.51298,0.15848 0.0832,-0.15929 0.0338,0.36488 0.39851,0.63097 0.29215,-0.0889 0.99548,-0.11424 0.0756,-0.35098 -0.12621,0.27452 -0.0994,0.4615 0.10312,0.5819 -0.21039,0.42224 0.11269,0.0722 -0.0536,0.10664 0.10021,0.0894 -0.35426,0.40483 -0.35417,0.31278 0.54363,-0.23 -0.87375,0.85836 -1.74356,0.28862 -1.4986,-10e-4 -0.63969,1.11259 0.50359,-0.9311 0.10842,0.55053 0.90437,-0.26647 -0.28115,0.72284 -0.13519,-0.75511 0.51603,-1.42661 -0.0346,-0.30199 0.1358,-0.52261 -0.24696,0.15245 0.0589,0.0908 -0.46463,0.78393 -1.17193,-0.9494 0.3253,0.38262 -0.4196,-0.26676 0.9846,0.56624 -0.20472,-1.20781 0.11604,0.59194 -1.43821,-0.21164 -0.96537,-1.69719 -1.11024,1.29348 -0.48783,-0.3706 -1.07751,0.59359 0.42827,1.14801 0.24717,-1.09392 1.29843,-0.12638 -0.12927,0.0829 -0.71078,0.48885 0.24112,-0.0773 -0.30821,-0.3941 1.62316,1.07379 -0.14999,0.29659 -1.09521,0.0562 -0.62109,-1.02778 -0.17517,-1.4096 0.341,-0.0695 -0.18362,-0.18679 0.55638,0.20281 -0.40469,-0.42435 0.22757,-0.19764 -0.43305,-0.24949 1.27893,0.17771 -0.59235,-10e-4 -0.0949,-1.44907 -0.50167,1.50627 1.00588,-0.52965 0.29803,-2.31792 0.21477,0.41729 0.51187,-0.16394 -0.23025,0.007 -0.47293,-0.23992 0.28665,-0.0211 -0.0412,-0.0585 -1.47004,-1.24337 -1.70509,-0.21836 1.36774,1.20636 -0.64928,0.68326 -0.76168,-0.74809 1.15223,-0.0378 -0.83011,-0.47206 -0.90366,-2.02064 0.078,-1.06348 0.37262,0.0603 -0.54165,-0.89989 -0.12294,-0.006 0.10825,0.42848 0.44207,0.20761 0.15598,-0.0859 0.11116,-0.19286 0.47038,-0.19661 -0.49503,0.14196 -0.0428,-0.0953 0.29795,0.22069 -0.0757,0.30566 -0.29551,0.27622 0.19806,0.009 0.5808,-0.15511 0.14351,-0.38552 1.3971,-0.21456 -1.69439,1.6622 -0.12635,-0.2645 -0.43025,-0.49795 1.88759,-0.66017 -1.94366,-1.31772 0.16016,-0.77617 -0.39667,-0.18285 0.22875,0.33881 -0.59362,-1.00481 -0.12874,0.45107 -0.0785,-0.11431 -0.25218,-0.36313 -0.15785,-0.27279 -0.24394,-0.48889 -0.36758,-0.12298 0.11134,-0.0337 -0.10976,-0.21638 0.11673,-0.33517 -0.0611,-0.15302 0.10279,-0.002 -0.72084,-0.058 1.19732,0.37127 -0.43775,0.0143 0.39197,0.22702 0.24307,0.48401 -0.64081,-0.2219 -0.32549,-0.66996 0.28006,0.29541 -0.3575,-0.0318 -0.0769,0.81864 0.26993,0.0182 -0.24278,-0.31461 -0.33184,0.36548 -0.18325,-0.11472 0.16694,0.22257 0.0696,-2.99922 -0.59909,0.91145 -0.9653,-0.9121 -0.20031,0.57234 -0.56184,-0.24312 -1.06825,0.3978 -1.02471,2.46681 -0.13075,-2.1682 2.68601,6.70961 -1.48708,0.81239 -1.54906,3.32502 0.93317,0.97022 6.3409,1.67494 4.89341,2.13 1.16251,-0.33626 -4.92362,-1.42192 1.38324,-0.62275 1.23633,0.7149 2.40008,0.15111 0.46137,-0.0845 -0.13791,0.0224 0.26266,0.1879 -0.86828,-0.46167 0.52572,0.48923 -2.01444,-0.46658 -2.37948,-0.0907 0.31044,-0.10167 -0.23337,0.0752 -1.07233,0.50429 -2.55097,-0.94395 -1.98816,-1.69867 -1.81026,-0.0267 -2.1017,-1.58146 0.10832,-0.29198 0.75203,-0.80757 0.59705,0.24284 -0.40654,-0.59544 0.82174,0.11602 -0.6633,-2.14889 -0.37257,0.54342 -0.36724,0.13096 0.10694,0.50691 -0.0383,-0.34958 -0.40383,-0.47587 -1.57865,2.07871 -1.7266,-1.49798 0.78976,-0.79317 3.90036,-3.48372 -3.51167,-3.28815 -1.91326,-5.05134 -2.24141,-0.53895 0.19408,-1.59281 1.96067,-0.88644 -3.20271,2.51988 6.57416,-0.66239 0.35825,-3.84441 -1.48113,0.90895 2.08464,0.74368 -0.15841,-0.99931 -1.2139,-2.38258 -5.29585,-1.97367 -0.18544,0.20783 2.23207,-0.5445 -2.05228,-1.29346 -0.15792,0.5309 0.45489,3.21833 -1.40177,0.59624 -0.0103,0.47218 0.95571,2.8624 4.24847,-0.6827 0.36154,-0.19827 0.7642,-0.77251 -1.51904,1.26165 -0.4862,-1.0147 0.70441,1.04039 0.72385,-1.03282 -1.73072,0.47804 0.58004,0.30765 -1.09775,1.152 0.81517,-0.56514 -0.9332,0.45827 1.12959,-1.18453 -1.0347,0.88306 0.50683,0.14117 0.57639,-0.0212 -0.53111,0.27292 -0.38465,-0.66887 0.90202,-0.49641 -0.73358,1.35988 0.28318,-0.18727 0.58996,-0.0703 -0.36235,0.068 0.21724,0.64297 -0.26291,-0.23292 0.53635,0.41863 0.65721,0.26894 -0.67883,0.062 0.0272,0.26649 0.40784,0.52912 -0.0696,0.10791 0.5443,0.65813 -0.87441,-0.36827 -1.91367,-2.20287 4.18141,-1.78241 0.93811,0.85176 -0.40022,-0.21817 0.33624,0.61254 2.20724,-1.81971 0.0334,-0.22285 -1.88709,-0.56979 1.96658,-0.0183 -2.26678,1.33091 0.15509,0.8679 0.34589,-1.28547 1.23368,1.54715 0.21301,-0.18184 -0.2698,0.40595 0.93723,-0.79039 -0.91436,0.99575 -1.50536,-0.48868 1.67442,-0.48636 -0.38554,1.11365 0.245,-0.59244 -0.0127,0.36474 0.72193,0.68967 -5.32276,-1.96317 0.94671,-3.73963 2.05125,-0.28708 -0.90503,-0.53592 -1.81884,2.14107 2.0795,1.71817 3.56653,-1.56962 -1.97342,-0.1751 1.43914,-2.20053 -1.8674,-1.10073 -4.19447,0.55729 2.17144,0.80612 -0.58948,0.71546 3.00254,-1.33596 -2.40436,-0.85869 -0.15619,0.69699 1.62048,-0.93172 -1.92645,1.91785 2.32115,2.38726 1.47455,0.26437 -1.54106,0.13033 0.38415,-0.42156 1.04283,-0.26808 -2.34845,0.55216 -0.0576,-0.98517 1.34491,0.20481 -1.67386,-0.51008 1.97795,1.42557 -1.59089,-1.18513 0.68198,-0.11653 -0.24555,0.17041 -1.01019,-0.3562 0.8617,0.22269 -0.37694,-0.95573 -1.06648,0.22061 1.11131,-0.31135 0.84335,0.73492 -0.25303,0.32434 -0.47043,-1.50614 -0.53661,0.40784 0.53009,-0.19651 0.55663,1.15178 -0.26426,-0.96899 -0.0632,1.14625 -0.19003,-0.18086 -0.0871,0.11759 0.0244,0.20801 -0.21096,0.45948 -0.83974,-0.4261 0.75997,-0.41939 0.49998,1.93205 -0.25586,-5.38474 -0.54354,-0.22503 -0.39188,-0.0153 1.35458,-0.65162 -1.55067,3.32349 1.33765,-1.58095 0.59372,1.81153 -2.85961,-1.21306 1.93554,-0.87493 0.67276,0.67558 -0.98702,1.53585 -0.72588,-0.81672 0.69161,-0.12209 -0.64275,-0.54002 0.0828,0.17609 0.24283,0.96217 -1.07965,-0.8751 -0.30194,1.56209 -1.17679,-0.20531 -0.0396,-0.5016 -0.45087,-0.56471 -0.0808,1.11945 -0.47813,-0.46169 -0.96371,2.73751 0.0572,0.32694 -1.71047,1.43212 0.84889,-0.25013 -0.12631,-0.16261 -0.58705,-0.35829 -0.98794,-0.11684 0.83878,-0.0782 -0.0487,1.12542 -0.53489,-0.17337 -0.0134,1.45292 -0.82956,-0.74228 0.42747,-0.34984 0.61313,-0.71061 0.34371,-1.29435 1.41664,-0.85052 0.3629,-0.62799 0.0448,-0.76206 0.13929,-0.28066 0.26523,-0.18564 0.0903,-0.51169 -0.25987,-0.47692 -0.33653,-0.11084 -0.12602,-0.0495 0.0155,-0.0318 0.16435,-0.1025 -0.11312,0.2019 0.51091,-0.12415 0.37698,0.0119 0.0938,0.11469 -0.0724,0.2101 0.22339,0.41734 0.79595,0.19718 1.20499,0.95949 0.6075,0.35019 0.63456,0.23082 0.26461,0.42242 0.11358,0.69649 0.48868,0.0907 -1.87126,1.8825 0.36784,1.46727 -0.0885,1.35512 0.22814,0.35136 0.57612,0.44101 0.28867,0.36842 0.12882,0.0318 0.15189,-0.33432 0.18233,-0.48887 0.26117,0.10488 0.43601,0.33128 0.43153,-0.41548 0.76923,-0.71825 0.33602,-0.0699 1.77695,0.1668 1.5117,0.57044 2.229,0.54587 1.88644,0.59145 0.78597,0.0579 0.74397,0.45441 0.58227,0.29465 0.28411,0.15576 0.1212,0.0939 0.53124,0.22027 -0.23275,0.007 0.2412,0.16155 0.0208,-0.31948 1.66775,0.67297 -0.12118,-0.0472 0.34267,-0.0652 0.21152,0.21703 0.74506,-0.0451 0.45967,-0.35482 0.4507,-0.30721 1.34145,-0.47696 0.5585,-0.60591 1.14982,0.0168 0.14919,-0.34322 0.19735,-0.45216 0.11268,-0.30198 -0.0551,-1.31243 -0.12475,-3.13091 -0.0663,-2.44518 -0.007,-2.02338 0.26142,-0.59749 0.33701,-0.48975 0.56551,-0.56264 0.82422,-0.31548 0.32552,-0.35735 0.67972,-1.60839 0.17588,-0.82462 0.75746,-2.36281 0.53892,-0.75933 0.46647,-0.28267 0.97319,-0.49129 1.07641,-0.61351 1.11375,-0.36671 0.24726,0.0112 0.90889,0.37339 0.0598,-0.47201 0.10016,-0.0611 0.6711,0.23068 0.57892,0.0935 0.15293,-0.0599 -0.0827,-0.41881 -0.003,-0.28362 0.26255,-0.22478 0.29158,-0.0675 0.55735,0.0376 0.27178,-0.38916 0.40215,-0.54597 0.59122,-0.59116 0.14857,-0.63726 0.18486,-1.0824 0.38521,-0.78223 0.79185,-1.10706 0.20028,-0.29506 0.1897,-0.66836 0.48459,-0.47873 1.04481,-0.73352 1.62309,-0.54452 1.13449,-0.40532 0.40943,-0.34213 0.24807,-0.70068 0.12171,-0.41322 0.60077,-0.91903 0.26965,-0.43008 0.007,-0.82306 0.11241,-0.0513 0.37037,0.14472 0.001,-0.23886 0.12571,-0.15756 0.18171,-2.37073 -0.13137,-1.05224 -0.32024,-0.74041 -1.79151,-3.46171 -0.90074,-2.71513 0.0222,-0.69145 -0.29617,-0.56905 -0.52372,-0.6433 -0.8728,-0.58958 -0.43792,-0.67286 -0.29718,-0.76048 -0.18726,-0.90229 -0.0226,-0.0673 0.0446,-0.31709 -0.24461,-0.50994 0.0808,-0.22879 0.2065,-0.14186 0.14932,-0.26292 -0.29941,-0.34276 -0.12569,-0.0405 0.17906,0.12026 v 0"
         style="fill:none;stroke:#1f77b4;stroke-width:1.5;stroke-linecap:square;stroke-opacity:0.5"
         id="path105-6" />
    </g>
    <path
       clip-path="url(#p48bf2a7043-5)"
       d="m 303.06965,69.994175 1.39771,2.250075 -4.94204,-1.624949 -2.48937,1.266842 -0.59759,2.571866 -2.38602,1.277845 -1.48649,2.084291 -2.46853,1.645098 -1.63497,1.913911 -2.76567,-1.661234 -2.39892,-0.903531 -4.29679,3.058399 1.32616,5.615769 -0.3858,3.906641 -0.0609,1.105961 -2.22685,-1.383606 0.31061,2.674261 -1.80459,1.904664 -2.65402,-0.609057 -1.91412,1.817831 -2.56773,-2.053598 -2.60721,-0.0212 -1.64075,3.949016 -1.26156,3.21818 -0.38867,0.67272 -3.65652,3.65186 -3.34548,-0.284 -2.32112,2.53391 -1.66964,1.28198 -0.21907,5.43812 1.4127,3.27888 0.62903,1.80579 -2.38685,1.04783 -3.3824,-0.36003 -3.25897,2.39513 -1.21936,0.98992 -3.18844,-1.3682 -2.32417,-0.28976 -3.54309,3.00512 -0.75976,0.60606 -2.65765,1.48704 -1.74162,2.38003 -2.41009,1.66925 -1.75479,0.89632 -0.34728,3.32816 -0.5433,2.56461 -0.18415,3.03703 -0.27987,1.88824 1.24612,4.34598 -0.49496,2.77342 -1.93344,2.18759 -0.78255,2.8366 0.10479,2.58004 -2.68849,-0.22269 -2.83931,1.13867 -2.47866,0.70801 -7.0812,4.72929 -1.90373,1.73401 0.4532,2.45699 -2.74785,0.66799 -2.40593,1.59651 -2.05428,1.89691 -2.75188,1.65586 -1.52771,0.94351 -2.5384,-0.61439 -2.06394,-1.48211 -3.78677,-0.47328 -2.51969,-0.75236 -2.31845,-1.6171 -4.24649,2.6034 -1.33359,0.73723 -1.52952,0.90977 -1.1505,2.23064 -3.12211,0.93984 0.57023,2.9332 1.33471,2.29393 2.85609,-0.91698 -3.28826,0.62355 -0.22651,2.62476 1.63845,-3.43532 -10.59618,4.56455 -2.85529,-0.0916 -2.46631,0.98099 -3.04706,0.94111 1.76687,2.63627 -2.71239,0.56926 -0.75722,2.80872 1.80508,-2.48936 -0.14117,0.29426 -1.27051,2.64837 0.33736,2.72142 2.41647,0.98409 -2.67397,2.68424 2.44885,1.9692 4.98816,0.45288 3.47185,-1.18502 1.74139,-4.1192 -0.15176,0.57263 -1.66938,6.29893 -3.3688,1.00676 -2.85942,-0.54547 -0.98681,-2.89951 4.57798,0.11752 -1.23629,0.0646 -2.47256,0.12923 3.01908,0.65646 -3.82446,0.20486 2.14815,1.96481 2.91681,-0.12893 -3.72003,-0.0531 0.23174,0.092 2.31745,0.91987 -0.93878,3.04739 -3.24216,0.28757 -2.34907,-3.58275 -2.67558,1.51647 2.68989,1.10183 -2.04146,-2.08464 1.49752,-3.53892 -2.90621,-1.52056 -0.42418,-2.83797 0.10757,-0.008 2.47408,-0.18796 -4.52664,-4.04645 -1.71334,-1.90196 -2.85511,3.19383 2.55526,4.54141 -3.03614,4.13741 7.27407,2.64516 4.89341,2.13 -3.76111,-1.75818 5.48102,0.15879 -1.53725,-0.10647 -4.8476,-0.44602 -1.77311,-0.23308 -1.98816,-1.69867 -3.91196,-1.60812 1.2093,-3.48502 -2.65369,2.43455 2.96352,-5.77487 -3.51167,-3.28815 -1.91326,-5.05134 -2.04733,-2.13176 5.33212,0.97105 0.35825,-3.84441 -6.06465,-3.70293 -1.11045,2.71534 0.94544,3.33458 4.24847,-0.6827 -0.0122,0.0851 -0.36757,2.55209 2.27587,-3.05839 3.08137,-0.57358 0.28465,2.67956 -5.24085,-1.9794 0.8648,-3.7234 1.40688,3.03624 3.35204,-1.46737 -1.25133,-3.06569 -5.13033,0.0444 1.52817,0.0619 3.05633,0.12375 -2.56055,-0.1617 1.39725,2.84247 -0.02,-0.21559 -0.35044,-3.77284 -1.13151,2.43155 -2.70729,-0.57118 -1.52265,3.39527 -2.50567,0.87119 0.22132,-0.16208 1.99185,-1.45875 0.8361,-2.52397 0.0606,0.0327 2.48378,1.34004 2.10893,1.79061 -1.87126,1.8825 0.27935,2.82239 2.75789,0.44331 2.41031,-0.78686 5.64167,1.72297 2.46324,0.80453 2.7585,1.08081 3.81243,-1.20348 0.98363,-0.41879 0.63853,-2.70988 -0.15712,-4.30179 0.0694,-3.32059 2.1523,-2.01767 1.44382,-4.07246 0.31599,-0.80234 2.25403,-1.62663 5.07848,-1.89287 1.73591,-1.34409 0.85922,-2.65896 1.31066,-2.06677 2.52779,-1.49461 1.94063,-0.83713 1.32018,-2.68504 0.62237,-2.20514 -0.25112,-2.57968 -1.50232,-2.91873 -0.81532,-2.23434 -0.46701,-1.97306 -2.01705,-2.29119 -0.78752,-2.46693 0.009,0.042 0.0982,-0.5618 0.17525,-0.18492 0.121,-0.20255 -0.29941,-0.34276 -0.12569,-0.0405 v 0"
       style="fill:none;stroke:#ff7f0e;stroke-width:1.5;stroke-linecap:square;stroke-linejoin:round;stroke-opacity:0.5"
       id="path108-2"
       transform="translate(-26.543507,46.289455)" />
  </g>
  <g
     id="patch_3"
     transform="translate(-39,-18)">
    <path
       d="M 91.362353,252 V 34.56"
       style="fill:none;stroke:#000000;stroke-width:0.8;stroke-linecap:square;stroke-linejoin:miter"
       id="path111" />
  </g>
  <g
     id="patch_4"
     transform="translate(-39,-18)">
    <path
       d="m 351.65688,92.537287 0.0428,-58.495616"
       style="fill:none;stroke:#000000;stroke-width:0.8;stroke-linecap:square;stroke-linejoin:miter"
       id="path114"
       sodipodi:nodetypes="cc" />
    <path
       d="m 351.77895,252.28065 0.0428,-18.00941"
       style="fill:none;stroke:#000000;stroke-width:0.8;stroke-linecap:square;stroke-linejoin:miter"
       id="path114-1"
       sodipodi:nodetypes="cc" />
  </g>
  <g
     id="patch_5"
     transform="translate(-39,-18)">
    <path
       d="M 91.362353,252 H 351.43765"
       style="fill:none;stroke:#000000;stroke-width:0.8;stroke-linecap:square;stroke-linejoin:miter"
       id="path117" />
  </g>
  <g
     id="patch_6"
     transform="translate(-39,-18)">
    <path
       d="M 91.362353,34.56 H 351.43765"
       style="fill:none;stroke:#000000;stroke-width:0.8;stroke-linecap:square;stroke-linejoin:miter"
       id="path120" />
  </g>
  <defs
     id="defs128">
    <clipPath
       id="p48bf2a7043">
      <rect
         height="217.44"
         width="260.07529"
         x="91.36235"
         y="34.560001"
         id="rect125" />
    </clipPath>
  </defs>
  <rect
     style="fill:none;stroke:#292929;stroke-width:1;stroke-linecap:round;stroke-miterlimit:4;stroke-dasharray:none;stroke-opacity:1"
     id="rect1334"
     width="147.73282"
     height="140.99974"
     x="253.26111"
     y="75.155838" />
  <rect
     style="fill:none;stroke:#292929;stroke-width:1;stroke-linecap:round;stroke-linejoin:round;stroke-miterlimit:4;stroke-dasharray:none;stroke-opacity:1"
     id="rect1334-9"
     width="46.55024"
     height="47.335709"
     x="88.500816"
     y="158.82733" />
  <path
     style="fill:none;stroke:#000000;stroke-width:0.75;stroke-linecap:butt;stroke-linejoin:miter;stroke-miterlimit:4;stroke-dasharray:0.75, 1.5;stroke-dashoffset:0;stroke-opacity:1"
     d="M 135.37152,159.63504 253.19628,75.306474"
     id="path2063"
     sodipodi:nodetypes="cc" />
  <path
     style="fill:none;stroke:#000000;stroke-width:0.75;stroke-linecap:butt;stroke-linejoin:miter;stroke-miterlimit:4;stroke-dasharray:0.75, 1.5;stroke-dashoffset:0;stroke-opacity:1"
     d="m 134.70003,206.7606 118.83965,9.26312"
     id="path2063-2"
     sodipodi:nodetypes="cc" />
  <path
     style="fill:none;stroke:#ffbe86;stroke-width:4;stroke-linecap:butt;stroke-linejoin:miter;stroke-miterlimit:4;stroke-dasharray:none;stroke-opacity:1"
     d="M 63.02015,29.735596 H 89.97996"
     id="path2633"
     sodipodi:nodetypes="cc" />
  <path
     style="fill:none;stroke:#8ebad9;stroke-width:4;stroke-linecap:butt;stroke-linejoin:miter;stroke-miterlimit:4;stroke-dasharray:none;stroke-opacity:1"
     d="M 62.6581,55.621994 H 89.61791"
     id="path2633-7"
     sodipodi:nodetypes="cc" />
  <text
     xml:space="preserve"
     transform="matrix(0.75,0,0,0.75,-39.951645,-20.964935)"
     id="text11431"
     style="font-style:normal;font-variant:normal;font-weight:normal;font-stretch:normal;font-size:24px;line-height:1.25;font-family:'CMU Sans Serif';-inkscape-font-specification:'CMU Sans Serif';letter-spacing:0px;word-spacing:0px;white-space:pre;shape-inside:url(#rect11433)"><tspan
       x="180.5957"
       y="76.065234"
       id="tspan21387">linearised</tspan></text>
  <text
     xml:space="preserve"
     transform="matrix(0.75,0,0,0.75,-40.549861,6.095317)"
     id="text11431-0"
     style="font-style:normal;font-variant:normal;font-weight:normal;font-stretch:normal;font-size:24px;line-height:1.25;font-family:'CMU Sans Serif';-inkscape-font-specification:'CMU Sans Serif';letter-spacing:0px;word-spacing:0px;white-space:pre;shape-inside:url(#rect11433-2);stroke-linecap:butt;stroke-linejoin:round"><tspan
       x="180.5957"
       y="76.065234"
       id="tspan21389">original</tspan></text>
</svg>
