<?xml version="1.0" encoding="UTF-8" standalone="no"?>
<!-- Created with Inkscape (http://www.inkscape.org/) -->

<svg
   width="512"
   height="512"
   viewBox="0 0 135.46666 135.46667"
   version="1.1"
   id="svg1286"
   inkscape:version="1.2.2 (1:1.2.2+202212051550+b0a8486541)"
   sodipodi:docname="crossed-swords.svg"
   xmlns:inkscape="http://www.inkscape.org/namespaces/inkscape"
   xmlns:sodipodi="http://sodipodi.sourceforge.net/DTD/sodipodi-0.dtd"
   xmlns="http://www.w3.org/2000/svg"
   xmlns:svg="http://www.w3.org/2000/svg">
  <sodipodi:namedview
     id="namedview1288"
     pagecolor="#ffffff"
     bordercolor="#666666"
     borderopacity="1.0"
     inkscape:showpageshadow="2"
     inkscape:pageopacity="0"
     inkscape:pagecheckerboard="true"
     inkscape:deskcolor="#d1d1d1"
     inkscape:document-units="px"
     showgrid="false"
     inkscape:zoom="0.2102413"
     inkscape:cx="-40.429734"
     inkscape:cy="561.25984"
     inkscape:window-width="1920"
     inkscape:window-height="1043"
     inkscape:window-x="0"
     inkscape:window-y="0"
     inkscape:window-maximized="1"
     inkscape:current-layer="layer1" />
  <defs
     id="defs1283" />
  <g
     inkscape:label="Layer 1"
     inkscape:groupmode="layer"
     id="layer1">
    <path
       fill="#ffffff"
       d="M 5.3082125,5.7427735 C 21.060972,35.452835 43.013982,59.28121 66.765622,83.191075 l 0.95938,0.99219 0.0167,-0.0164 c 5.77506,5.80232 11.65225,11.6213 17.56966,17.528655 -4.98899,3.91927 -10.31188,7.46125 -15.8586,10.66588 l 7.54909,7.54857 18.18137,-18.18138 c 11.201668,7.31203 20.183998,16.83967 27.541528,27.99557 l 7.42527,-7.42421 c -11.23686,-7.27419 -21.09787,-15.92951 -28.05376,-27.483865 l 18.2393,-18.23985 -7.54855,-7.54856 c -2.94084,5.78194 -6.45927,11.11647 -10.4431,16.0319 -11.602508,-11.58875 -22.876408,-22.71236 -34.428908,-33.197272 -0.0593,-0.05371 -0.1143,-0.111654 -0.17357,-0.165364 C 48.666562,34.400333 28.793972,18.83225 5.3082425,5.7425195 Z m 124.8502375,0 C 108.18799,17.98769 89.380352,32.407481 71.428902,48.381964 l 6.03621,5.704946 15.03098,-15.031508 3.49779,3.48906 -14.93256,14.933083 6.50717,6.13463 C 103.92026,45.906258 118.68347,27.385425 130.15845,5.7425095 Z M 42.970322,39.055402 96.035152,92.112295 c -1.15358,1.17555 -2.33891,2.32648 -3.54674,3.44805 L 39.472532,42.544198 Z m -20.2909,29.972003 -7.54062,7.54909 18.23164,18.23138 C 26.414552,106.36302 16.561462,115.02575 5.3246125,122.29994 l 7.4249995,7.42421 c 7.35727,-11.1559 16.34014,-20.68354 27.54154,-27.99557 l 18.18164,18.18138 7.54856,-7.54857 c -5.5462,-3.20489 -10.86908,-6.74687 -15.85833,-10.66614 4.72678,-4.717535 9.42181,-9.374995 14.06445,-14.014985 l -6.57304,-6.78789 -14.67644,14.67564 c -1.20782,-1.1213 -2.38495,-2.2807 -3.53853,-3.45598 l 14.77539,-14.77539 -6.49023,-6.71354 c -4.83659,4.7244 -9.68428,9.54087 -14.59389,14.44466 -3.98674,-4.91781 -7.50887,-10.25472 -10.45104,-16.04036 z"
       id="path4-3"
       style="fill:#7d2727;fill-opacity:1;stroke-width:0.264583" />
  </g>
</svg>
