<?xml version="1.0" encoding="UTF-8" standalone="no"?>
<svg
   viewBox="0 0 512 512"
   version="1.1"
   id="svg6"
   sodipodi:docname="sword.svg"
   inkscape:version="1.2.2 (1:1.2.2+202212051550+b0a8486541)"
   xmlns:inkscape="http://www.inkscape.org/namespaces/inkscape"
   xmlns:sodipodi="http://sodipodi.sourceforge.net/DTD/sodipodi-0.dtd"
   xmlns="http://www.w3.org/2000/svg"
   xmlns:svg="http://www.w3.org/2000/svg">
  <defs
     id="defs10" />
  <sodipodi:namedview
     id="namedview8"
     pagecolor="#848484"
     bordercolor="#666666"
     borderopacity="1.0"
     inkscape:showpageshadow="2"
     inkscape:pageopacity="0"
     inkscape:pagecheckerboard="true"
     inkscape:deskcolor="#d1d1d1"
     showgrid="false"
     inkscape:zoom="0.4609375"
     inkscape:cx="-302.64407"
     inkscape:cy="505.49153"
     inkscape:window-width="1452"
     inkscape:window-height="481"
     inkscape:window-x="260"
     inkscape:window-y="93"
     inkscape:window-maximized="0"
     inkscape:current-layer="svg6" />
  <path
     id="path4"
     style="fill:#7d2727;fill-opacity:1"
     d="M 491.59375,14.4375 C 432.05581,126.72739 349.08436,216.78834 259.31445,307.15625 l -3.62695,3.75 -0.0625,-0.0625 c -21.82698,21.92998 -44.03932,43.92302 -66.4043,66.25 18.85598,14.81299 38.97352,28.20051 59.9375,40.3125 l -28.5332,28.5293 -68.7168,-68.7168 C 109.57125,404.85472 75.62243,440.86534 47.81445,483.0293 L 19.75,454.96875 c 42.46996,-27.49297 79.74128,-60.20504 106.03125,-103.875 L 56.8457,282.1543 85.375,253.625 c 11.11499,21.85298 24.41372,42.01577 39.4707,60.59375 43.85196,-43.79996 86.46205,-85.84274 130.125,-125.4707 0.224,-0.203 0.4303,-0.422 0.6543,-0.625 C 327.71893,122.75011 402.82884,63.910451 491.59375,14.4375 Z m -142.3457,125.90625 -200.5586,200.5293 c 4.36,4.44299 8.8393,8.7942 13.4043,13.0332 l 200.375,-200.37695 z" />
</svg>
