<?xml version="1.0" encoding="utf-8" standalone="no"?>
<!DOCTYPE svg PUBLIC "-//W3C//DTD SVG 1.1//EN"
  "http://www.w3.org/Graphics/SVG/1.1/DTD/svg11.dtd">
<!-- Created with matplotlib (https://matplotlib.org/) -->
<svg height="1440pt" version="1.1" viewBox="0 0 1440 1440" width="1440pt" xmlns="http://www.w3.org/2000/svg" xmlns:xlink="http://www.w3.org/1999/xlink">
 <metadata>
  <rdf:RDF xmlns:cc="http://creativecommons.org/ns#" xmlns:dc="http://purl.org/dc/elements/1.1/" xmlns:rdf="http://www.w3.org/1999/02/22-rdf-syntax-ns#">
   <cc:Work>
    <dc:type rdf:resource="http://purl.org/dc/dcmitype/StillImage"/>
    <dc:date>2022-06-26T14:21:43.678394</dc:date>
    <dc:format>image/svg+xml</dc:format>
    <dc:creator>
     <cc:Agent>
      <dc:title>Matplotlib v3.3.2, https://matplotlib.org/</dc:title>
     </cc:Agent>
    </dc:creator>
   </cc:Work>
  </rdf:RDF>
 </metadata>
 <defs>
  <style type="text/css">*{stroke-linecap:butt;stroke-linejoin:round;}</style>
 </defs>
 <g id="figure_1">
  <g id="patch_1">
   <path d="M 0 1440 
L 1440 1440 
L 1440 0 
L 0 0 
z
" style="fill:#ffffff;"/>
  </g>
  <g id="axes_1">
   <g id="patch_2">
    <path d="M 180 889.141671 
L 1296 889.141671 
L 1296 565.258329 
L 180 565.258329 
z
" style="fill:#ffffff;"/>
   </g>
   <g id="PathCollection_1">
    <defs>
     <path d="M 0 3 
C 0.795609 3 1.55874 2.683901 2.12132 2.12132 
C 2.683901 1.55874 3 0.795609 3 0 
C 3 -0.795609 2.683901 -1.55874 2.12132 -2.12132 
C 1.55874 -2.683901 0.795609 -3 0 -3 
C -0.795609 -3 -1.55874 -2.683901 -2.12132 -2.12132 
C -2.683901 -1.55874 -3 -0.795609 -3 0 
C -3 0.795609 -2.683901 1.55874 -2.12132 2.12132 
C -1.55874 2.683901 -0.795609 3 0 3 
z
" id="m42a4c79384" style="stroke:#ff0000;"/>
    </defs>
    <g clip-path="url(#pf341745d25)">
     <use style="fill:#ff0000;stroke:#ff0000;" x="230.727273" xlink:href="#m42a4c79384" y="707.46561"/>
    </g>
   </g>
   <g id="PathCollection_2">
    <g clip-path="url(#pf341745d25)">
     <use style="fill:#ff0000;stroke:#ff0000;" x="863.22305" xlink:href="#m42a4c79384" y="736.996024"/>
    </g>
   </g>
   <g id="PathCollection_3">
    <g clip-path="url(#pf341745d25)">
     <use style="fill:#ff0000;stroke:#ff0000;" x="858.76967" xlink:href="#m42a4c79384" y="733.562301"/>
    </g>
   </g>
   <g id="PathCollection_4">
    <g clip-path="url(#pf341745d25)">
     <use style="fill:#ff0000;stroke:#ff0000;" x="1181.788152" xlink:href="#m42a4c79384" y="859.890454"/>
    </g>
   </g>
   <g id="matplotlib.axis_1">
    <g id="xtick_1">
     <g id="line2d_1">
      <defs>
       <path d="M 0 0 
L 0 3.5 
" id="mdfb4e554a0" style="stroke:#000000;stroke-width:0.8;"/>
      </defs>
      <g>
       <use style="stroke:#000000;stroke-width:0.8;" x="273.444418" xlink:href="#mdfb4e554a0" y="889.141671"/>
      </g>
     </g>
     <g id="text_1">
      <!-- 34.6 -->
      <g transform="translate(246.725668 914.377921)scale(0.24 -0.24)">
       <defs>
        <path d="M 40.578125 39.3125 
Q 47.65625 37.796875 51.625 33 
Q 55.609375 28.21875 55.609375 21.1875 
Q 55.609375 10.40625 48.1875 4.484375 
Q 40.765625 -1.421875 27.09375 -1.421875 
Q 22.515625 -1.421875 17.65625 -0.515625 
Q 12.796875 0.390625 7.625 2.203125 
L 7.625 11.71875 
Q 11.71875 9.328125 16.59375 8.109375 
Q 21.484375 6.890625 26.8125 6.890625 
Q 36.078125 6.890625 40.9375 10.546875 
Q 45.796875 14.203125 45.796875 21.1875 
Q 45.796875 27.640625 41.28125 31.265625 
Q 36.765625 34.90625 28.71875 34.90625 
L 20.21875 34.90625 
L 20.21875 43.015625 
L 29.109375 43.015625 
Q 36.375 43.015625 40.234375 45.921875 
Q 44.09375 48.828125 44.09375 54.296875 
Q 44.09375 59.90625 40.109375 62.90625 
Q 36.140625 65.921875 28.71875 65.921875 
Q 24.65625 65.921875 20.015625 65.03125 
Q 15.375 64.15625 9.8125 62.3125 
L 9.8125 71.09375 
Q 15.4375 72.65625 20.34375 73.4375 
Q 25.25 74.21875 29.59375 74.21875 
Q 40.828125 74.21875 47.359375 69.109375 
Q 53.90625 64.015625 53.90625 55.328125 
Q 53.90625 49.265625 50.4375 45.09375 
Q 46.96875 40.921875 40.578125 39.3125 
z
" id="DejaVuSans-51"/>
        <path d="M 37.796875 64.3125 
L 12.890625 25.390625 
L 37.796875 25.390625 
z
M 35.203125 72.90625 
L 47.609375 72.90625 
L 47.609375 25.390625 
L 58.015625 25.390625 
L 58.015625 17.1875 
L 47.609375 17.1875 
L 47.609375 0 
L 37.796875 0 
L 37.796875 17.1875 
L 4.890625 17.1875 
L 4.890625 26.703125 
z
" id="DejaVuSans-52"/>
        <path d="M 10.6875 12.40625 
L 21 12.40625 
L 21 0 
L 10.6875 0 
z
" id="DejaVuSans-46"/>
        <path d="M 33.015625 40.375 
Q 26.375 40.375 22.484375 35.828125 
Q 18.609375 31.296875 18.609375 23.390625 
Q 18.609375 15.53125 22.484375 10.953125 
Q 26.375 6.390625 33.015625 6.390625 
Q 39.65625 6.390625 43.53125 10.953125 
Q 47.40625 15.53125 47.40625 23.390625 
Q 47.40625 31.296875 43.53125 35.828125 
Q 39.65625 40.375 33.015625 40.375 
z
M 52.59375 71.296875 
L 52.59375 62.3125 
Q 48.875 64.0625 45.09375 64.984375 
Q 41.3125 65.921875 37.59375 65.921875 
Q 27.828125 65.921875 22.671875 59.328125 
Q 17.53125 52.734375 16.796875 39.40625 
Q 19.671875 43.65625 24.015625 45.921875 
Q 28.375 48.1875 33.59375 48.1875 
Q 44.578125 48.1875 50.953125 41.515625 
Q 57.328125 34.859375 57.328125 23.390625 
Q 57.328125 12.15625 50.6875 5.359375 
Q 44.046875 -1.421875 33.015625 -1.421875 
Q 20.359375 -1.421875 13.671875 8.265625 
Q 6.984375 17.96875 6.984375 36.375 
Q 6.984375 53.65625 15.1875 63.9375 
Q 23.390625 74.21875 37.203125 74.21875 
Q 40.921875 74.21875 44.703125 73.484375 
Q 48.484375 72.75 52.59375 71.296875 
z
" id="DejaVuSans-54"/>
       </defs>
       <use xlink:href="#DejaVuSans-51"/>
       <use x="63.623047" xlink:href="#DejaVuSans-52"/>
       <use x="127.246094" xlink:href="#DejaVuSans-46"/>
       <use x="159.033203" xlink:href="#DejaVuSans-54"/>
      </g>
     </g>
    </g>
    <g id="xtick_2">
     <g id="line2d_2">
      <g>
       <use style="stroke:#000000;stroke-width:0.8;" x="451.591586" xlink:href="#mdfb4e554a0" y="889.141671"/>
      </g>
     </g>
     <g id="text_2">
      <!-- 34.8 -->
      <g transform="translate(424.872836 914.377921)scale(0.24 -0.24)">
       <defs>
        <path d="M 31.78125 34.625 
Q 24.75 34.625 20.71875 30.859375 
Q 16.703125 27.09375 16.703125 20.515625 
Q 16.703125 13.921875 20.71875 10.15625 
Q 24.75 6.390625 31.78125 6.390625 
Q 38.8125 6.390625 42.859375 10.171875 
Q 46.921875 13.96875 46.921875 20.515625 
Q 46.921875 27.09375 42.890625 30.859375 
Q 38.875 34.625 31.78125 34.625 
z
M 21.921875 38.8125 
Q 15.578125 40.375 12.03125 44.71875 
Q 8.5 49.078125 8.5 55.328125 
Q 8.5 64.0625 14.71875 69.140625 
Q 20.953125 74.21875 31.78125 74.21875 
Q 42.671875 74.21875 48.875 69.140625 
Q 55.078125 64.0625 55.078125 55.328125 
Q 55.078125 49.078125 51.53125 44.71875 
Q 48 40.375 41.703125 38.8125 
Q 48.828125 37.15625 52.796875 32.3125 
Q 56.78125 27.484375 56.78125 20.515625 
Q 56.78125 9.90625 50.3125 4.234375 
Q 43.84375 -1.421875 31.78125 -1.421875 
Q 19.734375 -1.421875 13.25 4.234375 
Q 6.78125 9.90625 6.78125 20.515625 
Q 6.78125 27.484375 10.78125 32.3125 
Q 14.796875 37.15625 21.921875 38.8125 
z
M 18.3125 54.390625 
Q 18.3125 48.734375 21.84375 45.5625 
Q 25.390625 42.390625 31.78125 42.390625 
Q 38.140625 42.390625 41.71875 45.5625 
Q 45.3125 48.734375 45.3125 54.390625 
Q 45.3125 60.0625 41.71875 63.234375 
Q 38.140625 66.40625 31.78125 66.40625 
Q 25.390625 66.40625 21.84375 63.234375 
Q 18.3125 60.0625 18.3125 54.390625 
z
" id="DejaVuSans-56"/>
       </defs>
       <use xlink:href="#DejaVuSans-51"/>
       <use x="63.623047" xlink:href="#DejaVuSans-52"/>
       <use x="127.246094" xlink:href="#DejaVuSans-46"/>
       <use x="159.033203" xlink:href="#DejaVuSans-56"/>
      </g>
     </g>
    </g>
    <g id="xtick_3">
     <g id="line2d_3">
      <g>
       <use style="stroke:#000000;stroke-width:0.8;" x="629.738754" xlink:href="#mdfb4e554a0" y="889.141671"/>
      </g>
     </g>
     <g id="text_3">
      <!-- 35.0 -->
      <g transform="translate(603.020004 914.377921)scale(0.24 -0.24)">
       <defs>
        <path d="M 10.796875 72.90625 
L 49.515625 72.90625 
L 49.515625 64.59375 
L 19.828125 64.59375 
L 19.828125 46.734375 
Q 21.96875 47.46875 24.109375 47.828125 
Q 26.265625 48.1875 28.421875 48.1875 
Q 40.625 48.1875 47.75 41.5 
Q 54.890625 34.8125 54.890625 23.390625 
Q 54.890625 11.625 47.5625 5.09375 
Q 40.234375 -1.421875 26.90625 -1.421875 
Q 22.3125 -1.421875 17.546875 -0.640625 
Q 12.796875 0.140625 7.71875 1.703125 
L 7.71875 11.625 
Q 12.109375 9.234375 16.796875 8.0625 
Q 21.484375 6.890625 26.703125 6.890625 
Q 35.15625 6.890625 40.078125 11.328125 
Q 45.015625 15.765625 45.015625 23.390625 
Q 45.015625 31 40.078125 35.4375 
Q 35.15625 39.890625 26.703125 39.890625 
Q 22.75 39.890625 18.8125 39.015625 
Q 14.890625 38.140625 10.796875 36.28125 
z
" id="DejaVuSans-53"/>
        <path d="M 31.78125 66.40625 
Q 24.171875 66.40625 20.328125 58.90625 
Q 16.5 51.421875 16.5 36.375 
Q 16.5 21.390625 20.328125 13.890625 
Q 24.171875 6.390625 31.78125 6.390625 
Q 39.453125 6.390625 43.28125 13.890625 
Q 47.125 21.390625 47.125 36.375 
Q 47.125 51.421875 43.28125 58.90625 
Q 39.453125 66.40625 31.78125 66.40625 
z
M 31.78125 74.21875 
Q 44.046875 74.21875 50.515625 64.515625 
Q 56.984375 54.828125 56.984375 36.375 
Q 56.984375 17.96875 50.515625 8.265625 
Q 44.046875 -1.421875 31.78125 -1.421875 
Q 19.53125 -1.421875 13.0625 8.265625 
Q 6.59375 17.96875 6.59375 36.375 
Q 6.59375 54.828125 13.0625 64.515625 
Q 19.53125 74.21875 31.78125 74.21875 
z
" id="DejaVuSans-48"/>
       </defs>
       <use xlink:href="#DejaVuSans-51"/>
       <use x="63.623047" xlink:href="#DejaVuSans-53"/>
       <use x="127.246094" xlink:href="#DejaVuSans-46"/>
       <use x="159.033203" xlink:href="#DejaVuSans-48"/>
      </g>
     </g>
    </g>
    <g id="xtick_4">
     <g id="line2d_4">
      <g>
       <use style="stroke:#000000;stroke-width:0.8;" x="807.885922" xlink:href="#mdfb4e554a0" y="889.141671"/>
      </g>
     </g>
     <g id="text_4">
      <!-- 35.2 -->
      <g transform="translate(781.167172 914.377921)scale(0.24 -0.24)">
       <defs>
        <path d="M 19.1875 8.296875 
L 53.609375 8.296875 
L 53.609375 0 
L 7.328125 0 
L 7.328125 8.296875 
Q 12.9375 14.109375 22.625 23.890625 
Q 32.328125 33.6875 34.8125 36.53125 
Q 39.546875 41.84375 41.421875 45.53125 
Q 43.3125 49.21875 43.3125 52.78125 
Q 43.3125 58.59375 39.234375 62.25 
Q 35.15625 65.921875 28.609375 65.921875 
Q 23.96875 65.921875 18.8125 64.3125 
Q 13.671875 62.703125 7.8125 59.421875 
L 7.8125 69.390625 
Q 13.765625 71.78125 18.9375 73 
Q 24.125 74.21875 28.421875 74.21875 
Q 39.75 74.21875 46.484375 68.546875 
Q 53.21875 62.890625 53.21875 53.421875 
Q 53.21875 48.921875 51.53125 44.890625 
Q 49.859375 40.875 45.40625 35.40625 
Q 44.1875 33.984375 37.640625 27.21875 
Q 31.109375 20.453125 19.1875 8.296875 
z
" id="DejaVuSans-50"/>
       </defs>
       <use xlink:href="#DejaVuSans-51"/>
       <use x="63.623047" xlink:href="#DejaVuSans-53"/>
       <use x="127.246094" xlink:href="#DejaVuSans-46"/>
       <use x="159.033203" xlink:href="#DejaVuSans-50"/>
      </g>
     </g>
    </g>
    <g id="xtick_5">
     <g id="line2d_5">
      <g>
       <use style="stroke:#000000;stroke-width:0.8;" x="986.033091" xlink:href="#mdfb4e554a0" y="889.141671"/>
      </g>
     </g>
     <g id="text_5">
      <!-- 35.4 -->
      <g transform="translate(959.314341 914.377921)scale(0.24 -0.24)">
       <use xlink:href="#DejaVuSans-51"/>
       <use x="63.623047" xlink:href="#DejaVuSans-53"/>
       <use x="127.246094" xlink:href="#DejaVuSans-46"/>
       <use x="159.033203" xlink:href="#DejaVuSans-52"/>
      </g>
     </g>
    </g>
    <g id="xtick_6">
     <g id="line2d_6">
      <g>
       <use style="stroke:#000000;stroke-width:0.8;" x="1164.180259" xlink:href="#mdfb4e554a0" y="889.141671"/>
      </g>
     </g>
     <g id="text_6">
      <!-- 35.6 -->
      <g transform="translate(1137.461509 914.377921)scale(0.24 -0.24)">
       <use xlink:href="#DejaVuSans-51"/>
       <use x="63.623047" xlink:href="#DejaVuSans-53"/>
       <use x="127.246094" xlink:href="#DejaVuSans-46"/>
       <use x="159.033203" xlink:href="#DejaVuSans-54"/>
      </g>
     </g>
    </g>
   </g>
   <g id="matplotlib.axis_2">
    <g id="ytick_1">
     <g id="line2d_7">
      <defs>
       <path d="M 0 0 
L -3.5 0 
" id="ma82895c136" style="stroke:#000000;stroke-width:0.8;"/>
      </defs>
      <g>
       <use style="stroke:#000000;stroke-width:0.8;" x="180" xlink:href="#ma82895c136" y="806.608611"/>
      </g>
     </g>
     <g id="text_7">
      <!-- 61.5 -->
      <g transform="translate(119.5625 815.726736)scale(0.24 -0.24)">
       <defs>
        <path d="M 12.40625 8.296875 
L 28.515625 8.296875 
L 28.515625 63.921875 
L 10.984375 60.40625 
L 10.984375 69.390625 
L 28.421875 72.90625 
L 38.28125 72.90625 
L 38.28125 8.296875 
L 54.390625 8.296875 
L 54.390625 0 
L 12.40625 0 
z
" id="DejaVuSans-49"/>
       </defs>
       <use xlink:href="#DejaVuSans-54"/>
       <use x="63.623047" xlink:href="#DejaVuSans-49"/>
       <use x="127.246094" xlink:href="#DejaVuSans-46"/>
       <use x="159.033203" xlink:href="#DejaVuSans-53"/>
      </g>
     </g>
    </g>
    <g id="ytick_2">
     <g id="line2d_8">
      <g>
       <use style="stroke:#000000;stroke-width:0.8;" x="180" xlink:href="#ma82895c136" y="717.535027"/>
      </g>
     </g>
     <g id="text_8">
      <!-- 61.6 -->
      <g transform="translate(119.5625 726.653152)scale(0.24 -0.24)">
       <use xlink:href="#DejaVuSans-54"/>
       <use x="63.623047" xlink:href="#DejaVuSans-49"/>
       <use x="127.246094" xlink:href="#DejaVuSans-46"/>
       <use x="159.033203" xlink:href="#DejaVuSans-54"/>
      </g>
     </g>
    </g>
    <g id="ytick_3">
     <g id="line2d_9">
      <g>
       <use style="stroke:#000000;stroke-width:0.8;" x="180" xlink:href="#ma82895c136" y="628.461443"/>
      </g>
     </g>
     <g id="text_9">
      <!-- 61.7 -->
      <g transform="translate(119.5625 637.579568)scale(0.24 -0.24)">
       <defs>
        <path d="M 8.203125 72.90625 
L 55.078125 72.90625 
L 55.078125 68.703125 
L 28.609375 0 
L 18.3125 0 
L 43.21875 64.59375 
L 8.203125 64.59375 
z
" id="DejaVuSans-55"/>
       </defs>
       <use xlink:href="#DejaVuSans-54"/>
       <use x="63.623047" xlink:href="#DejaVuSans-49"/>
       <use x="127.246094" xlink:href="#DejaVuSans-46"/>
       <use x="159.033203" xlink:href="#DejaVuSans-55"/>
      </g>
     </g>
    </g>
   </g>
   <g id="line2d_10">
    <path clip-path="url(#pf341745d25)" d="M 230.727273 707.46561 
L 256.065591 671.732074 
L 254.035811 664.194061 
L 257.966977 660.559325 
L 256.979753 662.658233 
L 284.066183 664.354344 
L 282.6893 673.176077 
L 286.582964 674.592885 
L 286.226846 667.259732 
L 285.873622 670.724592 
L 306.266391 660.569244 
L 307.593906 661.113694 
L 313.252539 654.198398 
L 338.902762 674.610231 
L 342.542441 675.214208 
L 342.632185 679.835962 
L 341.621144 692.441575 
L 367.732573 687.323567 
L 367.821823 708.604575 
L 365.699483 700.765768 
L 370.490588 704.153117 
L 371.15651 702.539169 
L 372.184879 699.637487 
L 398.527317 704.733879 
L 400.332598 708.052898 
L 401.513306 716.396633 
L 400.186776 713.604352 
L 399.220015 703.433718 
L 427.159554 700.303158 
L 421.446149 692.625113 
L 426.633124 687.299179 
L 426.44893 678.376513 
L 422.277642 679.625291 
L 421.459443 678.359749 
L 428.354008 674.804003 
L 418.742841 685.194947 
L 454.939859 664.000387 
L 479.518663 674.740756 
L 459.378334 658.293315 
L 486.08905 676.720535 
L 481.478544 669.948915 
L 459.05954 657.491567 
L 483.13937 676.840047 
L 483.449185 668.093841 
L 477.956038 656.992838 
L 505.137842 645.185527 
L 505.021072 643.550148 
L 505.144499 641.1666 
L 515.166089 658.291867 
L 511.500562 665.653725 
L 539.576498 660.30527 
L 538.306609 649.371028 
L 571.160469 635.427031 
L 600.028467 646.044008 
L 575.541159 624.696309 
L 600.087288 638.19011 
L 622.343873 620.635249 
L 634.428328 617.255573 
L 632.751704 620.484986 
L 662.045194 595.336295 
L 653.794379 596.338931 
L 654.589896 580.31757 
L 656.00341 584.247758 
L 680.88106 590.987504 
L 684.299109 595.229111 
L 686.80756 597.273197 
L 707.824391 585.916689 
L 709.319785 580.036658 
L 739.272077 591.628228 
L 713.075023 588.676202 
L 730.446327 589.011283 
L 737.741715 582.576751 
L 736.692979 600.188593 
L 738.533413 587.031338 
L 739.975129 598.110499 
L 740.793017 589.656984 
L 740.001932 599.180713 
L 749.197997 609.342634 
L 747.891985 615.259286 
L 769.767604 628.519338 
L 773.330998 627.613173 
L 769.879988 646.171419 
L 778.500552 644.97873 
L 830.273731 635.653116 
L 828.53289 643.618993 
L 806.381642 637.657433 
L 832.555981 656.927378 
L 832.034938 660.125905 
L 834.26838 661.622985 
L 833.185079 652.694197 
L 833.855443 656.546046 
L 825.324507 655.943019 
L 831.817642 662.786978 
L 827.530489 660.905009 
L 860.888364 665.43472 
L 852.733779 667.077018 
L 861.753168 664.266293 
L 862.438869 667.285506 
L 864.392886 673.86398 
L 864.026064 692.043625 
L 864.299507 696.254469 
L 864.462097 703.572076 
L 884.447239 706.1961 
L 858.509511 708.684718 
L 888.550809 712.550928 
L 884.066142 718.49389 
L 891.338804 720.859442 
L 863.22305 736.996024 
L 858.76967 733.562301 
L 883.212954 721.686718 
L 885.514355 723.196457 
L 883.519657 719.68343 
L 885.279564 722.477738 
L 885.52972 721.604687 
L 916.138282 749.027607 
L 918.124531 734.926286 
L 911.240632 749.285366 
L 915.361399 740.05468 
L 892.217041 761.325289 
L 913.526244 751.869228 
L 915.387318 743.542108 
L 913.376606 738.84624 
L 914.154604 747.55023 
L 937.686015 767.326197 
L 944.973408 763.784387 
L 941.442201 766.538135 
L 944.051427 766.297487 
L 947.331535 766.254421 
L 943.495251 771.378864 
L 942.909174 770.95926 
L 947.447481 769.623621 
L 942.778328 766.446276 
L 941.68449 778.020049 
L 942.184234 770.353814 
L 941.60549 774.838147 
L 942.753307 783.618007 
L 941.646803 777.098142 
L 941.14452 818.184894 
L 941.43208 820.951459 
L 942.403914 824.254297 
L 950.446602 832.537849 
L 943.625627 833.991158 
L 943.556445 838.307337 
L 968.050851 838.563287 
L 975.956462 847.6954 
L 966.541231 852.64173 
L 967.226871 851.41622 
L 971.722961 853.296062 
L 969.324641 849.99226 
L 976.825412 859.365068 
L 979.927764 857.520064 
L 979.35021 854.249373 
L 1005.980328 841.392658 
L 984.88378 855.129271 
L 979.806936 868.87534 
L 980.462332 868.851661 
L 980.40547 871.327728 
L 1010.909806 870.514965 
L 1033.196072 863.128344 
L 1033.234776 864.571011 
L 1041.669012 866.435228 
L 1042.611798 856.149367 
L 1042.386433 861.854693 
L 1070.972575 848.305329 
L 1063.976363 842.513907 
L 1069.681267 845.810924 
L 1068.344442 842.088315 
L 1065.307846 861.552766 
L 1064.534055 865.192569 
L 1072.287739 874.419701 
L 1066.146257 873.329398 
L 1119.048716 863.998688 
L 1119.93906 865.695061 
L 1122.293839 859.695004 
L 1120.185848 859.369323 
L 1150.184536 854.273124 
L 1181.788152 859.890454 
L 1152.189618 856.266169 
L 1154.563942 851.906634 
L 1153.802057 842.267153 
L 1154.893359 816.985743 
L 1157.738779 790.254972 
L 1157.517368 777.431911 
L 1183.535376 790.41303 
L 1186.513186 744.584024 
L 1185.028806 750.78372 
L 1181.764976 746.36176 
L 1181.849573 737.329456 
L 1181.920911 742.760698 
L 1182.060699 740.681485 
L 1214.39552 740.576274 
L 1187.714139 741.291289 
L 1212.061017 723.502417 
L 1213.634246 714.862311 
L 1212.171793 727.112077 
L 1215.455002 721.038616 
L 1213.808282 716.392142 
L 1214.729272 710.037431 
L 1214.151793 722.783346 
L 1214.151793 722.783346 
" style="fill:none;stroke:#1f77b4;stroke-dasharray:5.55,2.4;stroke-dashoffset:0;stroke-opacity:0.4;stroke-width:1.5;"/>
    <defs>
     <path d="M 0 3 
C 0.795609 3 1.55874 2.683901 2.12132 2.12132 
C 2.683901 1.55874 3 0.795609 3 0 
C 3 -0.795609 2.683901 -1.55874 2.12132 -2.12132 
C 1.55874 -2.683901 0.795609 -3 0 -3 
C -0.795609 -3 -1.55874 -2.683901 -2.12132 -2.12132 
C -2.683901 -1.55874 -3 -0.795609 -3 0 
C -3 0.795609 -2.683901 1.55874 -2.12132 2.12132 
C -1.55874 2.683901 -0.795609 3 0 3 
z
" id="m44f5ea7a3b" style="stroke:#1f77b4;stroke-opacity:0.4;"/>
    </defs>
    <g clip-path="url(#pf341745d25)">
     <use style="fill:#1f77b4;fill-opacity:0.4;stroke:#1f77b4;stroke-opacity:0.4;" x="230.727273" xlink:href="#m44f5ea7a3b" y="707.46561"/>
     <use style="fill:#1f77b4;fill-opacity:0.4;stroke:#1f77b4;stroke-opacity:0.4;" x="256.065591" xlink:href="#m44f5ea7a3b" y="671.732074"/>
     <use style="fill:#1f77b4;fill-opacity:0.4;stroke:#1f77b4;stroke-opacity:0.4;" x="254.035811" xlink:href="#m44f5ea7a3b" y="664.194061"/>
     <use style="fill:#1f77b4;fill-opacity:0.4;stroke:#1f77b4;stroke-opacity:0.4;" x="257.966977" xlink:href="#m44f5ea7a3b" y="660.559325"/>
     <use style="fill:#1f77b4;fill-opacity:0.4;stroke:#1f77b4;stroke-opacity:0.4;" x="256.979753" xlink:href="#m44f5ea7a3b" y="662.658233"/>
     <use style="fill:#1f77b4;fill-opacity:0.4;stroke:#1f77b4;stroke-opacity:0.4;" x="284.066183" xlink:href="#m44f5ea7a3b" y="664.354344"/>
     <use style="fill:#1f77b4;fill-opacity:0.4;stroke:#1f77b4;stroke-opacity:0.4;" x="282.6893" xlink:href="#m44f5ea7a3b" y="673.176077"/>
     <use style="fill:#1f77b4;fill-opacity:0.4;stroke:#1f77b4;stroke-opacity:0.4;" x="286.582964" xlink:href="#m44f5ea7a3b" y="674.592885"/>
     <use style="fill:#1f77b4;fill-opacity:0.4;stroke:#1f77b4;stroke-opacity:0.4;" x="286.226846" xlink:href="#m44f5ea7a3b" y="667.259732"/>
     <use style="fill:#1f77b4;fill-opacity:0.4;stroke:#1f77b4;stroke-opacity:0.4;" x="285.873622" xlink:href="#m44f5ea7a3b" y="670.724592"/>
     <use style="fill:#1f77b4;fill-opacity:0.4;stroke:#1f77b4;stroke-opacity:0.4;" x="306.266391" xlink:href="#m44f5ea7a3b" y="660.569244"/>
     <use style="fill:#1f77b4;fill-opacity:0.4;stroke:#1f77b4;stroke-opacity:0.4;" x="307.593906" xlink:href="#m44f5ea7a3b" y="661.113694"/>
     <use style="fill:#1f77b4;fill-opacity:0.4;stroke:#1f77b4;stroke-opacity:0.4;" x="313.252539" xlink:href="#m44f5ea7a3b" y="654.198398"/>
     <use style="fill:#1f77b4;fill-opacity:0.4;stroke:#1f77b4;stroke-opacity:0.4;" x="338.902762" xlink:href="#m44f5ea7a3b" y="674.610231"/>
     <use style="fill:#1f77b4;fill-opacity:0.4;stroke:#1f77b4;stroke-opacity:0.4;" x="342.542441" xlink:href="#m44f5ea7a3b" y="675.214208"/>
     <use style="fill:#1f77b4;fill-opacity:0.4;stroke:#1f77b4;stroke-opacity:0.4;" x="342.632185" xlink:href="#m44f5ea7a3b" y="679.835962"/>
     <use style="fill:#1f77b4;fill-opacity:0.4;stroke:#1f77b4;stroke-opacity:0.4;" x="341.621144" xlink:href="#m44f5ea7a3b" y="692.441575"/>
     <use style="fill:#1f77b4;fill-opacity:0.4;stroke:#1f77b4;stroke-opacity:0.4;" x="367.732573" xlink:href="#m44f5ea7a3b" y="687.323567"/>
     <use style="fill:#1f77b4;fill-opacity:0.4;stroke:#1f77b4;stroke-opacity:0.4;" x="367.821823" xlink:href="#m44f5ea7a3b" y="708.604575"/>
     <use style="fill:#1f77b4;fill-opacity:0.4;stroke:#1f77b4;stroke-opacity:0.4;" x="365.699483" xlink:href="#m44f5ea7a3b" y="700.765768"/>
     <use style="fill:#1f77b4;fill-opacity:0.4;stroke:#1f77b4;stroke-opacity:0.4;" x="370.490588" xlink:href="#m44f5ea7a3b" y="704.153117"/>
     <use style="fill:#1f77b4;fill-opacity:0.4;stroke:#1f77b4;stroke-opacity:0.4;" x="371.15651" xlink:href="#m44f5ea7a3b" y="702.539169"/>
     <use style="fill:#1f77b4;fill-opacity:0.4;stroke:#1f77b4;stroke-opacity:0.4;" x="372.184879" xlink:href="#m44f5ea7a3b" y="699.637487"/>
     <use style="fill:#1f77b4;fill-opacity:0.4;stroke:#1f77b4;stroke-opacity:0.4;" x="398.527317" xlink:href="#m44f5ea7a3b" y="704.733879"/>
     <use style="fill:#1f77b4;fill-opacity:0.4;stroke:#1f77b4;stroke-opacity:0.4;" x="400.332598" xlink:href="#m44f5ea7a3b" y="708.052898"/>
     <use style="fill:#1f77b4;fill-opacity:0.4;stroke:#1f77b4;stroke-opacity:0.4;" x="401.513306" xlink:href="#m44f5ea7a3b" y="716.396633"/>
     <use style="fill:#1f77b4;fill-opacity:0.4;stroke:#1f77b4;stroke-opacity:0.4;" x="400.186776" xlink:href="#m44f5ea7a3b" y="713.604352"/>
     <use style="fill:#1f77b4;fill-opacity:0.4;stroke:#1f77b4;stroke-opacity:0.4;" x="399.220015" xlink:href="#m44f5ea7a3b" y="703.433718"/>
     <use style="fill:#1f77b4;fill-opacity:0.4;stroke:#1f77b4;stroke-opacity:0.4;" x="427.159554" xlink:href="#m44f5ea7a3b" y="700.303158"/>
     <use style="fill:#1f77b4;fill-opacity:0.4;stroke:#1f77b4;stroke-opacity:0.4;" x="421.446149" xlink:href="#m44f5ea7a3b" y="692.625113"/>
     <use style="fill:#1f77b4;fill-opacity:0.4;stroke:#1f77b4;stroke-opacity:0.4;" x="426.633124" xlink:href="#m44f5ea7a3b" y="687.299179"/>
     <use style="fill:#1f77b4;fill-opacity:0.4;stroke:#1f77b4;stroke-opacity:0.4;" x="426.44893" xlink:href="#m44f5ea7a3b" y="678.376513"/>
     <use style="fill:#1f77b4;fill-opacity:0.4;stroke:#1f77b4;stroke-opacity:0.4;" x="422.277642" xlink:href="#m44f5ea7a3b" y="679.625291"/>
     <use style="fill:#1f77b4;fill-opacity:0.4;stroke:#1f77b4;stroke-opacity:0.4;" x="421.459443" xlink:href="#m44f5ea7a3b" y="678.359749"/>
     <use style="fill:#1f77b4;fill-opacity:0.4;stroke:#1f77b4;stroke-opacity:0.4;" x="428.354008" xlink:href="#m44f5ea7a3b" y="674.804003"/>
     <use style="fill:#1f77b4;fill-opacity:0.4;stroke:#1f77b4;stroke-opacity:0.4;" x="418.742841" xlink:href="#m44f5ea7a3b" y="685.194947"/>
     <use style="fill:#1f77b4;fill-opacity:0.4;stroke:#1f77b4;stroke-opacity:0.4;" x="454.939859" xlink:href="#m44f5ea7a3b" y="664.000387"/>
     <use style="fill:#1f77b4;fill-opacity:0.4;stroke:#1f77b4;stroke-opacity:0.4;" x="479.518663" xlink:href="#m44f5ea7a3b" y="674.740756"/>
     <use style="fill:#1f77b4;fill-opacity:0.4;stroke:#1f77b4;stroke-opacity:0.4;" x="459.378334" xlink:href="#m44f5ea7a3b" y="658.293315"/>
     <use style="fill:#1f77b4;fill-opacity:0.4;stroke:#1f77b4;stroke-opacity:0.4;" x="486.08905" xlink:href="#m44f5ea7a3b" y="676.720535"/>
     <use style="fill:#1f77b4;fill-opacity:0.4;stroke:#1f77b4;stroke-opacity:0.4;" x="481.478544" xlink:href="#m44f5ea7a3b" y="669.948915"/>
     <use style="fill:#1f77b4;fill-opacity:0.4;stroke:#1f77b4;stroke-opacity:0.4;" x="459.05954" xlink:href="#m44f5ea7a3b" y="657.491567"/>
     <use style="fill:#1f77b4;fill-opacity:0.4;stroke:#1f77b4;stroke-opacity:0.4;" x="483.13937" xlink:href="#m44f5ea7a3b" y="676.840047"/>
     <use style="fill:#1f77b4;fill-opacity:0.4;stroke:#1f77b4;stroke-opacity:0.4;" x="483.449185" xlink:href="#m44f5ea7a3b" y="668.093841"/>
     <use style="fill:#1f77b4;fill-opacity:0.4;stroke:#1f77b4;stroke-opacity:0.4;" x="477.956038" xlink:href="#m44f5ea7a3b" y="656.992838"/>
     <use style="fill:#1f77b4;fill-opacity:0.4;stroke:#1f77b4;stroke-opacity:0.4;" x="505.137842" xlink:href="#m44f5ea7a3b" y="645.185527"/>
     <use style="fill:#1f77b4;fill-opacity:0.4;stroke:#1f77b4;stroke-opacity:0.4;" x="505.021072" xlink:href="#m44f5ea7a3b" y="643.550148"/>
     <use style="fill:#1f77b4;fill-opacity:0.4;stroke:#1f77b4;stroke-opacity:0.4;" x="505.144499" xlink:href="#m44f5ea7a3b" y="641.1666"/>
     <use style="fill:#1f77b4;fill-opacity:0.4;stroke:#1f77b4;stroke-opacity:0.4;" x="515.166089" xlink:href="#m44f5ea7a3b" y="658.291867"/>
     <use style="fill:#1f77b4;fill-opacity:0.4;stroke:#1f77b4;stroke-opacity:0.4;" x="511.500562" xlink:href="#m44f5ea7a3b" y="665.653725"/>
     <use style="fill:#1f77b4;fill-opacity:0.4;stroke:#1f77b4;stroke-opacity:0.4;" x="539.576498" xlink:href="#m44f5ea7a3b" y="660.30527"/>
     <use style="fill:#1f77b4;fill-opacity:0.4;stroke:#1f77b4;stroke-opacity:0.4;" x="538.306609" xlink:href="#m44f5ea7a3b" y="649.371028"/>
     <use style="fill:#1f77b4;fill-opacity:0.4;stroke:#1f77b4;stroke-opacity:0.4;" x="571.160469" xlink:href="#m44f5ea7a3b" y="635.427031"/>
     <use style="fill:#1f77b4;fill-opacity:0.4;stroke:#1f77b4;stroke-opacity:0.4;" x="600.028467" xlink:href="#m44f5ea7a3b" y="646.044008"/>
     <use style="fill:#1f77b4;fill-opacity:0.4;stroke:#1f77b4;stroke-opacity:0.4;" x="575.541159" xlink:href="#m44f5ea7a3b" y="624.696309"/>
     <use style="fill:#1f77b4;fill-opacity:0.4;stroke:#1f77b4;stroke-opacity:0.4;" x="600.087288" xlink:href="#m44f5ea7a3b" y="638.19011"/>
     <use style="fill:#1f77b4;fill-opacity:0.4;stroke:#1f77b4;stroke-opacity:0.4;" x="622.343873" xlink:href="#m44f5ea7a3b" y="620.635249"/>
     <use style="fill:#1f77b4;fill-opacity:0.4;stroke:#1f77b4;stroke-opacity:0.4;" x="634.428328" xlink:href="#m44f5ea7a3b" y="617.255573"/>
     <use style="fill:#1f77b4;fill-opacity:0.4;stroke:#1f77b4;stroke-opacity:0.4;" x="632.751704" xlink:href="#m44f5ea7a3b" y="620.484986"/>
     <use style="fill:#1f77b4;fill-opacity:0.4;stroke:#1f77b4;stroke-opacity:0.4;" x="662.045194" xlink:href="#m44f5ea7a3b" y="595.336295"/>
     <use style="fill:#1f77b4;fill-opacity:0.4;stroke:#1f77b4;stroke-opacity:0.4;" x="653.794379" xlink:href="#m44f5ea7a3b" y="596.338931"/>
     <use style="fill:#1f77b4;fill-opacity:0.4;stroke:#1f77b4;stroke-opacity:0.4;" x="654.589896" xlink:href="#m44f5ea7a3b" y="580.31757"/>
     <use style="fill:#1f77b4;fill-opacity:0.4;stroke:#1f77b4;stroke-opacity:0.4;" x="656.00341" xlink:href="#m44f5ea7a3b" y="584.247758"/>
     <use style="fill:#1f77b4;fill-opacity:0.4;stroke:#1f77b4;stroke-opacity:0.4;" x="680.88106" xlink:href="#m44f5ea7a3b" y="590.987504"/>
     <use style="fill:#1f77b4;fill-opacity:0.4;stroke:#1f77b4;stroke-opacity:0.4;" x="684.299109" xlink:href="#m44f5ea7a3b" y="595.229111"/>
     <use style="fill:#1f77b4;fill-opacity:0.4;stroke:#1f77b4;stroke-opacity:0.4;" x="686.80756" xlink:href="#m44f5ea7a3b" y="597.273197"/>
     <use style="fill:#1f77b4;fill-opacity:0.4;stroke:#1f77b4;stroke-opacity:0.4;" x="707.824391" xlink:href="#m44f5ea7a3b" y="585.916689"/>
     <use style="fill:#1f77b4;fill-opacity:0.4;stroke:#1f77b4;stroke-opacity:0.4;" x="709.319785" xlink:href="#m44f5ea7a3b" y="580.036658"/>
     <use style="fill:#1f77b4;fill-opacity:0.4;stroke:#1f77b4;stroke-opacity:0.4;" x="739.272077" xlink:href="#m44f5ea7a3b" y="591.628228"/>
     <use style="fill:#1f77b4;fill-opacity:0.4;stroke:#1f77b4;stroke-opacity:0.4;" x="713.075023" xlink:href="#m44f5ea7a3b" y="588.676202"/>
     <use style="fill:#1f77b4;fill-opacity:0.4;stroke:#1f77b4;stroke-opacity:0.4;" x="730.446327" xlink:href="#m44f5ea7a3b" y="589.011283"/>
     <use style="fill:#1f77b4;fill-opacity:0.4;stroke:#1f77b4;stroke-opacity:0.4;" x="737.741715" xlink:href="#m44f5ea7a3b" y="582.576751"/>
     <use style="fill:#1f77b4;fill-opacity:0.4;stroke:#1f77b4;stroke-opacity:0.4;" x="736.692979" xlink:href="#m44f5ea7a3b" y="600.188593"/>
     <use style="fill:#1f77b4;fill-opacity:0.4;stroke:#1f77b4;stroke-opacity:0.4;" x="738.533413" xlink:href="#m44f5ea7a3b" y="587.031338"/>
     <use style="fill:#1f77b4;fill-opacity:0.4;stroke:#1f77b4;stroke-opacity:0.4;" x="739.975129" xlink:href="#m44f5ea7a3b" y="598.110499"/>
     <use style="fill:#1f77b4;fill-opacity:0.4;stroke:#1f77b4;stroke-opacity:0.4;" x="740.793017" xlink:href="#m44f5ea7a3b" y="589.656984"/>
     <use style="fill:#1f77b4;fill-opacity:0.4;stroke:#1f77b4;stroke-opacity:0.4;" x="740.001932" xlink:href="#m44f5ea7a3b" y="599.180713"/>
     <use style="fill:#1f77b4;fill-opacity:0.4;stroke:#1f77b4;stroke-opacity:0.4;" x="749.197997" xlink:href="#m44f5ea7a3b" y="609.342634"/>
     <use style="fill:#1f77b4;fill-opacity:0.4;stroke:#1f77b4;stroke-opacity:0.4;" x="747.891985" xlink:href="#m44f5ea7a3b" y="615.259286"/>
     <use style="fill:#1f77b4;fill-opacity:0.4;stroke:#1f77b4;stroke-opacity:0.4;" x="769.767604" xlink:href="#m44f5ea7a3b" y="628.519338"/>
     <use style="fill:#1f77b4;fill-opacity:0.4;stroke:#1f77b4;stroke-opacity:0.4;" x="773.330998" xlink:href="#m44f5ea7a3b" y="627.613173"/>
     <use style="fill:#1f77b4;fill-opacity:0.4;stroke:#1f77b4;stroke-opacity:0.4;" x="769.879988" xlink:href="#m44f5ea7a3b" y="646.171419"/>
     <use style="fill:#1f77b4;fill-opacity:0.4;stroke:#1f77b4;stroke-opacity:0.4;" x="778.500552" xlink:href="#m44f5ea7a3b" y="644.97873"/>
     <use style="fill:#1f77b4;fill-opacity:0.4;stroke:#1f77b4;stroke-opacity:0.4;" x="830.273731" xlink:href="#m44f5ea7a3b" y="635.653116"/>
     <use style="fill:#1f77b4;fill-opacity:0.4;stroke:#1f77b4;stroke-opacity:0.4;" x="828.53289" xlink:href="#m44f5ea7a3b" y="643.618993"/>
     <use style="fill:#1f77b4;fill-opacity:0.4;stroke:#1f77b4;stroke-opacity:0.4;" x="806.381642" xlink:href="#m44f5ea7a3b" y="637.657433"/>
     <use style="fill:#1f77b4;fill-opacity:0.4;stroke:#1f77b4;stroke-opacity:0.4;" x="832.555981" xlink:href="#m44f5ea7a3b" y="656.927378"/>
     <use style="fill:#1f77b4;fill-opacity:0.4;stroke:#1f77b4;stroke-opacity:0.4;" x="832.034938" xlink:href="#m44f5ea7a3b" y="660.125905"/>
     <use style="fill:#1f77b4;fill-opacity:0.4;stroke:#1f77b4;stroke-opacity:0.4;" x="834.26838" xlink:href="#m44f5ea7a3b" y="661.622985"/>
     <use style="fill:#1f77b4;fill-opacity:0.4;stroke:#1f77b4;stroke-opacity:0.4;" x="833.185079" xlink:href="#m44f5ea7a3b" y="652.694197"/>
     <use style="fill:#1f77b4;fill-opacity:0.4;stroke:#1f77b4;stroke-opacity:0.4;" x="833.855443" xlink:href="#m44f5ea7a3b" y="656.546046"/>
     <use style="fill:#1f77b4;fill-opacity:0.4;stroke:#1f77b4;stroke-opacity:0.4;" x="825.324507" xlink:href="#m44f5ea7a3b" y="655.943019"/>
     <use style="fill:#1f77b4;fill-opacity:0.4;stroke:#1f77b4;stroke-opacity:0.4;" x="831.817642" xlink:href="#m44f5ea7a3b" y="662.786978"/>
     <use style="fill:#1f77b4;fill-opacity:0.4;stroke:#1f77b4;stroke-opacity:0.4;" x="827.530489" xlink:href="#m44f5ea7a3b" y="660.905009"/>
     <use style="fill:#1f77b4;fill-opacity:0.4;stroke:#1f77b4;stroke-opacity:0.4;" x="860.888364" xlink:href="#m44f5ea7a3b" y="665.43472"/>
     <use style="fill:#1f77b4;fill-opacity:0.4;stroke:#1f77b4;stroke-opacity:0.4;" x="852.733779" xlink:href="#m44f5ea7a3b" y="667.077018"/>
     <use style="fill:#1f77b4;fill-opacity:0.4;stroke:#1f77b4;stroke-opacity:0.4;" x="861.753168" xlink:href="#m44f5ea7a3b" y="664.266293"/>
     <use style="fill:#1f77b4;fill-opacity:0.4;stroke:#1f77b4;stroke-opacity:0.4;" x="862.438869" xlink:href="#m44f5ea7a3b" y="667.285506"/>
     <use style="fill:#1f77b4;fill-opacity:0.4;stroke:#1f77b4;stroke-opacity:0.4;" x="864.392886" xlink:href="#m44f5ea7a3b" y="673.86398"/>
     <use style="fill:#1f77b4;fill-opacity:0.4;stroke:#1f77b4;stroke-opacity:0.4;" x="864.026064" xlink:href="#m44f5ea7a3b" y="692.043625"/>
     <use style="fill:#1f77b4;fill-opacity:0.4;stroke:#1f77b4;stroke-opacity:0.4;" x="864.299507" xlink:href="#m44f5ea7a3b" y="696.254469"/>
     <use style="fill:#1f77b4;fill-opacity:0.4;stroke:#1f77b4;stroke-opacity:0.4;" x="864.462097" xlink:href="#m44f5ea7a3b" y="703.572076"/>
     <use style="fill:#1f77b4;fill-opacity:0.4;stroke:#1f77b4;stroke-opacity:0.4;" x="884.447239" xlink:href="#m44f5ea7a3b" y="706.1961"/>
     <use style="fill:#1f77b4;fill-opacity:0.4;stroke:#1f77b4;stroke-opacity:0.4;" x="858.509511" xlink:href="#m44f5ea7a3b" y="708.684718"/>
     <use style="fill:#1f77b4;fill-opacity:0.4;stroke:#1f77b4;stroke-opacity:0.4;" x="888.550809" xlink:href="#m44f5ea7a3b" y="712.550928"/>
     <use style="fill:#1f77b4;fill-opacity:0.4;stroke:#1f77b4;stroke-opacity:0.4;" x="884.066142" xlink:href="#m44f5ea7a3b" y="718.49389"/>
     <use style="fill:#1f77b4;fill-opacity:0.4;stroke:#1f77b4;stroke-opacity:0.4;" x="891.338804" xlink:href="#m44f5ea7a3b" y="720.859442"/>
     <use style="fill:#1f77b4;fill-opacity:0.4;stroke:#1f77b4;stroke-opacity:0.4;" x="863.22305" xlink:href="#m44f5ea7a3b" y="736.996024"/>
     <use style="fill:#1f77b4;fill-opacity:0.4;stroke:#1f77b4;stroke-opacity:0.4;" x="858.76967" xlink:href="#m44f5ea7a3b" y="733.562301"/>
     <use style="fill:#1f77b4;fill-opacity:0.4;stroke:#1f77b4;stroke-opacity:0.4;" x="883.212954" xlink:href="#m44f5ea7a3b" y="721.686718"/>
     <use style="fill:#1f77b4;fill-opacity:0.4;stroke:#1f77b4;stroke-opacity:0.4;" x="885.514355" xlink:href="#m44f5ea7a3b" y="723.196457"/>
     <use style="fill:#1f77b4;fill-opacity:0.4;stroke:#1f77b4;stroke-opacity:0.4;" x="883.519657" xlink:href="#m44f5ea7a3b" y="719.68343"/>
     <use style="fill:#1f77b4;fill-opacity:0.4;stroke:#1f77b4;stroke-opacity:0.4;" x="885.279564" xlink:href="#m44f5ea7a3b" y="722.477738"/>
     <use style="fill:#1f77b4;fill-opacity:0.4;stroke:#1f77b4;stroke-opacity:0.4;" x="885.52972" xlink:href="#m44f5ea7a3b" y="721.604687"/>
     <use style="fill:#1f77b4;fill-opacity:0.4;stroke:#1f77b4;stroke-opacity:0.4;" x="916.138282" xlink:href="#m44f5ea7a3b" y="749.027607"/>
     <use style="fill:#1f77b4;fill-opacity:0.4;stroke:#1f77b4;stroke-opacity:0.4;" x="918.124531" xlink:href="#m44f5ea7a3b" y="734.926286"/>
     <use style="fill:#1f77b4;fill-opacity:0.4;stroke:#1f77b4;stroke-opacity:0.4;" x="911.240632" xlink:href="#m44f5ea7a3b" y="749.285366"/>
     <use style="fill:#1f77b4;fill-opacity:0.4;stroke:#1f77b4;stroke-opacity:0.4;" x="915.361399" xlink:href="#m44f5ea7a3b" y="740.05468"/>
     <use style="fill:#1f77b4;fill-opacity:0.4;stroke:#1f77b4;stroke-opacity:0.4;" x="892.217041" xlink:href="#m44f5ea7a3b" y="761.325289"/>
     <use style="fill:#1f77b4;fill-opacity:0.4;stroke:#1f77b4;stroke-opacity:0.4;" x="913.526244" xlink:href="#m44f5ea7a3b" y="751.869228"/>
     <use style="fill:#1f77b4;fill-opacity:0.4;stroke:#1f77b4;stroke-opacity:0.4;" x="915.387318" xlink:href="#m44f5ea7a3b" y="743.542108"/>
     <use style="fill:#1f77b4;fill-opacity:0.4;stroke:#1f77b4;stroke-opacity:0.4;" x="913.376606" xlink:href="#m44f5ea7a3b" y="738.84624"/>
     <use style="fill:#1f77b4;fill-opacity:0.4;stroke:#1f77b4;stroke-opacity:0.4;" x="914.154604" xlink:href="#m44f5ea7a3b" y="747.55023"/>
     <use style="fill:#1f77b4;fill-opacity:0.4;stroke:#1f77b4;stroke-opacity:0.4;" x="937.686015" xlink:href="#m44f5ea7a3b" y="767.326197"/>
     <use style="fill:#1f77b4;fill-opacity:0.4;stroke:#1f77b4;stroke-opacity:0.4;" x="944.973408" xlink:href="#m44f5ea7a3b" y="763.784387"/>
     <use style="fill:#1f77b4;fill-opacity:0.4;stroke:#1f77b4;stroke-opacity:0.4;" x="941.442201" xlink:href="#m44f5ea7a3b" y="766.538135"/>
     <use style="fill:#1f77b4;fill-opacity:0.4;stroke:#1f77b4;stroke-opacity:0.4;" x="944.051427" xlink:href="#m44f5ea7a3b" y="766.297487"/>
     <use style="fill:#1f77b4;fill-opacity:0.4;stroke:#1f77b4;stroke-opacity:0.4;" x="947.331535" xlink:href="#m44f5ea7a3b" y="766.254421"/>
     <use style="fill:#1f77b4;fill-opacity:0.4;stroke:#1f77b4;stroke-opacity:0.4;" x="943.495251" xlink:href="#m44f5ea7a3b" y="771.378864"/>
     <use style="fill:#1f77b4;fill-opacity:0.4;stroke:#1f77b4;stroke-opacity:0.4;" x="942.909174" xlink:href="#m44f5ea7a3b" y="770.95926"/>
     <use style="fill:#1f77b4;fill-opacity:0.4;stroke:#1f77b4;stroke-opacity:0.4;" x="947.447481" xlink:href="#m44f5ea7a3b" y="769.623621"/>
     <use style="fill:#1f77b4;fill-opacity:0.4;stroke:#1f77b4;stroke-opacity:0.4;" x="942.778328" xlink:href="#m44f5ea7a3b" y="766.446276"/>
     <use style="fill:#1f77b4;fill-opacity:0.4;stroke:#1f77b4;stroke-opacity:0.4;" x="941.68449" xlink:href="#m44f5ea7a3b" y="778.020049"/>
     <use style="fill:#1f77b4;fill-opacity:0.4;stroke:#1f77b4;stroke-opacity:0.4;" x="942.184234" xlink:href="#m44f5ea7a3b" y="770.353814"/>
     <use style="fill:#1f77b4;fill-opacity:0.4;stroke:#1f77b4;stroke-opacity:0.4;" x="941.60549" xlink:href="#m44f5ea7a3b" y="774.838147"/>
     <use style="fill:#1f77b4;fill-opacity:0.4;stroke:#1f77b4;stroke-opacity:0.4;" x="942.753307" xlink:href="#m44f5ea7a3b" y="783.618007"/>
     <use style="fill:#1f77b4;fill-opacity:0.4;stroke:#1f77b4;stroke-opacity:0.4;" x="941.646803" xlink:href="#m44f5ea7a3b" y="777.098142"/>
     <use style="fill:#1f77b4;fill-opacity:0.4;stroke:#1f77b4;stroke-opacity:0.4;" x="941.14452" xlink:href="#m44f5ea7a3b" y="818.184894"/>
     <use style="fill:#1f77b4;fill-opacity:0.4;stroke:#1f77b4;stroke-opacity:0.4;" x="941.43208" xlink:href="#m44f5ea7a3b" y="820.951459"/>
     <use style="fill:#1f77b4;fill-opacity:0.4;stroke:#1f77b4;stroke-opacity:0.4;" x="942.403914" xlink:href="#m44f5ea7a3b" y="824.254297"/>
     <use style="fill:#1f77b4;fill-opacity:0.4;stroke:#1f77b4;stroke-opacity:0.4;" x="950.446602" xlink:href="#m44f5ea7a3b" y="832.537849"/>
     <use style="fill:#1f77b4;fill-opacity:0.4;stroke:#1f77b4;stroke-opacity:0.4;" x="943.625627" xlink:href="#m44f5ea7a3b" y="833.991158"/>
     <use style="fill:#1f77b4;fill-opacity:0.4;stroke:#1f77b4;stroke-opacity:0.4;" x="943.556445" xlink:href="#m44f5ea7a3b" y="838.307337"/>
     <use style="fill:#1f77b4;fill-opacity:0.4;stroke:#1f77b4;stroke-opacity:0.4;" x="968.050851" xlink:href="#m44f5ea7a3b" y="838.563287"/>
     <use style="fill:#1f77b4;fill-opacity:0.4;stroke:#1f77b4;stroke-opacity:0.4;" x="975.956462" xlink:href="#m44f5ea7a3b" y="847.6954"/>
     <use style="fill:#1f77b4;fill-opacity:0.4;stroke:#1f77b4;stroke-opacity:0.4;" x="966.541231" xlink:href="#m44f5ea7a3b" y="852.64173"/>
     <use style="fill:#1f77b4;fill-opacity:0.4;stroke:#1f77b4;stroke-opacity:0.4;" x="967.226871" xlink:href="#m44f5ea7a3b" y="851.41622"/>
     <use style="fill:#1f77b4;fill-opacity:0.4;stroke:#1f77b4;stroke-opacity:0.4;" x="971.722961" xlink:href="#m44f5ea7a3b" y="853.296062"/>
     <use style="fill:#1f77b4;fill-opacity:0.4;stroke:#1f77b4;stroke-opacity:0.4;" x="969.324641" xlink:href="#m44f5ea7a3b" y="849.99226"/>
     <use style="fill:#1f77b4;fill-opacity:0.4;stroke:#1f77b4;stroke-opacity:0.4;" x="976.825412" xlink:href="#m44f5ea7a3b" y="859.365068"/>
     <use style="fill:#1f77b4;fill-opacity:0.4;stroke:#1f77b4;stroke-opacity:0.4;" x="979.927764" xlink:href="#m44f5ea7a3b" y="857.520064"/>
     <use style="fill:#1f77b4;fill-opacity:0.4;stroke:#1f77b4;stroke-opacity:0.4;" x="979.35021" xlink:href="#m44f5ea7a3b" y="854.249373"/>
     <use style="fill:#1f77b4;fill-opacity:0.4;stroke:#1f77b4;stroke-opacity:0.4;" x="1005.980328" xlink:href="#m44f5ea7a3b" y="841.392658"/>
     <use style="fill:#1f77b4;fill-opacity:0.4;stroke:#1f77b4;stroke-opacity:0.4;" x="984.88378" xlink:href="#m44f5ea7a3b" y="855.129271"/>
     <use style="fill:#1f77b4;fill-opacity:0.4;stroke:#1f77b4;stroke-opacity:0.4;" x="979.806936" xlink:href="#m44f5ea7a3b" y="868.87534"/>
     <use style="fill:#1f77b4;fill-opacity:0.4;stroke:#1f77b4;stroke-opacity:0.4;" x="980.462332" xlink:href="#m44f5ea7a3b" y="868.851661"/>
     <use style="fill:#1f77b4;fill-opacity:0.4;stroke:#1f77b4;stroke-opacity:0.4;" x="980.40547" xlink:href="#m44f5ea7a3b" y="871.327728"/>
     <use style="fill:#1f77b4;fill-opacity:0.4;stroke:#1f77b4;stroke-opacity:0.4;" x="1010.909806" xlink:href="#m44f5ea7a3b" y="870.514965"/>
     <use style="fill:#1f77b4;fill-opacity:0.4;stroke:#1f77b4;stroke-opacity:0.4;" x="1033.196072" xlink:href="#m44f5ea7a3b" y="863.128344"/>
     <use style="fill:#1f77b4;fill-opacity:0.4;stroke:#1f77b4;stroke-opacity:0.4;" x="1033.234776" xlink:href="#m44f5ea7a3b" y="864.571011"/>
     <use style="fill:#1f77b4;fill-opacity:0.4;stroke:#1f77b4;stroke-opacity:0.4;" x="1041.669012" xlink:href="#m44f5ea7a3b" y="866.435228"/>
     <use style="fill:#1f77b4;fill-opacity:0.4;stroke:#1f77b4;stroke-opacity:0.4;" x="1042.611798" xlink:href="#m44f5ea7a3b" y="856.149367"/>
     <use style="fill:#1f77b4;fill-opacity:0.4;stroke:#1f77b4;stroke-opacity:0.4;" x="1042.386433" xlink:href="#m44f5ea7a3b" y="861.854693"/>
     <use style="fill:#1f77b4;fill-opacity:0.4;stroke:#1f77b4;stroke-opacity:0.4;" x="1070.972575" xlink:href="#m44f5ea7a3b" y="848.305329"/>
     <use style="fill:#1f77b4;fill-opacity:0.4;stroke:#1f77b4;stroke-opacity:0.4;" x="1063.976363" xlink:href="#m44f5ea7a3b" y="842.513907"/>
     <use style="fill:#1f77b4;fill-opacity:0.4;stroke:#1f77b4;stroke-opacity:0.4;" x="1069.681267" xlink:href="#m44f5ea7a3b" y="845.810924"/>
     <use style="fill:#1f77b4;fill-opacity:0.4;stroke:#1f77b4;stroke-opacity:0.4;" x="1068.344442" xlink:href="#m44f5ea7a3b" y="842.088315"/>
     <use style="fill:#1f77b4;fill-opacity:0.4;stroke:#1f77b4;stroke-opacity:0.4;" x="1065.307846" xlink:href="#m44f5ea7a3b" y="861.552766"/>
     <use style="fill:#1f77b4;fill-opacity:0.4;stroke:#1f77b4;stroke-opacity:0.4;" x="1064.534055" xlink:href="#m44f5ea7a3b" y="865.192569"/>
     <use style="fill:#1f77b4;fill-opacity:0.4;stroke:#1f77b4;stroke-opacity:0.4;" x="1072.287739" xlink:href="#m44f5ea7a3b" y="874.419701"/>
     <use style="fill:#1f77b4;fill-opacity:0.4;stroke:#1f77b4;stroke-opacity:0.4;" x="1066.146257" xlink:href="#m44f5ea7a3b" y="873.329398"/>
     <use style="fill:#1f77b4;fill-opacity:0.4;stroke:#1f77b4;stroke-opacity:0.4;" x="1119.048716" xlink:href="#m44f5ea7a3b" y="863.998688"/>
     <use style="fill:#1f77b4;fill-opacity:0.4;stroke:#1f77b4;stroke-opacity:0.4;" x="1119.93906" xlink:href="#m44f5ea7a3b" y="865.695061"/>
     <use style="fill:#1f77b4;fill-opacity:0.4;stroke:#1f77b4;stroke-opacity:0.4;" x="1122.293839" xlink:href="#m44f5ea7a3b" y="859.695004"/>
     <use style="fill:#1f77b4;fill-opacity:0.4;stroke:#1f77b4;stroke-opacity:0.4;" x="1120.185848" xlink:href="#m44f5ea7a3b" y="859.369323"/>
     <use style="fill:#1f77b4;fill-opacity:0.4;stroke:#1f77b4;stroke-opacity:0.4;" x="1150.184536" xlink:href="#m44f5ea7a3b" y="854.273124"/>
     <use style="fill:#1f77b4;fill-opacity:0.4;stroke:#1f77b4;stroke-opacity:0.4;" x="1181.788152" xlink:href="#m44f5ea7a3b" y="859.890454"/>
     <use style="fill:#1f77b4;fill-opacity:0.4;stroke:#1f77b4;stroke-opacity:0.4;" x="1152.189618" xlink:href="#m44f5ea7a3b" y="856.266169"/>
     <use style="fill:#1f77b4;fill-opacity:0.4;stroke:#1f77b4;stroke-opacity:0.4;" x="1154.563942" xlink:href="#m44f5ea7a3b" y="851.906634"/>
     <use style="fill:#1f77b4;fill-opacity:0.4;stroke:#1f77b4;stroke-opacity:0.4;" x="1153.802057" xlink:href="#m44f5ea7a3b" y="842.267153"/>
     <use style="fill:#1f77b4;fill-opacity:0.4;stroke:#1f77b4;stroke-opacity:0.4;" x="1154.893359" xlink:href="#m44f5ea7a3b" y="816.985743"/>
     <use style="fill:#1f77b4;fill-opacity:0.4;stroke:#1f77b4;stroke-opacity:0.4;" x="1157.738779" xlink:href="#m44f5ea7a3b" y="790.254972"/>
     <use style="fill:#1f77b4;fill-opacity:0.4;stroke:#1f77b4;stroke-opacity:0.4;" x="1157.517368" xlink:href="#m44f5ea7a3b" y="777.431911"/>
     <use style="fill:#1f77b4;fill-opacity:0.4;stroke:#1f77b4;stroke-opacity:0.4;" x="1183.535376" xlink:href="#m44f5ea7a3b" y="790.41303"/>
     <use style="fill:#1f77b4;fill-opacity:0.4;stroke:#1f77b4;stroke-opacity:0.4;" x="1185.890668" xlink:href="#m44f5ea7a3b" y="753.152772"/>
     <use style="fill:#1f77b4;fill-opacity:0.4;stroke:#1f77b4;stroke-opacity:0.4;" x="1186.513186" xlink:href="#m44f5ea7a3b" y="744.584024"/>
     <use style="fill:#1f77b4;fill-opacity:0.4;stroke:#1f77b4;stroke-opacity:0.4;" x="1185.028806" xlink:href="#m44f5ea7a3b" y="750.78372"/>
     <use style="fill:#1f77b4;fill-opacity:0.4;stroke:#1f77b4;stroke-opacity:0.4;" x="1181.764976" xlink:href="#m44f5ea7a3b" y="746.36176"/>
     <use style="fill:#1f77b4;fill-opacity:0.4;stroke:#1f77b4;stroke-opacity:0.4;" x="1181.849573" xlink:href="#m44f5ea7a3b" y="737.329456"/>
     <use style="fill:#1f77b4;fill-opacity:0.4;stroke:#1f77b4;stroke-opacity:0.4;" x="1181.920911" xlink:href="#m44f5ea7a3b" y="742.760698"/>
     <use style="fill:#1f77b4;fill-opacity:0.4;stroke:#1f77b4;stroke-opacity:0.4;" x="1182.060699" xlink:href="#m44f5ea7a3b" y="740.681485"/>
     <use style="fill:#1f77b4;fill-opacity:0.4;stroke:#1f77b4;stroke-opacity:0.4;" x="1214.39552" xlink:href="#m44f5ea7a3b" y="740.576274"/>
     <use style="fill:#1f77b4;fill-opacity:0.4;stroke:#1f77b4;stroke-opacity:0.4;" x="1187.714139" xlink:href="#m44f5ea7a3b" y="741.291289"/>
     <use style="fill:#1f77b4;fill-opacity:0.4;stroke:#1f77b4;stroke-opacity:0.4;" x="1212.061017" xlink:href="#m44f5ea7a3b" y="723.502417"/>
     <use style="fill:#1f77b4;fill-opacity:0.4;stroke:#1f77b4;stroke-opacity:0.4;" x="1213.634246" xlink:href="#m44f5ea7a3b" y="714.862311"/>
     <use style="fill:#1f77b4;fill-opacity:0.4;stroke:#1f77b4;stroke-opacity:0.4;" x="1212.171793" xlink:href="#m44f5ea7a3b" y="727.112077"/>
     <use style="fill:#1f77b4;fill-opacity:0.4;stroke:#1f77b4;stroke-opacity:0.4;" x="1215.455002" xlink:href="#m44f5ea7a3b" y="721.038616"/>
     <use style="fill:#1f77b4;fill-opacity:0.4;stroke:#1f77b4;stroke-opacity:0.4;" x="1213.808282" xlink:href="#m44f5ea7a3b" y="716.392142"/>
     <use style="fill:#1f77b4;fill-opacity:0.4;stroke:#1f77b4;stroke-opacity:0.4;" x="1214.729272" xlink:href="#m44f5ea7a3b" y="710.037431"/>
     <use style="fill:#1f77b4;fill-opacity:0.4;stroke:#1f77b4;stroke-opacity:0.4;" x="1214.151793" xlink:href="#m44f5ea7a3b" y="722.783346"/>
    </g>
   </g>
   <g id="line2d_11">
    <path clip-path="url(#pf341745d25)" d="M 247.161454 663.173211 
L 398.03089 699.655324 
" style="fill:none;stroke:#fec216;stroke-linecap:square;stroke-opacity:0.4;stroke-width:8;"/>
   </g>
   <g id="line2d_12">
    <path clip-path="url(#pf341745d25)" d="M 398.03089 699.655324 
L 711.45704 579.980299 
" style="fill:none;stroke:#fec216;stroke-linecap:square;stroke-opacity:0.4;stroke-width:8;"/>
   </g>
   <g id="line2d_13">
    <path clip-path="url(#pf341745d25)" d="M 711.45704 579.980299 
L 858.523491 674.0797 
" style="fill:none;stroke:#fec216;stroke-linecap:square;stroke-opacity:0.4;stroke-width:8;"/>
   </g>
   <g id="line2d_14">
    <path clip-path="url(#pf341745d25)" d="M 858.523491 674.0797 
L 984.697024 859.103811 
" style="fill:none;stroke:#fec216;stroke-linecap:square;stroke-opacity:0.4;stroke-width:8;"/>
   </g>
   <g id="line2d_15">
    <path clip-path="url(#pf341745d25)" d="M 984.697024 859.103811 
L 1139.189022 862.098501 
" style="fill:none;stroke:#fec216;stroke-linecap:square;stroke-opacity:0.4;stroke-width:8;"/>
   </g>
   <g id="line2d_16">
    <path clip-path="url(#pf341745d25)" d="M 1139.189022 862.098501 
L 1245.272727 648.303929 
" style="fill:none;stroke:#fec216;stroke-linecap:square;stroke-opacity:0.4;stroke-width:8;"/>
   </g>
   <g id="patch_3">
    <path d="M 180 889.141671 
L 180 565.258329 
" style="fill:none;stroke:#000000;stroke-linecap:square;stroke-linejoin:miter;stroke-width:0.8;"/>
   </g>
   <g id="patch_4">
    <path d="M 1296 889.141671 
L 1296 565.258329 
" style="fill:none;stroke:#000000;stroke-linecap:square;stroke-linejoin:miter;stroke-width:0.8;"/>
   </g>
   <g id="patch_5">
    <path d="M 180 889.141671 
L 1296 889.141671 
" style="fill:none;stroke:#000000;stroke-linecap:square;stroke-linejoin:miter;stroke-width:0.8;"/>
   </g>
   <g id="patch_6">
    <path d="M 180 565.258329 
L 1296 565.258329 
" style="fill:none;stroke:#000000;stroke-linecap:square;stroke-linejoin:miter;stroke-width:0.8;"/>
   </g>
   <g id="legend_1">
    <g id="patch_7">
     <path d="M 198.2 876.141671 
L 362.361562 876.141671 
Q 367.561562 876.141671 367.561562 870.941671 
L 367.561562 797.215421 
Q 367.561562 792.015421 362.361562 792.015421 
L 198.2 792.015421 
Q 193 792.015421 193 797.215421 
L 193 870.941671 
Q 193 876.141671 198.2 876.141671 
z
" style="fill:#ffffff;opacity:0.8;stroke:#cccccc;stroke-linejoin:miter;"/>
    </g>
    <g id="line2d_17">
     <path d="M 203.4 813.071359 
L 255.4 813.071359 
" style="fill:none;stroke:#1f77b4;stroke-dasharray:5.55,2.4;stroke-dashoffset:0;stroke-opacity:0.4;stroke-width:1.5;"/>
    </g>
    <g id="line2d_18">
     <g>
      <use style="fill:#1f77b4;fill-opacity:0.4;stroke:#1f77b4;stroke-opacity:0.4;" x="229.4" xlink:href="#m44f5ea7a3b" y="813.071359"/>
     </g>
    </g>
    <g id="text_10">
     <!-- data -->
     <g transform="translate(276.2 822.171359)scale(0.26 -0.26)">
      <defs>
       <path d="M 45.40625 46.390625 
L 45.40625 75.984375 
L 54.390625 75.984375 
L 54.390625 0 
L 45.40625 0 
L 45.40625 8.203125 
Q 42.578125 3.328125 38.25 0.953125 
Q 33.9375 -1.421875 27.875 -1.421875 
Q 17.96875 -1.421875 11.734375 6.484375 
Q 5.515625 14.40625 5.515625 27.296875 
Q 5.515625 40.1875 11.734375 48.09375 
Q 17.96875 56 27.875 56 
Q 33.9375 56 38.25 53.625 
Q 42.578125 51.265625 45.40625 46.390625 
z
M 14.796875 27.296875 
Q 14.796875 17.390625 18.875 11.75 
Q 22.953125 6.109375 30.078125 6.109375 
Q 37.203125 6.109375 41.296875 11.75 
Q 45.40625 17.390625 45.40625 27.296875 
Q 45.40625 37.203125 41.296875 42.84375 
Q 37.203125 48.484375 30.078125 48.484375 
Q 22.953125 48.484375 18.875 42.84375 
Q 14.796875 37.203125 14.796875 27.296875 
z
" id="DejaVuSans-100"/>
       <path d="M 34.28125 27.484375 
Q 23.390625 27.484375 19.1875 25 
Q 14.984375 22.515625 14.984375 16.5 
Q 14.984375 11.71875 18.140625 8.90625 
Q 21.296875 6.109375 26.703125 6.109375 
Q 34.1875 6.109375 38.703125 11.40625 
Q 43.21875 16.703125 43.21875 25.484375 
L 43.21875 27.484375 
z
M 52.203125 31.203125 
L 52.203125 0 
L 43.21875 0 
L 43.21875 8.296875 
Q 40.140625 3.328125 35.546875 0.953125 
Q 30.953125 -1.421875 24.3125 -1.421875 
Q 15.921875 -1.421875 10.953125 3.296875 
Q 6 8.015625 6 15.921875 
Q 6 25.140625 12.171875 29.828125 
Q 18.359375 34.515625 30.609375 34.515625 
L 43.21875 34.515625 
L 43.21875 35.40625 
Q 43.21875 41.609375 39.140625 45 
Q 35.0625 48.390625 27.6875 48.390625 
Q 23 48.390625 18.546875 47.265625 
Q 14.109375 46.140625 10.015625 43.890625 
L 10.015625 52.203125 
Q 14.9375 54.109375 19.578125 55.046875 
Q 24.21875 56 28.609375 56 
Q 40.484375 56 46.34375 49.84375 
Q 52.203125 43.703125 52.203125 31.203125 
z
" id="DejaVuSans-97"/>
       <path d="M 18.3125 70.21875 
L 18.3125 54.6875 
L 36.8125 54.6875 
L 36.8125 47.703125 
L 18.3125 47.703125 
L 18.3125 18.015625 
Q 18.3125 11.328125 20.140625 9.421875 
Q 21.96875 7.515625 27.59375 7.515625 
L 36.8125 7.515625 
L 36.8125 0 
L 27.59375 0 
Q 17.1875 0 13.234375 3.875 
Q 9.28125 7.765625 9.28125 18.015625 
L 9.28125 47.703125 
L 2.6875 47.703125 
L 2.6875 54.6875 
L 9.28125 54.6875 
L 9.28125 70.21875 
z
" id="DejaVuSans-116"/>
      </defs>
      <use xlink:href="#DejaVuSans-100"/>
      <use x="63.476562" xlink:href="#DejaVuSans-97"/>
      <use x="124.755859" xlink:href="#DejaVuSans-116"/>
      <use x="163.964844" xlink:href="#DejaVuSans-97"/>
     </g>
    </g>
    <g id="line2d_19">
     <path d="M 203.4 851.234484 
L 255.4 851.234484 
" style="fill:none;stroke:#fec216;stroke-linecap:square;stroke-opacity:0.4;stroke-width:8;"/>
    </g>
    <g id="line2d_20"/>
    <g id="text_11">
     <!-- model -->
     <g transform="translate(276.2 860.334484)scale(0.26 -0.26)">
      <defs>
       <path d="M 52 44.1875 
Q 55.375 50.25 60.0625 53.125 
Q 64.75 56 71.09375 56 
Q 79.640625 56 84.28125 50.015625 
Q 88.921875 44.046875 88.921875 33.015625 
L 88.921875 0 
L 79.890625 0 
L 79.890625 32.71875 
Q 79.890625 40.578125 77.09375 44.375 
Q 74.3125 48.1875 68.609375 48.1875 
Q 61.625 48.1875 57.5625 43.546875 
Q 53.515625 38.921875 53.515625 30.90625 
L 53.515625 0 
L 44.484375 0 
L 44.484375 32.71875 
Q 44.484375 40.625 41.703125 44.40625 
Q 38.921875 48.1875 33.109375 48.1875 
Q 26.21875 48.1875 22.15625 43.53125 
Q 18.109375 38.875 18.109375 30.90625 
L 18.109375 0 
L 9.078125 0 
L 9.078125 54.6875 
L 18.109375 54.6875 
L 18.109375 46.1875 
Q 21.1875 51.21875 25.484375 53.609375 
Q 29.78125 56 35.6875 56 
Q 41.65625 56 45.828125 52.96875 
Q 50 49.953125 52 44.1875 
z
" id="DejaVuSans-109"/>
       <path d="M 30.609375 48.390625 
Q 23.390625 48.390625 19.1875 42.75 
Q 14.984375 37.109375 14.984375 27.296875 
Q 14.984375 17.484375 19.15625 11.84375 
Q 23.34375 6.203125 30.609375 6.203125 
Q 37.796875 6.203125 41.984375 11.859375 
Q 46.1875 17.53125 46.1875 27.296875 
Q 46.1875 37.015625 41.984375 42.703125 
Q 37.796875 48.390625 30.609375 48.390625 
z
M 30.609375 56 
Q 42.328125 56 49.015625 48.375 
Q 55.71875 40.765625 55.71875 27.296875 
Q 55.71875 13.875 49.015625 6.21875 
Q 42.328125 -1.421875 30.609375 -1.421875 
Q 18.84375 -1.421875 12.171875 6.21875 
Q 5.515625 13.875 5.515625 27.296875 
Q 5.515625 40.765625 12.171875 48.375 
Q 18.84375 56 30.609375 56 
z
" id="DejaVuSans-111"/>
       <path d="M 56.203125 29.59375 
L 56.203125 25.203125 
L 14.890625 25.203125 
Q 15.484375 15.921875 20.484375 11.0625 
Q 25.484375 6.203125 34.421875 6.203125 
Q 39.59375 6.203125 44.453125 7.46875 
Q 49.3125 8.734375 54.109375 11.28125 
L 54.109375 2.78125 
Q 49.265625 0.734375 44.1875 -0.34375 
Q 39.109375 -1.421875 33.890625 -1.421875 
Q 20.796875 -1.421875 13.15625 6.1875 
Q 5.515625 13.8125 5.515625 26.8125 
Q 5.515625 40.234375 12.765625 48.109375 
Q 20.015625 56 32.328125 56 
Q 43.359375 56 49.78125 48.890625 
Q 56.203125 41.796875 56.203125 29.59375 
z
M 47.21875 32.234375 
Q 47.125 39.59375 43.09375 43.984375 
Q 39.0625 48.390625 32.421875 48.390625 
Q 24.90625 48.390625 20.390625 44.140625 
Q 15.875 39.890625 15.1875 32.171875 
z
" id="DejaVuSans-101"/>
       <path d="M 9.421875 75.984375 
L 18.40625 75.984375 
L 18.40625 0 
L 9.421875 0 
z
" id="DejaVuSans-108"/>
      </defs>
      <use xlink:href="#DejaVuSans-109"/>
      <use x="97.412109" xlink:href="#DejaVuSans-111"/>
      <use x="158.59375" xlink:href="#DejaVuSans-100"/>
      <use x="222.070312" xlink:href="#DejaVuSans-101"/>
      <use x="283.59375" xlink:href="#DejaVuSans-108"/>
     </g>
    </g>
   </g>
  </g>
 </g>
 <defs>
  <clipPath id="pf341745d25">
   <rect height="323.883342" width="1116" x="180" y="565.258329"/>
  </clipPath>
 </defs>
</svg>
