<?xml version="1.0" encoding="utf-8" standalone="no"?>
<!DOCTYPE svg PUBLIC "-//W3C//DTD SVG 1.1//EN"
  "http://www.w3.org/Graphics/SVG/1.1/DTD/svg11.dtd">
<!-- Created with matplotlib (https://matplotlib.org/) -->
<svg height="1440pt" version="1.1" viewBox="0 0 1440 1440" width="1440pt" xmlns="http://www.w3.org/2000/svg" xmlns:xlink="http://www.w3.org/1999/xlink">
 <metadata>
  <rdf:RDF xmlns:cc="http://creativecommons.org/ns#" xmlns:dc="http://purl.org/dc/elements/1.1/" xmlns:rdf="http://www.w3.org/1999/02/22-rdf-syntax-ns#">
   <cc:Work>
    <dc:type rdf:resource="http://purl.org/dc/dcmitype/StillImage"/>
    <dc:date>2022-06-26T14:21:17.610923</dc:date>
    <dc:format>image/svg+xml</dc:format>
    <dc:creator>
     <cc:Agent>
      <dc:title>Matplotlib v3.3.2, https://matplotlib.org/</dc:title>
     </cc:Agent>
    </dc:creator>
   </cc:Work>
  </rdf:RDF>
 </metadata>
 <defs>
  <style type="text/css">*{stroke-linecap:butt;stroke-linejoin:round;}</style>
 </defs>
 <g id="figure_1">
  <g id="patch_1">
   <path d="M 0 1440 
L 1440 1440 
L 1440 0 
L 0 0 
z
" style="fill:#ffffff;"/>
  </g>
  <g id="axes_1">
   <g id="patch_2">
    <path d="M 180 894.013357 
L 1296 894.013357 
L 1296 560.386643 
L 180 560.386643 
z
" style="fill:#ffffff;"/>
   </g>
   <g id="matplotlib.axis_1">
    <g id="xtick_1">
     <g id="line2d_1">
      <defs>
       <path d="M 0 0 
L 0 3.5 
" id="m68ec74d1b6" style="stroke:#000000;stroke-width:0.8;"/>
      </defs>
      <g>
       <use style="stroke:#000000;stroke-width:0.8;" x="274.737901" xlink:href="#m68ec74d1b6" y="894.013357"/>
      </g>
     </g>
     <g id="text_1">
      <!-- 34.6 -->
      <g transform="translate(248.019151 919.249607)scale(0.24 -0.24)">
       <defs>
        <path d="M 40.578125 39.3125 
Q 47.65625 37.796875 51.625 33 
Q 55.609375 28.21875 55.609375 21.1875 
Q 55.609375 10.40625 48.1875 4.484375 
Q 40.765625 -1.421875 27.09375 -1.421875 
Q 22.515625 -1.421875 17.65625 -0.515625 
Q 12.796875 0.390625 7.625 2.203125 
L 7.625 11.71875 
Q 11.71875 9.328125 16.59375 8.109375 
Q 21.484375 6.890625 26.8125 6.890625 
Q 36.078125 6.890625 40.9375 10.546875 
Q 45.796875 14.203125 45.796875 21.1875 
Q 45.796875 27.640625 41.28125 31.265625 
Q 36.765625 34.90625 28.71875 34.90625 
L 20.21875 34.90625 
L 20.21875 43.015625 
L 29.109375 43.015625 
Q 36.375 43.015625 40.234375 45.921875 
Q 44.09375 48.828125 44.09375 54.296875 
Q 44.09375 59.90625 40.109375 62.90625 
Q 36.140625 65.921875 28.71875 65.921875 
Q 24.65625 65.921875 20.015625 65.03125 
Q 15.375 64.15625 9.8125 62.3125 
L 9.8125 71.09375 
Q 15.4375 72.65625 20.34375 73.4375 
Q 25.25 74.21875 29.59375 74.21875 
Q 40.828125 74.21875 47.359375 69.109375 
Q 53.90625 64.015625 53.90625 55.328125 
Q 53.90625 49.265625 50.4375 45.09375 
Q 46.96875 40.921875 40.578125 39.3125 
z
" id="DejaVuSans-51"/>
        <path d="M 37.796875 64.3125 
L 12.890625 25.390625 
L 37.796875 25.390625 
z
M 35.203125 72.90625 
L 47.609375 72.90625 
L 47.609375 25.390625 
L 58.015625 25.390625 
L 58.015625 17.1875 
L 47.609375 17.1875 
L 47.609375 0 
L 37.796875 0 
L 37.796875 17.1875 
L 4.890625 17.1875 
L 4.890625 26.703125 
z
" id="DejaVuSans-52"/>
        <path d="M 10.6875 12.40625 
L 21 12.40625 
L 21 0 
L 10.6875 0 
z
" id="DejaVuSans-46"/>
        <path d="M 33.015625 40.375 
Q 26.375 40.375 22.484375 35.828125 
Q 18.609375 31.296875 18.609375 23.390625 
Q 18.609375 15.53125 22.484375 10.953125 
Q 26.375 6.390625 33.015625 6.390625 
Q 39.65625 6.390625 43.53125 10.953125 
Q 47.40625 15.53125 47.40625 23.390625 
Q 47.40625 31.296875 43.53125 35.828125 
Q 39.65625 40.375 33.015625 40.375 
z
M 52.59375 71.296875 
L 52.59375 62.3125 
Q 48.875 64.0625 45.09375 64.984375 
Q 41.3125 65.921875 37.59375 65.921875 
Q 27.828125 65.921875 22.671875 59.328125 
Q 17.53125 52.734375 16.796875 39.40625 
Q 19.671875 43.65625 24.015625 45.921875 
Q 28.375 48.1875 33.59375 48.1875 
Q 44.578125 48.1875 50.953125 41.515625 
Q 57.328125 34.859375 57.328125 23.390625 
Q 57.328125 12.15625 50.6875 5.359375 
Q 44.046875 -1.421875 33.015625 -1.421875 
Q 20.359375 -1.421875 13.671875 8.265625 
Q 6.984375 17.96875 6.984375 36.375 
Q 6.984375 53.65625 15.1875 63.9375 
Q 23.390625 74.21875 37.203125 74.21875 
Q 40.921875 74.21875 44.703125 73.484375 
Q 48.484375 72.75 52.59375 71.296875 
z
" id="DejaVuSans-54"/>
       </defs>
       <use xlink:href="#DejaVuSans-51"/>
       <use x="63.623047" xlink:href="#DejaVuSans-52"/>
       <use x="127.246094" xlink:href="#DejaVuSans-46"/>
       <use x="159.033203" xlink:href="#DejaVuSans-54"/>
      </g>
     </g>
    </g>
    <g id="xtick_2">
     <g id="line2d_2">
      <g>
       <use style="stroke:#000000;stroke-width:0.8;" x="458.279396" xlink:href="#m68ec74d1b6" y="894.013357"/>
      </g>
     </g>
     <g id="text_2">
      <!-- 34.8 -->
      <g transform="translate(431.560646 919.249607)scale(0.24 -0.24)">
       <defs>
        <path d="M 31.78125 34.625 
Q 24.75 34.625 20.71875 30.859375 
Q 16.703125 27.09375 16.703125 20.515625 
Q 16.703125 13.921875 20.71875 10.15625 
Q 24.75 6.390625 31.78125 6.390625 
Q 38.8125 6.390625 42.859375 10.171875 
Q 46.921875 13.96875 46.921875 20.515625 
Q 46.921875 27.09375 42.890625 30.859375 
Q 38.875 34.625 31.78125 34.625 
z
M 21.921875 38.8125 
Q 15.578125 40.375 12.03125 44.71875 
Q 8.5 49.078125 8.5 55.328125 
Q 8.5 64.0625 14.71875 69.140625 
Q 20.953125 74.21875 31.78125 74.21875 
Q 42.671875 74.21875 48.875 69.140625 
Q 55.078125 64.0625 55.078125 55.328125 
Q 55.078125 49.078125 51.53125 44.71875 
Q 48 40.375 41.703125 38.8125 
Q 48.828125 37.15625 52.796875 32.3125 
Q 56.78125 27.484375 56.78125 20.515625 
Q 56.78125 9.90625 50.3125 4.234375 
Q 43.84375 -1.421875 31.78125 -1.421875 
Q 19.734375 -1.421875 13.25 4.234375 
Q 6.78125 9.90625 6.78125 20.515625 
Q 6.78125 27.484375 10.78125 32.3125 
Q 14.796875 37.15625 21.921875 38.8125 
z
M 18.3125 54.390625 
Q 18.3125 48.734375 21.84375 45.5625 
Q 25.390625 42.390625 31.78125 42.390625 
Q 38.140625 42.390625 41.71875 45.5625 
Q 45.3125 48.734375 45.3125 54.390625 
Q 45.3125 60.0625 41.71875 63.234375 
Q 38.140625 66.40625 31.78125 66.40625 
Q 25.390625 66.40625 21.84375 63.234375 
Q 18.3125 60.0625 18.3125 54.390625 
z
" id="DejaVuSans-56"/>
       </defs>
       <use xlink:href="#DejaVuSans-51"/>
       <use x="63.623047" xlink:href="#DejaVuSans-52"/>
       <use x="127.246094" xlink:href="#DejaVuSans-46"/>
       <use x="159.033203" xlink:href="#DejaVuSans-56"/>
      </g>
     </g>
    </g>
    <g id="xtick_3">
     <g id="line2d_3">
      <g>
       <use style="stroke:#000000;stroke-width:0.8;" x="641.820891" xlink:href="#m68ec74d1b6" y="894.013357"/>
      </g>
     </g>
     <g id="text_3">
      <!-- 35.0 -->
      <g transform="translate(615.102141 919.249607)scale(0.24 -0.24)">
       <defs>
        <path d="M 10.796875 72.90625 
L 49.515625 72.90625 
L 49.515625 64.59375 
L 19.828125 64.59375 
L 19.828125 46.734375 
Q 21.96875 47.46875 24.109375 47.828125 
Q 26.265625 48.1875 28.421875 48.1875 
Q 40.625 48.1875 47.75 41.5 
Q 54.890625 34.8125 54.890625 23.390625 
Q 54.890625 11.625 47.5625 5.09375 
Q 40.234375 -1.421875 26.90625 -1.421875 
Q 22.3125 -1.421875 17.546875 -0.640625 
Q 12.796875 0.140625 7.71875 1.703125 
L 7.71875 11.625 
Q 12.109375 9.234375 16.796875 8.0625 
Q 21.484375 6.890625 26.703125 6.890625 
Q 35.15625 6.890625 40.078125 11.328125 
Q 45.015625 15.765625 45.015625 23.390625 
Q 45.015625 31 40.078125 35.4375 
Q 35.15625 39.890625 26.703125 39.890625 
Q 22.75 39.890625 18.8125 39.015625 
Q 14.890625 38.140625 10.796875 36.28125 
z
" id="DejaVuSans-53"/>
        <path d="M 31.78125 66.40625 
Q 24.171875 66.40625 20.328125 58.90625 
Q 16.5 51.421875 16.5 36.375 
Q 16.5 21.390625 20.328125 13.890625 
Q 24.171875 6.390625 31.78125 6.390625 
Q 39.453125 6.390625 43.28125 13.890625 
Q 47.125 21.390625 47.125 36.375 
Q 47.125 51.421875 43.28125 58.90625 
Q 39.453125 66.40625 31.78125 66.40625 
z
M 31.78125 74.21875 
Q 44.046875 74.21875 50.515625 64.515625 
Q 56.984375 54.828125 56.984375 36.375 
Q 56.984375 17.96875 50.515625 8.265625 
Q 44.046875 -1.421875 31.78125 -1.421875 
Q 19.53125 -1.421875 13.0625 8.265625 
Q 6.59375 17.96875 6.59375 36.375 
Q 6.59375 54.828125 13.0625 64.515625 
Q 19.53125 74.21875 31.78125 74.21875 
z
" id="DejaVuSans-48"/>
       </defs>
       <use xlink:href="#DejaVuSans-51"/>
       <use x="63.623047" xlink:href="#DejaVuSans-53"/>
       <use x="127.246094" xlink:href="#DejaVuSans-46"/>
       <use x="159.033203" xlink:href="#DejaVuSans-48"/>
      </g>
     </g>
    </g>
    <g id="xtick_4">
     <g id="line2d_4">
      <g>
       <use style="stroke:#000000;stroke-width:0.8;" x="825.362386" xlink:href="#m68ec74d1b6" y="894.013357"/>
      </g>
     </g>
     <g id="text_4">
      <!-- 35.2 -->
      <g transform="translate(798.643636 919.249607)scale(0.24 -0.24)">
       <defs>
        <path d="M 19.1875 8.296875 
L 53.609375 8.296875 
L 53.609375 0 
L 7.328125 0 
L 7.328125 8.296875 
Q 12.9375 14.109375 22.625 23.890625 
Q 32.328125 33.6875 34.8125 36.53125 
Q 39.546875 41.84375 41.421875 45.53125 
Q 43.3125 49.21875 43.3125 52.78125 
Q 43.3125 58.59375 39.234375 62.25 
Q 35.15625 65.921875 28.609375 65.921875 
Q 23.96875 65.921875 18.8125 64.3125 
Q 13.671875 62.703125 7.8125 59.421875 
L 7.8125 69.390625 
Q 13.765625 71.78125 18.9375 73 
Q 24.125 74.21875 28.421875 74.21875 
Q 39.75 74.21875 46.484375 68.546875 
Q 53.21875 62.890625 53.21875 53.421875 
Q 53.21875 48.921875 51.53125 44.890625 
Q 49.859375 40.875 45.40625 35.40625 
Q 44.1875 33.984375 37.640625 27.21875 
Q 31.109375 20.453125 19.1875 8.296875 
z
" id="DejaVuSans-50"/>
       </defs>
       <use xlink:href="#DejaVuSans-51"/>
       <use x="63.623047" xlink:href="#DejaVuSans-53"/>
       <use x="127.246094" xlink:href="#DejaVuSans-46"/>
       <use x="159.033203" xlink:href="#DejaVuSans-50"/>
      </g>
     </g>
    </g>
    <g id="xtick_5">
     <g id="line2d_5">
      <g>
       <use style="stroke:#000000;stroke-width:0.8;" x="1008.903881" xlink:href="#m68ec74d1b6" y="894.013357"/>
      </g>
     </g>
     <g id="text_5">
      <!-- 35.4 -->
      <g transform="translate(982.185131 919.249607)scale(0.24 -0.24)">
       <use xlink:href="#DejaVuSans-51"/>
       <use x="63.623047" xlink:href="#DejaVuSans-53"/>
       <use x="127.246094" xlink:href="#DejaVuSans-46"/>
       <use x="159.033203" xlink:href="#DejaVuSans-52"/>
      </g>
     </g>
    </g>
    <g id="xtick_6">
     <g id="line2d_6">
      <g>
       <use style="stroke:#000000;stroke-width:0.8;" x="1192.445376" xlink:href="#m68ec74d1b6" y="894.013357"/>
      </g>
     </g>
     <g id="text_6">
      <!-- 35.6 -->
      <g transform="translate(1165.726626 919.249607)scale(0.24 -0.24)">
       <use xlink:href="#DejaVuSans-51"/>
       <use x="63.623047" xlink:href="#DejaVuSans-53"/>
       <use x="127.246094" xlink:href="#DejaVuSans-46"/>
       <use x="159.033203" xlink:href="#DejaVuSans-54"/>
      </g>
     </g>
    </g>
   </g>
   <g id="matplotlib.axis_2">
    <g id="ytick_1">
     <g id="line2d_7">
      <defs>
       <path d="M 0 0 
L -3.5 0 
" id="mce2fa388ba" style="stroke:#000000;stroke-width:0.8;"/>
      </defs>
      <g>
       <use style="stroke:#000000;stroke-width:0.8;" x="180" xlink:href="#mce2fa388ba" y="808.984085"/>
      </g>
     </g>
     <g id="text_7">
      <!-- 61.5 -->
      <g transform="translate(119.5625 818.10221)scale(0.24 -0.24)">
       <defs>
        <path d="M 12.40625 8.296875 
L 28.515625 8.296875 
L 28.515625 63.921875 
L 10.984375 60.40625 
L 10.984375 69.390625 
L 28.421875 72.90625 
L 38.28125 72.90625 
L 38.28125 8.296875 
L 54.390625 8.296875 
L 54.390625 0 
L 12.40625 0 
z
" id="DejaVuSans-49"/>
       </defs>
       <use xlink:href="#DejaVuSans-54"/>
       <use x="63.623047" xlink:href="#DejaVuSans-49"/>
       <use x="127.246094" xlink:href="#DejaVuSans-46"/>
       <use x="159.033203" xlink:href="#DejaVuSans-53"/>
      </g>
     </g>
    </g>
    <g id="ytick_2">
     <g id="line2d_8">
      <g>
       <use style="stroke:#000000;stroke-width:0.8;" x="180" xlink:href="#mce2fa388ba" y="717.213337"/>
      </g>
     </g>
     <g id="text_8">
      <!-- 61.6 -->
      <g transform="translate(119.5625 726.331462)scale(0.24 -0.24)">
       <use xlink:href="#DejaVuSans-54"/>
       <use x="63.623047" xlink:href="#DejaVuSans-49"/>
       <use x="127.246094" xlink:href="#DejaVuSans-46"/>
       <use x="159.033203" xlink:href="#DejaVuSans-54"/>
      </g>
     </g>
    </g>
    <g id="ytick_3">
     <g id="line2d_9">
      <g>
       <use style="stroke:#000000;stroke-width:0.8;" x="180" xlink:href="#mce2fa388ba" y="625.44259"/>
      </g>
     </g>
     <g id="text_9">
      <!-- 61.7 -->
      <g transform="translate(119.5625 634.560715)scale(0.24 -0.24)">
       <defs>
        <path d="M 8.203125 72.90625 
L 55.078125 72.90625 
L 55.078125 68.703125 
L 28.609375 0 
L 18.3125 0 
L 43.21875 64.59375 
L 8.203125 64.59375 
z
" id="DejaVuSans-55"/>
       </defs>
       <use xlink:href="#DejaVuSans-54"/>
       <use x="63.623047" xlink:href="#DejaVuSans-49"/>
       <use x="127.246094" xlink:href="#DejaVuSans-46"/>
       <use x="159.033203" xlink:href="#DejaVuSans-55"/>
      </g>
     </g>
    </g>
   </g>
   <g id="line2d_10">
    <path clip-path="url(#pbf57df6902)" d="M 230.727273 706.839017 
L 256.83284 670.023463 
L 254.741598 662.257197 
L 258.7918 658.512401 
L 257.774683 660.674865 
L 285.681294 662.422334 
L 284.262719 671.51119 
L 288.274284 672.9709 
L 287.907383 665.415698 
L 287.543463 668.985474 
L 308.553728 658.522621 
L 309.921441 659.083557 
L 315.751418 651.958864 
L 342.178334 672.988771 
L 345.928223 673.611037 
L 346.020685 678.372738 
L 344.97903 691.360051 
L 371.881117 686.087069 
L 371.97307 708.01247 
L 369.786465 699.936302 
L 374.722646 703.426221 
L 375.408731 701.763402 
L 376.468239 698.773856 
L 403.608332 704.024568 
L 405.468276 707.444088 
L 406.684737 716.040473 
L 405.318039 713.163641 
L 404.322004 702.685039 
L 433.107557 699.459684 
L 427.22115 691.549147 
L 432.565187 686.061943 
L 432.375415 676.869096 
L 428.077821 678.155688 
L 427.234846 676.851825 
L 434.33818 673.18841 
L 424.435984 683.893994 
L 461.729055 662.057659 
L 487.05211 673.123248 
L 466.301927 656.177777 
L 493.821449 675.162976 
L 489.071336 668.186309 
L 465.973481 655.351751 
L 490.782451 675.286106 
L 491.101648 666.275064 
L 485.442168 654.83792 
L 513.447041 642.673082 
L 513.326736 640.988184 
L 513.4539 638.532462 
L 523.778946 656.176284 
L 520.002426 663.761061 
L 548.928505 658.250653 
L 547.620164 646.985321 
L 581.468845 632.619097 
L 611.210971 643.557558 
L 585.982183 621.563447 
L 611.271573 635.465842 
L 634.202092 617.379418 
L 646.652465 613.897404 
L 644.925074 617.224605 
L 675.105575 591.314407 
L 666.604924 592.347403 
L 667.424529 575.840912 
L 668.880845 579.890106 
L 694.511794 586.833933 
L 698.033343 591.203977 
L 700.61775 593.309958 
L 722.270974 581.609573 
L 723.811649 575.551494 
L 754.670901 587.494058 
L 727.680597 584.452645 
L 745.577906 584.797872 
L 753.0942 578.168502 
L 752.013708 596.313633 
L 753.90987 582.757974 
L 755.395242 594.172614 
L 756.237896 585.463125 
L 755.422857 595.275235 
L 764.89738 605.74486 
L 763.551822 611.840669 
L 786.089839 625.502238 
L 789.761133 624.568634 
L 786.205626 643.688827 
L 795.087221 642.460023 
L 848.428102 632.852028 
L 846.634547 641.059113 
L 823.812556 634.917036 
L 850.779458 654.770478 
L 850.242638 658.065857 
L 852.543709 659.60827 
L 851.427605 650.409116 
L 852.118268 654.3776 
L 843.329014 653.756313 
L 850.018762 660.807508 
L 845.601793 658.868553 
L 879.969751 663.535424 
L 871.568243 665.227451 
L 880.860741 662.331617 
L 881.567205 665.442253 
L 883.58039 672.219924 
L 883.20246 690.950052 
L 883.484184 695.2884 
L 883.651697 702.827586 
L 904.241993 705.531066 
L 877.518866 708.09504 
L 908.469819 712.078319 
L 903.849356 718.201235 
L 911.342235 720.638417 
L 882.375131 737.263616 
L 877.786902 733.72592 
L 902.970333 721.490742 
L 905.341421 723.046197 
L 903.286323 719.426794 
L 905.099521 722.305715 
L 905.357251 721.406227 
L 936.892646 749.659519 
L 938.939038 735.131206 
L 931.846693 749.925083 
L 936.092239 740.414889 
L 912.247065 762.329576 
L 934.201515 752.587184 
L 936.118942 744.007917 
L 934.047346 739.169857 
L 934.848901 748.137406 
L 959.092848 768.512193 
L 966.600904 764.863135 
L 962.962772 767.700268 
L 965.651005 767.452333 
L 969.030436 767.407963 
L 965.077988 772.687575 
L 964.474165 772.255265 
L 969.149892 770.879183 
L 964.339357 767.605627 
L 963.212397 779.529857 
L 963.727273 771.631486 
L 963.131005 776.251606 
L 964.313579 785.297322 
L 963.173569 778.580034 
L 962.656077 820.9109 
L 962.952344 823.761236 
L 963.953605 827.164086 
L 972.239827 835.698465 
L 965.212313 837.19578 
L 965.141036 841.642653 
L 990.377136 841.906354 
L 998.52213 851.314989 
L 988.821804 856.411095 
L 989.528206 855.148476 
L 994.160438 857.08524 
L 991.689497 853.681399 
L 999.417393 863.338016 
L 1002.613684 861.437145 
L 1002.018641 858.067418 
L 1029.455124 844.821399 
L 1007.719769 858.973959 
L 1002.489197 873.136261 
L 1003.164439 873.111865 
L 1003.105855 875.662907 
L 1034.533868 874.825535 
L 1057.494966 867.215245 
L 1057.534841 868.701597 
L 1066.224468 870.622262 
L 1067.195802 860.024944 
L 1066.963613 865.903027 
L 1096.415347 851.943387 
L 1089.207289 845.976599 
L 1095.084939 849.373451 
L 1093.707635 845.538121 
L 1090.57909 865.591959 
L 1089.781868 869.341975 
L 1097.770335 878.848506 
L 1091.442888 877.725188 
L 1145.947243 868.111943 
L 1146.864547 869.859683 
L 1149.290628 863.677943 
L 1147.118807 863.3424 
L 1178.025861 858.091887 
L 1210.58644 863.879312 
L 1180.091657 860.145282 
L 1182.537875 855.65374 
L 1181.752921 845.722374 
L 1182.877267 819.675438 
L 1185.808847 792.135255 
L 1185.580732 778.92391 
L 1212.38657 792.298099 
L 1215.454549 745.081383 
L 1213.925221 751.468807 
L 1210.562562 746.912949 
L 1210.64972 737.607145 
L 1210.723219 743.202846 
L 1210.867239 741.060674 
L 1244.181164 740.952277 
L 1216.691867 741.688943 
L 1241.775972 723.361421 
L 1243.396838 714.459691 
L 1241.890103 727.080382 
L 1245.272727 720.823016 
L 1243.576144 716.035846 
L 1244.525022 709.488713 
L 1243.930058 722.620576 
L 1243.930058 722.620576 
" style="fill:none;stroke:#1f77b4;stroke-dasharray:5.55,2.4;stroke-dashoffset:0;stroke-opacity:0.4;stroke-width:1.5;"/>
    <defs>
     <path d="M 0 3 
C 0.795609 3 1.55874 2.683901 2.12132 2.12132 
C 2.683901 1.55874 3 0.795609 3 0 
C 3 -0.795609 2.683901 -1.55874 2.12132 -2.12132 
C 1.55874 -2.683901 0.795609 -3 0 -3 
C -0.795609 -3 -1.55874 -2.683901 -2.12132 -2.12132 
C -2.683901 -1.55874 -3 -0.795609 -3 0 
C -3 0.795609 -2.683901 1.55874 -2.12132 2.12132 
C -1.55874 2.683901 -0.795609 3 0 3 
z
" id="me7c8226a6e" style="stroke:#1f77b4;stroke-opacity:0.4;"/>
    </defs>
    <g clip-path="url(#pbf57df6902)">
     <use style="fill:#1f77b4;fill-opacity:0.4;stroke:#1f77b4;stroke-opacity:0.4;" x="230.727273" xlink:href="#me7c8226a6e" y="706.839017"/>
     <use style="fill:#1f77b4;fill-opacity:0.4;stroke:#1f77b4;stroke-opacity:0.4;" x="256.83284" xlink:href="#me7c8226a6e" y="670.023463"/>
     <use style="fill:#1f77b4;fill-opacity:0.4;stroke:#1f77b4;stroke-opacity:0.4;" x="254.741598" xlink:href="#me7c8226a6e" y="662.257197"/>
     <use style="fill:#1f77b4;fill-opacity:0.4;stroke:#1f77b4;stroke-opacity:0.4;" x="258.7918" xlink:href="#me7c8226a6e" y="658.512401"/>
     <use style="fill:#1f77b4;fill-opacity:0.4;stroke:#1f77b4;stroke-opacity:0.4;" x="257.774683" xlink:href="#me7c8226a6e" y="660.674865"/>
     <use style="fill:#1f77b4;fill-opacity:0.4;stroke:#1f77b4;stroke-opacity:0.4;" x="285.681294" xlink:href="#me7c8226a6e" y="662.422334"/>
     <use style="fill:#1f77b4;fill-opacity:0.4;stroke:#1f77b4;stroke-opacity:0.4;" x="284.262719" xlink:href="#me7c8226a6e" y="671.51119"/>
     <use style="fill:#1f77b4;fill-opacity:0.4;stroke:#1f77b4;stroke-opacity:0.4;" x="288.274284" xlink:href="#me7c8226a6e" y="672.9709"/>
     <use style="fill:#1f77b4;fill-opacity:0.4;stroke:#1f77b4;stroke-opacity:0.4;" x="287.907383" xlink:href="#me7c8226a6e" y="665.415698"/>
     <use style="fill:#1f77b4;fill-opacity:0.4;stroke:#1f77b4;stroke-opacity:0.4;" x="287.543463" xlink:href="#me7c8226a6e" y="668.985474"/>
     <use style="fill:#1f77b4;fill-opacity:0.4;stroke:#1f77b4;stroke-opacity:0.4;" x="308.553728" xlink:href="#me7c8226a6e" y="658.522621"/>
     <use style="fill:#1f77b4;fill-opacity:0.4;stroke:#1f77b4;stroke-opacity:0.4;" x="309.921441" xlink:href="#me7c8226a6e" y="659.083557"/>
     <use style="fill:#1f77b4;fill-opacity:0.4;stroke:#1f77b4;stroke-opacity:0.4;" x="315.751418" xlink:href="#me7c8226a6e" y="651.958864"/>
     <use style="fill:#1f77b4;fill-opacity:0.4;stroke:#1f77b4;stroke-opacity:0.4;" x="342.178334" xlink:href="#me7c8226a6e" y="672.988771"/>
     <use style="fill:#1f77b4;fill-opacity:0.4;stroke:#1f77b4;stroke-opacity:0.4;" x="345.928223" xlink:href="#me7c8226a6e" y="673.611037"/>
     <use style="fill:#1f77b4;fill-opacity:0.4;stroke:#1f77b4;stroke-opacity:0.4;" x="346.020685" xlink:href="#me7c8226a6e" y="678.372738"/>
     <use style="fill:#1f77b4;fill-opacity:0.4;stroke:#1f77b4;stroke-opacity:0.4;" x="344.97903" xlink:href="#me7c8226a6e" y="691.360051"/>
     <use style="fill:#1f77b4;fill-opacity:0.4;stroke:#1f77b4;stroke-opacity:0.4;" x="371.881117" xlink:href="#me7c8226a6e" y="686.087069"/>
     <use style="fill:#1f77b4;fill-opacity:0.4;stroke:#1f77b4;stroke-opacity:0.4;" x="371.97307" xlink:href="#me7c8226a6e" y="708.01247"/>
     <use style="fill:#1f77b4;fill-opacity:0.4;stroke:#1f77b4;stroke-opacity:0.4;" x="369.786465" xlink:href="#me7c8226a6e" y="699.936302"/>
     <use style="fill:#1f77b4;fill-opacity:0.4;stroke:#1f77b4;stroke-opacity:0.4;" x="374.722646" xlink:href="#me7c8226a6e" y="703.426221"/>
     <use style="fill:#1f77b4;fill-opacity:0.4;stroke:#1f77b4;stroke-opacity:0.4;" x="375.408731" xlink:href="#me7c8226a6e" y="701.763402"/>
     <use style="fill:#1f77b4;fill-opacity:0.4;stroke:#1f77b4;stroke-opacity:0.4;" x="376.468239" xlink:href="#me7c8226a6e" y="698.773856"/>
     <use style="fill:#1f77b4;fill-opacity:0.4;stroke:#1f77b4;stroke-opacity:0.4;" x="403.608332" xlink:href="#me7c8226a6e" y="704.024568"/>
     <use style="fill:#1f77b4;fill-opacity:0.4;stroke:#1f77b4;stroke-opacity:0.4;" x="405.468276" xlink:href="#me7c8226a6e" y="707.444088"/>
     <use style="fill:#1f77b4;fill-opacity:0.4;stroke:#1f77b4;stroke-opacity:0.4;" x="406.684737" xlink:href="#me7c8226a6e" y="716.040473"/>
     <use style="fill:#1f77b4;fill-opacity:0.4;stroke:#1f77b4;stroke-opacity:0.4;" x="405.318039" xlink:href="#me7c8226a6e" y="713.163641"/>
     <use style="fill:#1f77b4;fill-opacity:0.4;stroke:#1f77b4;stroke-opacity:0.4;" x="404.322004" xlink:href="#me7c8226a6e" y="702.685039"/>
     <use style="fill:#1f77b4;fill-opacity:0.4;stroke:#1f77b4;stroke-opacity:0.4;" x="433.107557" xlink:href="#me7c8226a6e" y="699.459684"/>
     <use style="fill:#1f77b4;fill-opacity:0.4;stroke:#1f77b4;stroke-opacity:0.4;" x="427.22115" xlink:href="#me7c8226a6e" y="691.549147"/>
     <use style="fill:#1f77b4;fill-opacity:0.4;stroke:#1f77b4;stroke-opacity:0.4;" x="432.565187" xlink:href="#me7c8226a6e" y="686.061943"/>
     <use style="fill:#1f77b4;fill-opacity:0.4;stroke:#1f77b4;stroke-opacity:0.4;" x="432.375415" xlink:href="#me7c8226a6e" y="676.869096"/>
     <use style="fill:#1f77b4;fill-opacity:0.4;stroke:#1f77b4;stroke-opacity:0.4;" x="428.077821" xlink:href="#me7c8226a6e" y="678.155688"/>
     <use style="fill:#1f77b4;fill-opacity:0.4;stroke:#1f77b4;stroke-opacity:0.4;" x="427.234846" xlink:href="#me7c8226a6e" y="676.851825"/>
     <use style="fill:#1f77b4;fill-opacity:0.4;stroke:#1f77b4;stroke-opacity:0.4;" x="434.33818" xlink:href="#me7c8226a6e" y="673.18841"/>
     <use style="fill:#1f77b4;fill-opacity:0.4;stroke:#1f77b4;stroke-opacity:0.4;" x="424.435984" xlink:href="#me7c8226a6e" y="683.893994"/>
     <use style="fill:#1f77b4;fill-opacity:0.4;stroke:#1f77b4;stroke-opacity:0.4;" x="461.729055" xlink:href="#me7c8226a6e" y="662.057659"/>
     <use style="fill:#1f77b4;fill-opacity:0.4;stroke:#1f77b4;stroke-opacity:0.4;" x="487.05211" xlink:href="#me7c8226a6e" y="673.123248"/>
     <use style="fill:#1f77b4;fill-opacity:0.4;stroke:#1f77b4;stroke-opacity:0.4;" x="466.301927" xlink:href="#me7c8226a6e" y="656.177777"/>
     <use style="fill:#1f77b4;fill-opacity:0.4;stroke:#1f77b4;stroke-opacity:0.4;" x="493.821449" xlink:href="#me7c8226a6e" y="675.162976"/>
     <use style="fill:#1f77b4;fill-opacity:0.4;stroke:#1f77b4;stroke-opacity:0.4;" x="489.071336" xlink:href="#me7c8226a6e" y="668.186309"/>
     <use style="fill:#1f77b4;fill-opacity:0.4;stroke:#1f77b4;stroke-opacity:0.4;" x="465.973481" xlink:href="#me7c8226a6e" y="655.351751"/>
     <use style="fill:#1f77b4;fill-opacity:0.4;stroke:#1f77b4;stroke-opacity:0.4;" x="490.782451" xlink:href="#me7c8226a6e" y="675.286106"/>
     <use style="fill:#1f77b4;fill-opacity:0.4;stroke:#1f77b4;stroke-opacity:0.4;" x="491.101648" xlink:href="#me7c8226a6e" y="666.275064"/>
     <use style="fill:#1f77b4;fill-opacity:0.4;stroke:#1f77b4;stroke-opacity:0.4;" x="485.442168" xlink:href="#me7c8226a6e" y="654.83792"/>
     <use style="fill:#1f77b4;fill-opacity:0.4;stroke:#1f77b4;stroke-opacity:0.4;" x="513.447041" xlink:href="#me7c8226a6e" y="642.673082"/>
     <use style="fill:#1f77b4;fill-opacity:0.4;stroke:#1f77b4;stroke-opacity:0.4;" x="513.326736" xlink:href="#me7c8226a6e" y="640.988184"/>
     <use style="fill:#1f77b4;fill-opacity:0.4;stroke:#1f77b4;stroke-opacity:0.4;" x="513.4539" xlink:href="#me7c8226a6e" y="638.532462"/>
     <use style="fill:#1f77b4;fill-opacity:0.4;stroke:#1f77b4;stroke-opacity:0.4;" x="523.778946" xlink:href="#me7c8226a6e" y="656.176284"/>
     <use style="fill:#1f77b4;fill-opacity:0.4;stroke:#1f77b4;stroke-opacity:0.4;" x="520.002426" xlink:href="#me7c8226a6e" y="663.761061"/>
     <use style="fill:#1f77b4;fill-opacity:0.4;stroke:#1f77b4;stroke-opacity:0.4;" x="548.928505" xlink:href="#me7c8226a6e" y="658.250653"/>
     <use style="fill:#1f77b4;fill-opacity:0.4;stroke:#1f77b4;stroke-opacity:0.4;" x="547.620164" xlink:href="#me7c8226a6e" y="646.985321"/>
     <use style="fill:#1f77b4;fill-opacity:0.4;stroke:#1f77b4;stroke-opacity:0.4;" x="581.468845" xlink:href="#me7c8226a6e" y="632.619097"/>
     <use style="fill:#1f77b4;fill-opacity:0.4;stroke:#1f77b4;stroke-opacity:0.4;" x="611.210971" xlink:href="#me7c8226a6e" y="643.557558"/>
     <use style="fill:#1f77b4;fill-opacity:0.4;stroke:#1f77b4;stroke-opacity:0.4;" x="585.982183" xlink:href="#me7c8226a6e" y="621.563447"/>
     <use style="fill:#1f77b4;fill-opacity:0.4;stroke:#1f77b4;stroke-opacity:0.4;" x="611.271573" xlink:href="#me7c8226a6e" y="635.465842"/>
     <use style="fill:#1f77b4;fill-opacity:0.4;stroke:#1f77b4;stroke-opacity:0.4;" x="634.202092" xlink:href="#me7c8226a6e" y="617.379418"/>
     <use style="fill:#1f77b4;fill-opacity:0.4;stroke:#1f77b4;stroke-opacity:0.4;" x="646.652465" xlink:href="#me7c8226a6e" y="613.897404"/>
     <use style="fill:#1f77b4;fill-opacity:0.4;stroke:#1f77b4;stroke-opacity:0.4;" x="644.925074" xlink:href="#me7c8226a6e" y="617.224605"/>
     <use style="fill:#1f77b4;fill-opacity:0.4;stroke:#1f77b4;stroke-opacity:0.4;" x="675.105575" xlink:href="#me7c8226a6e" y="591.314407"/>
     <use style="fill:#1f77b4;fill-opacity:0.4;stroke:#1f77b4;stroke-opacity:0.4;" x="666.604924" xlink:href="#me7c8226a6e" y="592.347403"/>
     <use style="fill:#1f77b4;fill-opacity:0.4;stroke:#1f77b4;stroke-opacity:0.4;" x="667.424529" xlink:href="#me7c8226a6e" y="575.840912"/>
     <use style="fill:#1f77b4;fill-opacity:0.4;stroke:#1f77b4;stroke-opacity:0.4;" x="668.880845" xlink:href="#me7c8226a6e" y="579.890106"/>
     <use style="fill:#1f77b4;fill-opacity:0.4;stroke:#1f77b4;stroke-opacity:0.4;" x="694.511794" xlink:href="#me7c8226a6e" y="586.833933"/>
     <use style="fill:#1f77b4;fill-opacity:0.4;stroke:#1f77b4;stroke-opacity:0.4;" x="698.033343" xlink:href="#me7c8226a6e" y="591.203977"/>
     <use style="fill:#1f77b4;fill-opacity:0.4;stroke:#1f77b4;stroke-opacity:0.4;" x="700.61775" xlink:href="#me7c8226a6e" y="593.309958"/>
     <use style="fill:#1f77b4;fill-opacity:0.4;stroke:#1f77b4;stroke-opacity:0.4;" x="722.270974" xlink:href="#me7c8226a6e" y="581.609573"/>
     <use style="fill:#1f77b4;fill-opacity:0.4;stroke:#1f77b4;stroke-opacity:0.4;" x="723.811649" xlink:href="#me7c8226a6e" y="575.551494"/>
     <use style="fill:#1f77b4;fill-opacity:0.4;stroke:#1f77b4;stroke-opacity:0.4;" x="754.670901" xlink:href="#me7c8226a6e" y="587.494058"/>
     <use style="fill:#1f77b4;fill-opacity:0.4;stroke:#1f77b4;stroke-opacity:0.4;" x="727.680597" xlink:href="#me7c8226a6e" y="584.452645"/>
     <use style="fill:#1f77b4;fill-opacity:0.4;stroke:#1f77b4;stroke-opacity:0.4;" x="745.577906" xlink:href="#me7c8226a6e" y="584.797872"/>
     <use style="fill:#1f77b4;fill-opacity:0.4;stroke:#1f77b4;stroke-opacity:0.4;" x="753.0942" xlink:href="#me7c8226a6e" y="578.168502"/>
     <use style="fill:#1f77b4;fill-opacity:0.4;stroke:#1f77b4;stroke-opacity:0.4;" x="752.013708" xlink:href="#me7c8226a6e" y="596.313633"/>
     <use style="fill:#1f77b4;fill-opacity:0.4;stroke:#1f77b4;stroke-opacity:0.4;" x="753.90987" xlink:href="#me7c8226a6e" y="582.757974"/>
     <use style="fill:#1f77b4;fill-opacity:0.4;stroke:#1f77b4;stroke-opacity:0.4;" x="755.395242" xlink:href="#me7c8226a6e" y="594.172614"/>
     <use style="fill:#1f77b4;fill-opacity:0.4;stroke:#1f77b4;stroke-opacity:0.4;" x="756.237896" xlink:href="#me7c8226a6e" y="585.463125"/>
     <use style="fill:#1f77b4;fill-opacity:0.4;stroke:#1f77b4;stroke-opacity:0.4;" x="755.422857" xlink:href="#me7c8226a6e" y="595.275235"/>
     <use style="fill:#1f77b4;fill-opacity:0.4;stroke:#1f77b4;stroke-opacity:0.4;" x="764.89738" xlink:href="#me7c8226a6e" y="605.74486"/>
     <use style="fill:#1f77b4;fill-opacity:0.4;stroke:#1f77b4;stroke-opacity:0.4;" x="763.551822" xlink:href="#me7c8226a6e" y="611.840669"/>
     <use style="fill:#1f77b4;fill-opacity:0.4;stroke:#1f77b4;stroke-opacity:0.4;" x="786.089839" xlink:href="#me7c8226a6e" y="625.502238"/>
     <use style="fill:#1f77b4;fill-opacity:0.4;stroke:#1f77b4;stroke-opacity:0.4;" x="789.761133" xlink:href="#me7c8226a6e" y="624.568634"/>
     <use style="fill:#1f77b4;fill-opacity:0.4;stroke:#1f77b4;stroke-opacity:0.4;" x="786.205626" xlink:href="#me7c8226a6e" y="643.688827"/>
     <use style="fill:#1f77b4;fill-opacity:0.4;stroke:#1f77b4;stroke-opacity:0.4;" x="795.087221" xlink:href="#me7c8226a6e" y="642.460023"/>
     <use style="fill:#1f77b4;fill-opacity:0.4;stroke:#1f77b4;stroke-opacity:0.4;" x="848.428102" xlink:href="#me7c8226a6e" y="632.852028"/>
     <use style="fill:#1f77b4;fill-opacity:0.4;stroke:#1f77b4;stroke-opacity:0.4;" x="846.634547" xlink:href="#me7c8226a6e" y="641.059113"/>
     <use style="fill:#1f77b4;fill-opacity:0.4;stroke:#1f77b4;stroke-opacity:0.4;" x="823.812556" xlink:href="#me7c8226a6e" y="634.917036"/>
     <use style="fill:#1f77b4;fill-opacity:0.4;stroke:#1f77b4;stroke-opacity:0.4;" x="850.779458" xlink:href="#me7c8226a6e" y="654.770478"/>
     <use style="fill:#1f77b4;fill-opacity:0.4;stroke:#1f77b4;stroke-opacity:0.4;" x="850.242638" xlink:href="#me7c8226a6e" y="658.065857"/>
     <use style="fill:#1f77b4;fill-opacity:0.4;stroke:#1f77b4;stroke-opacity:0.4;" x="852.543709" xlink:href="#me7c8226a6e" y="659.60827"/>
     <use style="fill:#1f77b4;fill-opacity:0.4;stroke:#1f77b4;stroke-opacity:0.4;" x="851.427605" xlink:href="#me7c8226a6e" y="650.409116"/>
     <use style="fill:#1f77b4;fill-opacity:0.4;stroke:#1f77b4;stroke-opacity:0.4;" x="852.118268" xlink:href="#me7c8226a6e" y="654.3776"/>
     <use style="fill:#1f77b4;fill-opacity:0.4;stroke:#1f77b4;stroke-opacity:0.4;" x="843.329014" xlink:href="#me7c8226a6e" y="653.756313"/>
     <use style="fill:#1f77b4;fill-opacity:0.4;stroke:#1f77b4;stroke-opacity:0.4;" x="850.018762" xlink:href="#me7c8226a6e" y="660.807508"/>
     <use style="fill:#1f77b4;fill-opacity:0.4;stroke:#1f77b4;stroke-opacity:0.4;" x="845.601793" xlink:href="#me7c8226a6e" y="658.868553"/>
     <use style="fill:#1f77b4;fill-opacity:0.4;stroke:#1f77b4;stroke-opacity:0.4;" x="879.969751" xlink:href="#me7c8226a6e" y="663.535424"/>
     <use style="fill:#1f77b4;fill-opacity:0.4;stroke:#1f77b4;stroke-opacity:0.4;" x="871.568243" xlink:href="#me7c8226a6e" y="665.227451"/>
     <use style="fill:#1f77b4;fill-opacity:0.4;stroke:#1f77b4;stroke-opacity:0.4;" x="880.860741" xlink:href="#me7c8226a6e" y="662.331617"/>
     <use style="fill:#1f77b4;fill-opacity:0.4;stroke:#1f77b4;stroke-opacity:0.4;" x="881.567205" xlink:href="#me7c8226a6e" y="665.442253"/>
     <use style="fill:#1f77b4;fill-opacity:0.4;stroke:#1f77b4;stroke-opacity:0.4;" x="883.58039" xlink:href="#me7c8226a6e" y="672.219924"/>
     <use style="fill:#1f77b4;fill-opacity:0.4;stroke:#1f77b4;stroke-opacity:0.4;" x="883.20246" xlink:href="#me7c8226a6e" y="690.950052"/>
     <use style="fill:#1f77b4;fill-opacity:0.4;stroke:#1f77b4;stroke-opacity:0.4;" x="883.484184" xlink:href="#me7c8226a6e" y="695.2884"/>
     <use style="fill:#1f77b4;fill-opacity:0.4;stroke:#1f77b4;stroke-opacity:0.4;" x="883.651697" xlink:href="#me7c8226a6e" y="702.827586"/>
     <use style="fill:#1f77b4;fill-opacity:0.4;stroke:#1f77b4;stroke-opacity:0.4;" x="904.241993" xlink:href="#me7c8226a6e" y="705.531066"/>
     <use style="fill:#1f77b4;fill-opacity:0.4;stroke:#1f77b4;stroke-opacity:0.4;" x="877.518866" xlink:href="#me7c8226a6e" y="708.09504"/>
     <use style="fill:#1f77b4;fill-opacity:0.4;stroke:#1f77b4;stroke-opacity:0.4;" x="908.469819" xlink:href="#me7c8226a6e" y="712.078319"/>
     <use style="fill:#1f77b4;fill-opacity:0.4;stroke:#1f77b4;stroke-opacity:0.4;" x="903.849356" xlink:href="#me7c8226a6e" y="718.201235"/>
     <use style="fill:#1f77b4;fill-opacity:0.4;stroke:#1f77b4;stroke-opacity:0.4;" x="911.342235" xlink:href="#me7c8226a6e" y="720.638417"/>
     <use style="fill:#1f77b4;fill-opacity:0.4;stroke:#1f77b4;stroke-opacity:0.4;" x="882.375131" xlink:href="#me7c8226a6e" y="737.263616"/>
     <use style="fill:#1f77b4;fill-opacity:0.4;stroke:#1f77b4;stroke-opacity:0.4;" x="877.786902" xlink:href="#me7c8226a6e" y="733.72592"/>
     <use style="fill:#1f77b4;fill-opacity:0.4;stroke:#1f77b4;stroke-opacity:0.4;" x="902.970333" xlink:href="#me7c8226a6e" y="721.490742"/>
     <use style="fill:#1f77b4;fill-opacity:0.4;stroke:#1f77b4;stroke-opacity:0.4;" x="905.341421" xlink:href="#me7c8226a6e" y="723.046197"/>
     <use style="fill:#1f77b4;fill-opacity:0.4;stroke:#1f77b4;stroke-opacity:0.4;" x="903.286323" xlink:href="#me7c8226a6e" y="719.426794"/>
     <use style="fill:#1f77b4;fill-opacity:0.4;stroke:#1f77b4;stroke-opacity:0.4;" x="905.099521" xlink:href="#me7c8226a6e" y="722.305715"/>
     <use style="fill:#1f77b4;fill-opacity:0.4;stroke:#1f77b4;stroke-opacity:0.4;" x="905.357251" xlink:href="#me7c8226a6e" y="721.406227"/>
     <use style="fill:#1f77b4;fill-opacity:0.4;stroke:#1f77b4;stroke-opacity:0.4;" x="936.892646" xlink:href="#me7c8226a6e" y="749.659519"/>
     <use style="fill:#1f77b4;fill-opacity:0.4;stroke:#1f77b4;stroke-opacity:0.4;" x="938.939038" xlink:href="#me7c8226a6e" y="735.131206"/>
     <use style="fill:#1f77b4;fill-opacity:0.4;stroke:#1f77b4;stroke-opacity:0.4;" x="931.846693" xlink:href="#me7c8226a6e" y="749.925083"/>
     <use style="fill:#1f77b4;fill-opacity:0.4;stroke:#1f77b4;stroke-opacity:0.4;" x="936.092239" xlink:href="#me7c8226a6e" y="740.414889"/>
     <use style="fill:#1f77b4;fill-opacity:0.4;stroke:#1f77b4;stroke-opacity:0.4;" x="912.247065" xlink:href="#me7c8226a6e" y="762.329576"/>
     <use style="fill:#1f77b4;fill-opacity:0.4;stroke:#1f77b4;stroke-opacity:0.4;" x="934.201515" xlink:href="#me7c8226a6e" y="752.587184"/>
     <use style="fill:#1f77b4;fill-opacity:0.4;stroke:#1f77b4;stroke-opacity:0.4;" x="936.118942" xlink:href="#me7c8226a6e" y="744.007917"/>
     <use style="fill:#1f77b4;fill-opacity:0.4;stroke:#1f77b4;stroke-opacity:0.4;" x="934.047346" xlink:href="#me7c8226a6e" y="739.169857"/>
     <use style="fill:#1f77b4;fill-opacity:0.4;stroke:#1f77b4;stroke-opacity:0.4;" x="934.848901" xlink:href="#me7c8226a6e" y="748.137406"/>
     <use style="fill:#1f77b4;fill-opacity:0.4;stroke:#1f77b4;stroke-opacity:0.4;" x="959.092848" xlink:href="#me7c8226a6e" y="768.512193"/>
     <use style="fill:#1f77b4;fill-opacity:0.4;stroke:#1f77b4;stroke-opacity:0.4;" x="966.600904" xlink:href="#me7c8226a6e" y="764.863135"/>
     <use style="fill:#1f77b4;fill-opacity:0.4;stroke:#1f77b4;stroke-opacity:0.4;" x="962.962772" xlink:href="#me7c8226a6e" y="767.700268"/>
     <use style="fill:#1f77b4;fill-opacity:0.4;stroke:#1f77b4;stroke-opacity:0.4;" x="965.651005" xlink:href="#me7c8226a6e" y="767.452333"/>
     <use style="fill:#1f77b4;fill-opacity:0.4;stroke:#1f77b4;stroke-opacity:0.4;" x="969.030436" xlink:href="#me7c8226a6e" y="767.407963"/>
     <use style="fill:#1f77b4;fill-opacity:0.4;stroke:#1f77b4;stroke-opacity:0.4;" x="965.077988" xlink:href="#me7c8226a6e" y="772.687575"/>
     <use style="fill:#1f77b4;fill-opacity:0.4;stroke:#1f77b4;stroke-opacity:0.4;" x="964.474165" xlink:href="#me7c8226a6e" y="772.255265"/>
     <use style="fill:#1f77b4;fill-opacity:0.4;stroke:#1f77b4;stroke-opacity:0.4;" x="969.149892" xlink:href="#me7c8226a6e" y="770.879183"/>
     <use style="fill:#1f77b4;fill-opacity:0.4;stroke:#1f77b4;stroke-opacity:0.4;" x="964.339357" xlink:href="#me7c8226a6e" y="767.605627"/>
     <use style="fill:#1f77b4;fill-opacity:0.4;stroke:#1f77b4;stroke-opacity:0.4;" x="963.212397" xlink:href="#me7c8226a6e" y="779.529857"/>
     <use style="fill:#1f77b4;fill-opacity:0.4;stroke:#1f77b4;stroke-opacity:0.4;" x="963.727273" xlink:href="#me7c8226a6e" y="771.631486"/>
     <use style="fill:#1f77b4;fill-opacity:0.4;stroke:#1f77b4;stroke-opacity:0.4;" x="963.131005" xlink:href="#me7c8226a6e" y="776.251606"/>
     <use style="fill:#1f77b4;fill-opacity:0.4;stroke:#1f77b4;stroke-opacity:0.4;" x="964.313579" xlink:href="#me7c8226a6e" y="785.297322"/>
     <use style="fill:#1f77b4;fill-opacity:0.4;stroke:#1f77b4;stroke-opacity:0.4;" x="963.173569" xlink:href="#me7c8226a6e" y="778.580034"/>
     <use style="fill:#1f77b4;fill-opacity:0.4;stroke:#1f77b4;stroke-opacity:0.4;" x="962.656077" xlink:href="#me7c8226a6e" y="820.9109"/>
     <use style="fill:#1f77b4;fill-opacity:0.4;stroke:#1f77b4;stroke-opacity:0.4;" x="962.952344" xlink:href="#me7c8226a6e" y="823.761236"/>
     <use style="fill:#1f77b4;fill-opacity:0.4;stroke:#1f77b4;stroke-opacity:0.4;" x="963.953605" xlink:href="#me7c8226a6e" y="827.164086"/>
     <use style="fill:#1f77b4;fill-opacity:0.4;stroke:#1f77b4;stroke-opacity:0.4;" x="972.239827" xlink:href="#me7c8226a6e" y="835.698465"/>
     <use style="fill:#1f77b4;fill-opacity:0.4;stroke:#1f77b4;stroke-opacity:0.4;" x="965.212313" xlink:href="#me7c8226a6e" y="837.19578"/>
     <use style="fill:#1f77b4;fill-opacity:0.4;stroke:#1f77b4;stroke-opacity:0.4;" x="965.141036" xlink:href="#me7c8226a6e" y="841.642653"/>
     <use style="fill:#1f77b4;fill-opacity:0.4;stroke:#1f77b4;stroke-opacity:0.4;" x="990.377136" xlink:href="#me7c8226a6e" y="841.906354"/>
     <use style="fill:#1f77b4;fill-opacity:0.4;stroke:#1f77b4;stroke-opacity:0.4;" x="998.52213" xlink:href="#me7c8226a6e" y="851.314989"/>
     <use style="fill:#1f77b4;fill-opacity:0.4;stroke:#1f77b4;stroke-opacity:0.4;" x="988.821804" xlink:href="#me7c8226a6e" y="856.411095"/>
     <use style="fill:#1f77b4;fill-opacity:0.4;stroke:#1f77b4;stroke-opacity:0.4;" x="989.528206" xlink:href="#me7c8226a6e" y="855.148476"/>
     <use style="fill:#1f77b4;fill-opacity:0.4;stroke:#1f77b4;stroke-opacity:0.4;" x="994.160438" xlink:href="#me7c8226a6e" y="857.08524"/>
     <use style="fill:#1f77b4;fill-opacity:0.4;stroke:#1f77b4;stroke-opacity:0.4;" x="991.689497" xlink:href="#me7c8226a6e" y="853.681399"/>
     <use style="fill:#1f77b4;fill-opacity:0.4;stroke:#1f77b4;stroke-opacity:0.4;" x="999.417393" xlink:href="#me7c8226a6e" y="863.338016"/>
     <use style="fill:#1f77b4;fill-opacity:0.4;stroke:#1f77b4;stroke-opacity:0.4;" x="1002.613684" xlink:href="#me7c8226a6e" y="861.437145"/>
     <use style="fill:#1f77b4;fill-opacity:0.4;stroke:#1f77b4;stroke-opacity:0.4;" x="1002.018641" xlink:href="#me7c8226a6e" y="858.067418"/>
     <use style="fill:#1f77b4;fill-opacity:0.4;stroke:#1f77b4;stroke-opacity:0.4;" x="1029.455124" xlink:href="#me7c8226a6e" y="844.821399"/>
     <use style="fill:#1f77b4;fill-opacity:0.4;stroke:#1f77b4;stroke-opacity:0.4;" x="1007.719769" xlink:href="#me7c8226a6e" y="858.973959"/>
     <use style="fill:#1f77b4;fill-opacity:0.4;stroke:#1f77b4;stroke-opacity:0.4;" x="1002.489197" xlink:href="#me7c8226a6e" y="873.136261"/>
     <use style="fill:#1f77b4;fill-opacity:0.4;stroke:#1f77b4;stroke-opacity:0.4;" x="1003.164439" xlink:href="#me7c8226a6e" y="873.111865"/>
     <use style="fill:#1f77b4;fill-opacity:0.4;stroke:#1f77b4;stroke-opacity:0.4;" x="1003.105855" xlink:href="#me7c8226a6e" y="875.662907"/>
     <use style="fill:#1f77b4;fill-opacity:0.4;stroke:#1f77b4;stroke-opacity:0.4;" x="1034.533868" xlink:href="#me7c8226a6e" y="874.825535"/>
     <use style="fill:#1f77b4;fill-opacity:0.4;stroke:#1f77b4;stroke-opacity:0.4;" x="1057.494966" xlink:href="#me7c8226a6e" y="867.215245"/>
     <use style="fill:#1f77b4;fill-opacity:0.4;stroke:#1f77b4;stroke-opacity:0.4;" x="1057.534841" xlink:href="#me7c8226a6e" y="868.701597"/>
     <use style="fill:#1f77b4;fill-opacity:0.4;stroke:#1f77b4;stroke-opacity:0.4;" x="1066.224468" xlink:href="#me7c8226a6e" y="870.622262"/>
     <use style="fill:#1f77b4;fill-opacity:0.4;stroke:#1f77b4;stroke-opacity:0.4;" x="1067.195802" xlink:href="#me7c8226a6e" y="860.024944"/>
     <use style="fill:#1f77b4;fill-opacity:0.4;stroke:#1f77b4;stroke-opacity:0.4;" x="1066.963613" xlink:href="#me7c8226a6e" y="865.903027"/>
     <use style="fill:#1f77b4;fill-opacity:0.4;stroke:#1f77b4;stroke-opacity:0.4;" x="1096.415347" xlink:href="#me7c8226a6e" y="851.943387"/>
     <use style="fill:#1f77b4;fill-opacity:0.4;stroke:#1f77b4;stroke-opacity:0.4;" x="1089.207289" xlink:href="#me7c8226a6e" y="845.976599"/>
     <use style="fill:#1f77b4;fill-opacity:0.4;stroke:#1f77b4;stroke-opacity:0.4;" x="1095.084939" xlink:href="#me7c8226a6e" y="849.373451"/>
     <use style="fill:#1f77b4;fill-opacity:0.4;stroke:#1f77b4;stroke-opacity:0.4;" x="1093.707635" xlink:href="#me7c8226a6e" y="845.538121"/>
     <use style="fill:#1f77b4;fill-opacity:0.4;stroke:#1f77b4;stroke-opacity:0.4;" x="1090.57909" xlink:href="#me7c8226a6e" y="865.591959"/>
     <use style="fill:#1f77b4;fill-opacity:0.4;stroke:#1f77b4;stroke-opacity:0.4;" x="1089.781868" xlink:href="#me7c8226a6e" y="869.341975"/>
     <use style="fill:#1f77b4;fill-opacity:0.4;stroke:#1f77b4;stroke-opacity:0.4;" x="1097.770335" xlink:href="#me7c8226a6e" y="878.848506"/>
     <use style="fill:#1f77b4;fill-opacity:0.4;stroke:#1f77b4;stroke-opacity:0.4;" x="1091.442888" xlink:href="#me7c8226a6e" y="877.725188"/>
     <use style="fill:#1f77b4;fill-opacity:0.4;stroke:#1f77b4;stroke-opacity:0.4;" x="1145.947243" xlink:href="#me7c8226a6e" y="868.111943"/>
     <use style="fill:#1f77b4;fill-opacity:0.4;stroke:#1f77b4;stroke-opacity:0.4;" x="1146.864547" xlink:href="#me7c8226a6e" y="869.859683"/>
     <use style="fill:#1f77b4;fill-opacity:0.4;stroke:#1f77b4;stroke-opacity:0.4;" x="1149.290628" xlink:href="#me7c8226a6e" y="863.677943"/>
     <use style="fill:#1f77b4;fill-opacity:0.4;stroke:#1f77b4;stroke-opacity:0.4;" x="1147.118807" xlink:href="#me7c8226a6e" y="863.3424"/>
     <use style="fill:#1f77b4;fill-opacity:0.4;stroke:#1f77b4;stroke-opacity:0.4;" x="1178.025861" xlink:href="#me7c8226a6e" y="858.091887"/>
     <use style="fill:#1f77b4;fill-opacity:0.4;stroke:#1f77b4;stroke-opacity:0.4;" x="1210.58644" xlink:href="#me7c8226a6e" y="863.879312"/>
     <use style="fill:#1f77b4;fill-opacity:0.4;stroke:#1f77b4;stroke-opacity:0.4;" x="1180.091657" xlink:href="#me7c8226a6e" y="860.145282"/>
     <use style="fill:#1f77b4;fill-opacity:0.4;stroke:#1f77b4;stroke-opacity:0.4;" x="1182.537875" xlink:href="#me7c8226a6e" y="855.65374"/>
     <use style="fill:#1f77b4;fill-opacity:0.4;stroke:#1f77b4;stroke-opacity:0.4;" x="1181.752921" xlink:href="#me7c8226a6e" y="845.722374"/>
     <use style="fill:#1f77b4;fill-opacity:0.4;stroke:#1f77b4;stroke-opacity:0.4;" x="1182.877267" xlink:href="#me7c8226a6e" y="819.675438"/>
     <use style="fill:#1f77b4;fill-opacity:0.4;stroke:#1f77b4;stroke-opacity:0.4;" x="1185.808847" xlink:href="#me7c8226a6e" y="792.135255"/>
     <use style="fill:#1f77b4;fill-opacity:0.4;stroke:#1f77b4;stroke-opacity:0.4;" x="1185.580732" xlink:href="#me7c8226a6e" y="778.92391"/>
     <use style="fill:#1f77b4;fill-opacity:0.4;stroke:#1f77b4;stroke-opacity:0.4;" x="1212.38657" xlink:href="#me7c8226a6e" y="792.298099"/>
     <use style="fill:#1f77b4;fill-opacity:0.4;stroke:#1f77b4;stroke-opacity:0.4;" x="1214.81318" xlink:href="#me7c8226a6e" y="753.909593"/>
     <use style="fill:#1f77b4;fill-opacity:0.4;stroke:#1f77b4;stroke-opacity:0.4;" x="1215.454549" xlink:href="#me7c8226a6e" y="745.081383"/>
     <use style="fill:#1f77b4;fill-opacity:0.4;stroke:#1f77b4;stroke-opacity:0.4;" x="1213.925221" xlink:href="#me7c8226a6e" y="751.468807"/>
     <use style="fill:#1f77b4;fill-opacity:0.4;stroke:#1f77b4;stroke-opacity:0.4;" x="1210.562562" xlink:href="#me7c8226a6e" y="746.912949"/>
     <use style="fill:#1f77b4;fill-opacity:0.4;stroke:#1f77b4;stroke-opacity:0.4;" x="1210.64972" xlink:href="#me7c8226a6e" y="737.607145"/>
     <use style="fill:#1f77b4;fill-opacity:0.4;stroke:#1f77b4;stroke-opacity:0.4;" x="1210.723219" xlink:href="#me7c8226a6e" y="743.202846"/>
     <use style="fill:#1f77b4;fill-opacity:0.4;stroke:#1f77b4;stroke-opacity:0.4;" x="1210.867239" xlink:href="#me7c8226a6e" y="741.060674"/>
     <use style="fill:#1f77b4;fill-opacity:0.4;stroke:#1f77b4;stroke-opacity:0.4;" x="1244.181164" xlink:href="#me7c8226a6e" y="740.952277"/>
     <use style="fill:#1f77b4;fill-opacity:0.4;stroke:#1f77b4;stroke-opacity:0.4;" x="1216.691867" xlink:href="#me7c8226a6e" y="741.688943"/>
     <use style="fill:#1f77b4;fill-opacity:0.4;stroke:#1f77b4;stroke-opacity:0.4;" x="1241.775972" xlink:href="#me7c8226a6e" y="723.361421"/>
     <use style="fill:#1f77b4;fill-opacity:0.4;stroke:#1f77b4;stroke-opacity:0.4;" x="1243.396838" xlink:href="#me7c8226a6e" y="714.459691"/>
     <use style="fill:#1f77b4;fill-opacity:0.4;stroke:#1f77b4;stroke-opacity:0.4;" x="1241.890103" xlink:href="#me7c8226a6e" y="727.080382"/>
     <use style="fill:#1f77b4;fill-opacity:0.4;stroke:#1f77b4;stroke-opacity:0.4;" x="1245.272727" xlink:href="#me7c8226a6e" y="720.823016"/>
     <use style="fill:#1f77b4;fill-opacity:0.4;stroke:#1f77b4;stroke-opacity:0.4;" x="1243.576144" xlink:href="#me7c8226a6e" y="716.035846"/>
     <use style="fill:#1f77b4;fill-opacity:0.4;stroke:#1f77b4;stroke-opacity:0.4;" x="1244.525022" xlink:href="#me7c8226a6e" y="709.488713"/>
     <use style="fill:#1f77b4;fill-opacity:0.4;stroke:#1f77b4;stroke-opacity:0.4;" x="1243.930058" xlink:href="#me7c8226a6e" y="722.620576"/>
    </g>
   </g>
   <g id="line2d_11">
    <path clip-path="url(#pbf57df6902)" d="M 254.385997 684.969687 
L 387.958842 692.996423 
" style="fill:none;stroke:#fec216;stroke-linecap:square;stroke-opacity:0.4;stroke-width:8;"/>
   </g>
   <g id="line2d_12">
    <path clip-path="url(#pbf57df6902)" d="M 387.958842 692.996423 
L 502.206654 657.925304 
" style="fill:none;stroke:#fec216;stroke-linecap:square;stroke-opacity:0.4;stroke-width:8;"/>
   </g>
   <g id="line2d_13">
    <path clip-path="url(#pbf57df6902)" d="M 502.206654 657.925304 
L 616.594658 625.398905 
" style="fill:none;stroke:#fec216;stroke-linecap:square;stroke-opacity:0.4;stroke-width:8;"/>
   </g>
   <g id="line2d_14">
    <path clip-path="url(#pbf57df6902)" d="M 616.594658 625.398905 
L 742.947665 603.15163 
" style="fill:none;stroke:#fec216;stroke-linecap:square;stroke-opacity:0.4;stroke-width:8;"/>
   </g>
   <g id="line2d_15">
    <path clip-path="url(#pbf57df6902)" d="M 742.947665 603.15163 
L 861.560863 656.99707 
" style="fill:none;stroke:#fec216;stroke-linecap:square;stroke-opacity:0.4;stroke-width:8;"/>
   </g>
   <g id="line2d_16">
    <path clip-path="url(#pbf57df6902)" d="M 861.560863 656.99707 
L 920.673972 740.974824 
" style="fill:none;stroke:#fec216;stroke-linecap:square;stroke-opacity:0.4;stroke-width:8;"/>
   </g>
   <g id="line2d_17">
    <path clip-path="url(#pbf57df6902)" d="M 920.673972 740.974824 
L 985.897006 841.940752 
" style="fill:none;stroke:#fec216;stroke-linecap:square;stroke-opacity:0.4;stroke-width:8;"/>
   </g>
   <g id="line2d_18">
    <path clip-path="url(#pbf57df6902)" d="M 985.897006 841.940752 
L 1070.779869 866.102001 
" style="fill:none;stroke:#fec216;stroke-linecap:square;stroke-opacity:0.4;stroke-width:8;"/>
   </g>
   <g id="line2d_19">
    <path clip-path="url(#pbf57df6902)" d="M 1070.779869 866.102001 
L 1179.066564 833.201444 
" style="fill:none;stroke:#fec216;stroke-linecap:square;stroke-opacity:0.4;stroke-width:8;"/>
   </g>
   <g id="line2d_20">
    <path clip-path="url(#pbf57df6902)" d="M 1179.066564 833.201444 
L 1232.351 731.950515 
" style="fill:none;stroke:#fec216;stroke-linecap:square;stroke-opacity:0.4;stroke-width:8;"/>
   </g>
   <g id="patch_3">
    <path d="M 180 894.013357 
L 180 560.386643 
" style="fill:none;stroke:#000000;stroke-linecap:square;stroke-linejoin:miter;stroke-width:0.8;"/>
   </g>
   <g id="patch_4">
    <path d="M 1296 894.013357 
L 1296 560.386643 
" style="fill:none;stroke:#000000;stroke-linecap:square;stroke-linejoin:miter;stroke-width:0.8;"/>
   </g>
   <g id="patch_5">
    <path d="M 180 894.013357 
L 1296 894.013357 
" style="fill:none;stroke:#000000;stroke-linecap:square;stroke-linejoin:miter;stroke-width:0.8;"/>
   </g>
   <g id="patch_6">
    <path d="M 180 560.386643 
L 1296 560.386643 
" style="fill:none;stroke:#000000;stroke-linecap:square;stroke-linejoin:miter;stroke-width:0.8;"/>
   </g>
   <g id="legend_1">
    <g id="patch_7">
     <path d="M 1113.638438 657.512893 
L 1277.8 657.512893 
Q 1283 657.512893 1283 652.312893 
L 1283 578.586643 
Q 1283 573.386643 1277.8 573.386643 
L 1113.638438 573.386643 
Q 1108.438437 573.386643 1108.438437 578.586643 
L 1108.438437 652.312893 
Q 1108.438437 657.512893 1113.638438 657.512893 
z
" style="fill:#ffffff;opacity:0.8;stroke:#cccccc;stroke-linejoin:miter;"/>
    </g>
    <g id="line2d_21">
     <path d="M 1118.838438 594.44258 
L 1170.838438 594.44258 
" style="fill:none;stroke:#1f77b4;stroke-dasharray:5.55,2.4;stroke-dashoffset:0;stroke-opacity:0.4;stroke-width:1.5;"/>
    </g>
    <g id="line2d_22">
     <g>
      <use style="fill:#1f77b4;fill-opacity:0.4;stroke:#1f77b4;stroke-opacity:0.4;" x="1144.838438" xlink:href="#me7c8226a6e" y="594.44258"/>
     </g>
    </g>
    <g id="text_10">
     <!-- data -->
     <g transform="translate(1191.638438 603.54258)scale(0.26 -0.26)">
      <defs>
       <path d="M 45.40625 46.390625 
L 45.40625 75.984375 
L 54.390625 75.984375 
L 54.390625 0 
L 45.40625 0 
L 45.40625 8.203125 
Q 42.578125 3.328125 38.25 0.953125 
Q 33.9375 -1.421875 27.875 -1.421875 
Q 17.96875 -1.421875 11.734375 6.484375 
Q 5.515625 14.40625 5.515625 27.296875 
Q 5.515625 40.1875 11.734375 48.09375 
Q 17.96875 56 27.875 56 
Q 33.9375 56 38.25 53.625 
Q 42.578125 51.265625 45.40625 46.390625 
z
M 14.796875 27.296875 
Q 14.796875 17.390625 18.875 11.75 
Q 22.953125 6.109375 30.078125 6.109375 
Q 37.203125 6.109375 41.296875 11.75 
Q 45.40625 17.390625 45.40625 27.296875 
Q 45.40625 37.203125 41.296875 42.84375 
Q 37.203125 48.484375 30.078125 48.484375 
Q 22.953125 48.484375 18.875 42.84375 
Q 14.796875 37.203125 14.796875 27.296875 
z
" id="DejaVuSans-100"/>
       <path d="M 34.28125 27.484375 
Q 23.390625 27.484375 19.1875 25 
Q 14.984375 22.515625 14.984375 16.5 
Q 14.984375 11.71875 18.140625 8.90625 
Q 21.296875 6.109375 26.703125 6.109375 
Q 34.1875 6.109375 38.703125 11.40625 
Q 43.21875 16.703125 43.21875 25.484375 
L 43.21875 27.484375 
z
M 52.203125 31.203125 
L 52.203125 0 
L 43.21875 0 
L 43.21875 8.296875 
Q 40.140625 3.328125 35.546875 0.953125 
Q 30.953125 -1.421875 24.3125 -1.421875 
Q 15.921875 -1.421875 10.953125 3.296875 
Q 6 8.015625 6 15.921875 
Q 6 25.140625 12.171875 29.828125 
Q 18.359375 34.515625 30.609375 34.515625 
L 43.21875 34.515625 
L 43.21875 35.40625 
Q 43.21875 41.609375 39.140625 45 
Q 35.0625 48.390625 27.6875 48.390625 
Q 23 48.390625 18.546875 47.265625 
Q 14.109375 46.140625 10.015625 43.890625 
L 10.015625 52.203125 
Q 14.9375 54.109375 19.578125 55.046875 
Q 24.21875 56 28.609375 56 
Q 40.484375 56 46.34375 49.84375 
Q 52.203125 43.703125 52.203125 31.203125 
z
" id="DejaVuSans-97"/>
       <path d="M 18.3125 70.21875 
L 18.3125 54.6875 
L 36.8125 54.6875 
L 36.8125 47.703125 
L 18.3125 47.703125 
L 18.3125 18.015625 
Q 18.3125 11.328125 20.140625 9.421875 
Q 21.96875 7.515625 27.59375 7.515625 
L 36.8125 7.515625 
L 36.8125 0 
L 27.59375 0 
Q 17.1875 0 13.234375 3.875 
Q 9.28125 7.765625 9.28125 18.015625 
L 9.28125 47.703125 
L 2.6875 47.703125 
L 2.6875 54.6875 
L 9.28125 54.6875 
L 9.28125 70.21875 
z
" id="DejaVuSans-116"/>
      </defs>
      <use xlink:href="#DejaVuSans-100"/>
      <use x="63.476562" xlink:href="#DejaVuSans-97"/>
      <use x="124.755859" xlink:href="#DejaVuSans-116"/>
      <use x="163.964844" xlink:href="#DejaVuSans-97"/>
     </g>
    </g>
    <g id="line2d_23">
     <path d="M 1118.838438 632.605705 
L 1170.838438 632.605705 
" style="fill:none;stroke:#fec216;stroke-linecap:square;stroke-opacity:0.4;stroke-width:8;"/>
    </g>
    <g id="line2d_24"/>
    <g id="text_11">
     <!-- model -->
     <g transform="translate(1191.638438 641.705705)scale(0.26 -0.26)">
      <defs>
       <path d="M 52 44.1875 
Q 55.375 50.25 60.0625 53.125 
Q 64.75 56 71.09375 56 
Q 79.640625 56 84.28125 50.015625 
Q 88.921875 44.046875 88.921875 33.015625 
L 88.921875 0 
L 79.890625 0 
L 79.890625 32.71875 
Q 79.890625 40.578125 77.09375 44.375 
Q 74.3125 48.1875 68.609375 48.1875 
Q 61.625 48.1875 57.5625 43.546875 
Q 53.515625 38.921875 53.515625 30.90625 
L 53.515625 0 
L 44.484375 0 
L 44.484375 32.71875 
Q 44.484375 40.625 41.703125 44.40625 
Q 38.921875 48.1875 33.109375 48.1875 
Q 26.21875 48.1875 22.15625 43.53125 
Q 18.109375 38.875 18.109375 30.90625 
L 18.109375 0 
L 9.078125 0 
L 9.078125 54.6875 
L 18.109375 54.6875 
L 18.109375 46.1875 
Q 21.1875 51.21875 25.484375 53.609375 
Q 29.78125 56 35.6875 56 
Q 41.65625 56 45.828125 52.96875 
Q 50 49.953125 52 44.1875 
z
" id="DejaVuSans-109"/>
       <path d="M 30.609375 48.390625 
Q 23.390625 48.390625 19.1875 42.75 
Q 14.984375 37.109375 14.984375 27.296875 
Q 14.984375 17.484375 19.15625 11.84375 
Q 23.34375 6.203125 30.609375 6.203125 
Q 37.796875 6.203125 41.984375 11.859375 
Q 46.1875 17.53125 46.1875 27.296875 
Q 46.1875 37.015625 41.984375 42.703125 
Q 37.796875 48.390625 30.609375 48.390625 
z
M 30.609375 56 
Q 42.328125 56 49.015625 48.375 
Q 55.71875 40.765625 55.71875 27.296875 
Q 55.71875 13.875 49.015625 6.21875 
Q 42.328125 -1.421875 30.609375 -1.421875 
Q 18.84375 -1.421875 12.171875 6.21875 
Q 5.515625 13.875 5.515625 27.296875 
Q 5.515625 40.765625 12.171875 48.375 
Q 18.84375 56 30.609375 56 
z
" id="DejaVuSans-111"/>
       <path d="M 56.203125 29.59375 
L 56.203125 25.203125 
L 14.890625 25.203125 
Q 15.484375 15.921875 20.484375 11.0625 
Q 25.484375 6.203125 34.421875 6.203125 
Q 39.59375 6.203125 44.453125 7.46875 
Q 49.3125 8.734375 54.109375 11.28125 
L 54.109375 2.78125 
Q 49.265625 0.734375 44.1875 -0.34375 
Q 39.109375 -1.421875 33.890625 -1.421875 
Q 20.796875 -1.421875 13.15625 6.1875 
Q 5.515625 13.8125 5.515625 26.8125 
Q 5.515625 40.234375 12.765625 48.109375 
Q 20.015625 56 32.328125 56 
Q 43.359375 56 49.78125 48.890625 
Q 56.203125 41.796875 56.203125 29.59375 
z
M 47.21875 32.234375 
Q 47.125 39.59375 43.09375 43.984375 
Q 39.0625 48.390625 32.421875 48.390625 
Q 24.90625 48.390625 20.390625 44.140625 
Q 15.875 39.890625 15.1875 32.171875 
z
" id="DejaVuSans-101"/>
       <path d="M 9.421875 75.984375 
L 18.40625 75.984375 
L 18.40625 0 
L 9.421875 0 
z
" id="DejaVuSans-108"/>
      </defs>
      <use xlink:href="#DejaVuSans-109"/>
      <use x="97.412109" xlink:href="#DejaVuSans-111"/>
      <use x="158.59375" xlink:href="#DejaVuSans-100"/>
      <use x="222.070312" xlink:href="#DejaVuSans-101"/>
      <use x="283.59375" xlink:href="#DejaVuSans-108"/>
     </g>
    </g>
   </g>
  </g>
 </g>
 <defs>
  <clipPath id="pbf57df6902">
   <rect height="333.626714" width="1116" x="180" y="560.386643"/>
  </clipPath>
 </defs>
</svg>
